<svg version="1.1" id="Layer_1" xmlns="http://www.w3.org/2000/svg" xmlns:xlink="http://www.w3.org/1999/xlink" x="0px" y="0px"
	 width="100%" viewBox="0 0 452 436" enable-background="new 0 0 452 436" xml:space="preserve">
<path fill="#FEFFFF" opacity="1.000000" stroke="none" 
	d="
M1.000000,436.000000 
	C1.000000,291.642578 1.000000,147.285172 1.221708,2.359458 
	C1.714384,1.587549 1.899912,1.323832 2.000000,1.000000 
	C151.690750,1.000000 301.381500,1.000000 451.643036,1.220643 
	C452.407990,1.723049 452.670044,1.909287 453.000000,2.000000 
	C453.000000,146.357407 453.000000,290.714813 452.777924,435.640015 
	C452.285034,436.411835 452.099762,436.675903 452.000000,437.000000 
	C302.309265,437.000000 152.618515,437.000000 2.356721,436.779602 
	C1.590962,436.278442 1.329070,436.092041 1.000000,436.000000 
M76.813972,183.506546 
	C76.530266,183.342316 76.246559,183.178085 75.501839,182.871933 
	C75.501839,182.871933 75.083481,182.631836 74.887657,182.015671 
	C73.980507,182.440903 73.073349,182.866119 71.990868,183.812927 
	C71.881554,184.162048 71.772247,184.511185 71.314919,184.901810 
	C71.314919,184.901810 70.975723,184.990021 70.525467,185.155197 
	C70.253929,185.333359 70.029678,185.558594 69.022469,185.940765 
	C65.684776,186.569382 62.347088,187.197998 58.173222,187.928421 
	C55.130493,188.627151 52.087765,189.325882 49.012264,189.992752 
	C49.012264,189.992752 49.017151,190.038025 48.297344,190.045212 
	C46.311573,191.173569 44.109745,192.041580 42.379345,193.477646 
	C36.488354,198.366577 35.469223,205.763596 39.768501,211.334457 
	C39.768501,211.334457 39.680836,211.314590 39.806450,211.933075 
	C40.469757,212.952499 41.133064,213.971924 41.664051,214.787994 
	C40.564186,215.962021 39.692154,216.892868 38.971886,217.806076 
	C38.971886,217.806076 38.820656,217.784058 38.139095,217.979431 
	C35.020721,221.037308 33.224087,224.263046 36.915699,228.014938 
	C36.915699,228.014938 36.803829,228.151978 36.911766,228.732269 
	C37.323280,229.134399 37.734795,229.536545 38.083012,230.563141 
	C38.075665,230.772232 38.068317,230.981308 37.476822,231.479065 
	C34.854187,234.491714 34.646084,237.357697 38.000000,240.000000 
	C38.000000,240.000000 37.992359,240.005096 38.266056,240.645248 
	C42.175724,241.851807 46.085396,243.058350 50.633553,244.554321 
	C51.088509,244.486816 51.543461,244.419312 52.816532,244.673340 
	C62.101845,244.384216 70.940926,243.117920 76.607986,233.670044 
	C76.683296,233.334000 76.758598,232.997971 76.825310,232.091278 
	C76.813957,231.712845 76.802597,231.334412 77.006516,230.153503 
	C77.006821,228.768860 77.007126,227.384216 77.460808,225.653870 
	C76.973770,225.102585 76.486732,224.551300 76.000000,224.000000 
	C76.000000,224.000000 76.000160,224.000610 75.852806,223.551376 
	C75.679703,223.267914 75.432816,223.082947 74.668152,222.619537 
	C74.105339,222.092270 73.542526,221.564987 72.907768,220.379883 
	C71.614929,218.923767 70.322090,217.467667 69.066383,215.670349 
	C69.066383,215.670349 69.081467,215.327667 69.562500,215.124619 
	C69.734085,215.095444 69.905670,215.066284 70.665466,215.018677 
	C71.109077,214.680328 71.552689,214.341980 72.423515,213.684296 
	C72.887833,213.428253 73.352142,213.172211 74.340500,212.808746 
	C74.559410,212.539322 74.778320,212.269897 75.000000,212.000000 
	C75.000000,212.000000 75.000961,211.997269 75.467155,211.809158 
	C75.641861,211.531586 75.816566,211.253998 76.180336,210.538864 
	C76.354202,210.255417 76.598816,210.060974 77.668999,209.970016 
	C80.863045,208.910583 80.778137,206.591507 79.979424,203.338531 
	C80.048546,202.908356 80.117668,202.478195 80.813606,201.910721 
	C81.215408,201.227203 81.617210,200.543671 82.675385,199.926880 
	C83.109879,199.993423 83.544365,200.059952 84.105247,200.887466 
	C83.725418,205.646210 83.291214,210.401535 82.992157,215.165359 
	C82.870163,217.108475 83.041183,219.069962 83.085518,221.813660 
	C82.989319,222.861847 82.893127,223.910034 82.162895,225.108200 
	C82.478577,226.044281 82.794266,226.980377 83.048012,228.002487 
	C83.048012,228.002487 83.072540,227.899368 83.221100,228.421875 
	C83.527290,228.590759 83.833481,228.759659 84.750015,228.971497 
	C85.148720,229.052994 85.547424,229.134476 86.054893,229.749496 
	C86.725952,229.611481 87.397003,229.473480 88.795525,229.204025 
	C89.532242,229.232239 90.268967,229.260452 91.342056,229.650085 
	C91.895538,229.484436 92.449013,229.318771 93.653557,229.013062 
	C94.095917,228.981415 94.538284,228.949753 95.386665,229.440567 
	C101.405777,228.574722 101.665977,228.367889 100.990349,224.202759 
	C101.321243,222.130417 101.652130,220.058075 102.727112,217.837585 
	C102.793816,215.552643 102.860519,213.267685 102.900192,210.194016 
	C103.014053,209.150589 103.127914,208.107178 104.048691,207.026123 
	C105.128716,206.951904 106.208740,206.877686 107.667381,206.883575 
	C107.667381,206.883575 108.001877,207.078201 108.333389,207.679703 
	C110.464241,209.647278 112.367027,209.562469 114.478302,206.654404 
	C115.353058,205.771973 116.227814,204.889542 117.550034,203.723999 
	C117.651558,203.395874 117.753090,203.067749 117.896576,202.349701 
	C117.896576,202.349701 118.064026,201.995087 118.621201,201.532211 
	C119.876991,198.922348 121.627991,196.281464 117.863853,193.389694 
	C117.534439,192.605026 117.205025,191.820374 117.458641,190.600830 
	C118.055138,186.652039 115.271523,188.386322 113.256332,188.274933 
	C113.256332,188.274933 112.986473,188.103119 112.670845,187.570129 
	C111.782799,187.672287 110.894753,187.774460 109.346939,187.985977 
	C108.901711,188.009415 108.456490,188.032867 107.662880,187.575439 
	C107.144783,188.113098 106.626686,188.650757 105.904442,189.597488 
	C105.708160,189.846771 105.456322,190.010742 104.354523,190.022446 
	C102.557365,189.692093 100.760208,189.361725 98.998260,188.998596 
	C98.998260,188.998596 98.975517,189.040466 98.786491,188.555466 
	C98.490028,188.395447 98.193558,188.235443 98.001953,188.050568 
	C98.001953,188.050568 97.914635,188.113739 97.854202,187.373947 
	C96.438484,187.150391 94.828232,186.379333 93.641708,186.800888 
	C89.210213,188.375381 84.917564,190.340668 80.414970,192.225418 
	C80.176086,191.699692 79.778534,190.824768 79.312958,189.301239 
	C79.327881,188.867050 79.342812,188.432877 79.587318,187.750168 
	C79.435898,187.494781 79.284477,187.239395 78.972443,186.598999 
	C78.972443,186.598999 78.907364,186.186951 78.811844,185.657043 
	C78.539772,185.438599 78.267693,185.220154 78.000000,185.000000 
	C78.000000,185.000000 77.998108,185.004532 77.832420,184.537079 
	C77.642578,184.242966 77.376640,184.058624 77.000732,184.002609 
	C77.000732,184.002609 77.016243,183.967407 76.813972,183.506546 
M315.998810,184.044525 
	C315.998810,184.044525 315.797943,184.182770 316.102783,184.814529 
	C319.498199,186.967880 322.951324,187.348236 326.736023,185.274933 
	C326.736023,185.274933 326.963043,185.117172 327.691132,185.130722 
	C329.107880,184.410370 330.524597,183.690002 331.988373,183.005676 
	C331.988373,183.005676 331.973938,182.948242 332.639801,182.822113 
	C333.799194,180.327698 334.958588,177.833282 336.117981,175.338867 
	C333.531647,174.255905 330.847931,172.115829 328.382294,172.342957 
	C324.868164,172.666687 321.514038,174.726807 318.026947,176.005356 
	C318.026947,176.005356 318.034973,176.080826 317.358795,176.207428 
	C314.941162,178.506424 312.199371,180.742889 315.998810,184.044525 
M431.995667,208.001144 
	C431.995667,208.001144 431.931671,207.953445 432.655121,207.878571 
	C433.693542,206.293442 435.352844,204.794769 435.589050,203.097961 
	C435.808472,201.521805 434.509796,199.734314 433.572418,197.478760 
	C433.342194,196.663620 433.111938,195.848465 433.500610,194.487762 
	C433.648376,191.933136 434.297913,189.265945 433.759460,186.865265 
	C433.425964,185.378448 431.287659,184.296432 430.001617,183.001846 
	C430.001617,183.001846 429.970093,183.043991 429.941620,182.446426 
	C429.292084,182.314468 428.642517,182.182510 427.607056,182.128677 
	C427.607056,182.128677 427.213287,182.133530 426.435913,182.050644 
	C421.560974,185.604034 416.052979,186.566635 410.153564,186.240463 
	C409.472534,186.202805 408.724854,187.371323 407.286682,188.210541 
	C405.839203,188.582413 404.366180,188.876068 402.948456,189.339050 
	C394.812927,191.995789 389.593109,199.479401 391.318054,206.746613 
	C391.999451,209.617401 393.984161,212.178864 395.389648,214.908783 
	C387.586426,220.924667 387.071167,222.990906 391.630249,230.317169 
	C388.385803,235.515472 389.119049,239.051819 394.009064,241.789703 
	C402.528961,246.559937 419.469269,244.610397 426.528992,238.047226 
	C433.849243,231.241852 432.945892,224.608810 423.938110,219.119492 
	C424.560669,217.341370 425.183258,215.563248 425.787750,213.876282 
	C425.787750,213.876282 425.831512,213.797379 426.591583,213.920792 
	C430.114044,213.481903 431.942139,211.526306 431.995667,208.001144 
M201.375443,224.763672 
	C201.568420,224.476532 201.761398,224.189407 202.201065,223.501785 
	C202.416153,223.263626 202.674957,223.091019 203.465591,222.758713 
	C203.613571,222.443481 203.761566,222.128250 203.967010,221.380966 
	C203.967010,221.380966 204.146118,220.983627 204.685989,220.512924 
	C204.937592,218.548553 205.189194,216.584198 205.440811,214.619843 
	C204.299362,214.732422 203.157913,214.844986 201.350632,215.004105 
	C200.906311,215.028198 200.462006,215.052292 199.758423,214.462616 
	C199.525879,213.410263 199.293335,212.357895 199.579941,210.851685 
	C201.799316,208.002350 204.619476,205.435638 206.119125,202.247742 
	C209.794113,194.435638 205.623444,187.809097 197.071259,187.098816 
	C183.304031,185.955399 168.957382,196.178543 165.546829,209.562500 
	C163.498703,217.600021 166.075836,224.055847 173.269989,228.632858 
	C173.516068,228.862289 173.806686,228.961731 174.587372,228.966263 
	C174.587372,228.966263 174.999451,229.139252 175.370667,229.751175 
	C178.837875,232.303131 182.344635,233.637115 186.653854,229.942139 
	C187.094086,229.927887 187.534332,229.913620 188.450500,230.492752 
	C194.001404,231.227005 199.202347,228.862732 200.985794,224.906723 
	C200.985794,224.906723 200.857224,224.894348 201.375443,224.763672 
M159.455444,217.596970 
	C160.469437,213.739792 157.420364,215.468231 155.492432,215.134338 
	C155.492432,215.134338 155.035034,215.121857 154.648438,214.592026 
	C153.096558,214.060471 151.544678,213.528900 150.644897,212.761307 
	C153.681473,210.041077 157.444519,207.799469 159.613297,204.507523 
	C165.278305,195.908768 160.595673,187.641830 150.313461,187.273071 
	C135.249908,186.732849 121.073654,198.908966 119.592857,213.659286 
	C118.761757,221.937897 123.587372,228.526230 131.703125,229.827820 
	C141.377594,231.379395 150.187241,229.368607 158.380646,222.898331 
	C158.563126,222.257858 158.745605,221.617371 158.914398,220.239700 
	C158.909134,219.502502 158.903854,218.765289 159.455444,217.596970 
M302.142731,189.300110 
	C294.646606,185.040161 288.981171,189.794281 284.201447,193.145981 
	C281.850983,190.947083 279.609283,187.641724 278.467133,187.985840 
	C272.853851,189.677094 267.352722,192.007339 262.195129,194.815552 
	C260.075989,195.969376 259.578369,199.151230 262.939880,200.093140 
	C266.051544,200.965012 266.189972,202.887924 266.084473,205.348236 
	C265.998810,207.344849 266.291870,209.396149 265.938629,211.336105 
	C264.480347,219.345108 265.988831,228.083405 259.916626,235.055389 
	C259.264282,235.804413 260.433960,239.596649 261.702240,240.318115 
	C268.342773,244.095627 275.571381,244.931046 282.828156,242.239990 
	C285.792267,241.140808 286.617737,238.416290 283.678589,236.552582 
	C280.325531,234.426407 280.407471,232.048874 281.643524,228.586853 
	C290.236908,230.934708 296.570221,227.629410 301.574341,220.814117 
	C308.493073,211.391235 309.105896,197.016953 302.142731,189.300110 
M257.960907,222.288086 
	C257.843781,220.678940 258.214386,217.947388 257.527649,217.648956 
	C253.969833,216.102844 254.971024,213.549744 255.327271,210.934555 
	C256.020538,205.845367 257.019440,200.747498 257.108673,195.639542 
	C257.211853,189.731964 253.560059,186.769882 247.687653,187.892242 
	C244.363403,188.527588 241.220749,190.238647 238.078796,191.648956 
	C236.515366,192.350708 235.137665,193.466217 233.622482,194.428513 
	C229.907608,186.857452 228.920715,186.412537 221.055099,188.944611 
	C218.699631,189.702881 216.225983,190.532242 214.270233,191.962967 
	C212.531937,193.234619 210.777969,195.236969 210.336945,197.208908 
	C210.120132,198.178177 212.860672,199.808914 214.929047,201.772827 
	C214.868546,202.734909 214.889603,204.717453 214.594604,206.651779 
	C213.743378,212.233765 212.574371,217.775192 211.951828,223.379379 
	C211.764267,225.067795 212.402878,227.668015 213.611801,228.549866 
	C218.892990,232.402130 228.994919,227.902054 230.081543,221.478699 
	C230.939331,216.408005 231.513016,211.273361 232.685532,206.278076 
	C233.332367,203.522308 234.558609,200.489258 239.452026,201.490326 
	C238.503479,208.179749 237.577042,214.704468 236.653427,221.229568 
	C235.778214,227.412827 238.919785,230.882187 244.904587,229.190430 
	C249.353775,227.932755 253.341797,225.043671 257.960907,222.288086 
M386.915466,221.070496 
	C386.709534,219.976303 386.768311,218.082214 386.256317,217.912781 
	C381.597717,216.371140 383.391876,213.106766 383.867004,210.100983 
	C384.541016,205.836807 385.378235,201.570786 385.637482,197.274872 
	C386.084290,189.871613 381.864960,186.139328 374.694550,187.994293 
	C370.322174,189.125443 366.271301,191.499435 362.278046,193.227737 
	C360.398621,191.456131 358.509766,188.119675 356.353394,187.936768 
	C350.061127,187.403046 344.234497,189.839905 339.611328,194.232620 
	C337.604828,196.139069 337.020569,198.516342 340.738373,199.974670 
	C341.801910,200.391846 343.037231,202.306778 342.937408,203.422531 
	C342.479980,208.536499 341.692047,213.630676 340.809479,218.694794 
	C339.021240,228.955139 341.580933,231.338638 351.760803,228.995026 
	C357.036957,227.780365 358.167999,223.853775 358.814697,219.361862 
	C359.452118,214.934448 359.897858,210.439041 361.055786,206.142746 
	C361.707977,203.722824 362.709381,200.513702 366.979065,201.371201 
	C366.979065,203.582703 367.179810,205.725647 366.938873,207.817719 
	C366.369385,212.762817 365.310822,217.664597 364.970703,222.619644 
	C364.602600,227.982254 367.342957,230.282318 372.685089,229.525070 
	C378.298950,228.729309 383.167023,226.450287 386.915466,221.070496 
M314.781677,200.283112 
	C314.673370,202.713379 314.769714,205.174057 314.413940,207.567566 
	C313.681946,212.492493 312.496948,217.355576 311.891144,222.292328 
	C311.231750,227.666016 313.718109,230.689545 318.975098,229.672913 
	C323.662537,228.766418 328.450653,226.673325 332.359680,223.919220 
	C336.427246,221.053360 335.603516,218.235764 330.802856,215.966034 
	C330.955750,214.104385 330.975281,212.110260 331.306305,210.169281 
	C332.254944,204.606903 333.330353,199.066162 334.354828,193.516708 
	C334.923035,190.438736 334.122437,187.899002 330.659668,187.789673 
	C324.189117,187.585342 318.074738,189.181702 313.052612,193.452652 
	C310.303009,195.791031 310.205322,198.286789 314.781677,200.283112 
z"/>
<path fill="#F5F5F5" opacity="1.000000" stroke="none" 
	d="
M1.000000,436.500000 
	C1.329070,436.092041 1.590962,436.278442 1.892838,436.779602 
	C1.666667,437.000000 1.333333,437.000000 1.000000,436.500000 
z"/>
<path fill="#F4F4F4" opacity="1.000000" stroke="none" 
	d="
M452.500000,437.000000 
	C452.099762,436.675903 452.285034,436.411835 452.777924,436.103882 
	C453.000000,436.333344 453.000000,436.666656 452.500000,437.000000 
z"/>
<path fill="#F4F4F4" opacity="1.000000" stroke="none" 
	d="
M453.000000,1.500000 
	C452.670044,1.909287 452.407990,1.723049 452.106934,1.220643 
	C452.333344,1.000000 452.666656,1.000000 453.000000,1.500000 
z"/>
<path fill="#F5F5F5" opacity="1.000000" stroke="none" 
	d="
M1.500000,1.000000 
	C1.899912,1.323832 1.714384,1.587549 1.221708,1.895575 
	C1.000000,1.666667 1.000000,1.333333 1.500000,1.000000 
z"/>
<path fill="#53D186" opacity="1.000000" stroke="none" 
	d="
M432.881714,195.033325 
	C433.111938,195.848465 433.342194,196.663620 433.678650,198.155121 
	C433.167145,201.872147 432.549408,204.912796 431.931671,207.953445 
	C431.931671,207.953445 431.995667,208.001144 431.680908,208.121277 
	C429.521271,210.093414 427.676392,211.945404 425.831512,213.797394 
	C425.831512,213.797379 425.787750,213.876282 425.423553,213.879089 
	C417.835541,215.247787 410.611725,216.613693 401.984589,218.244919 
	C409.920654,221.568878 417.147614,218.998199 424.041565,219.783096 
	C432.945892,224.608810 433.849243,231.241852 426.528992,238.047226 
	C419.469269,244.610397 402.528961,246.559937 394.009064,241.789703 
	C389.119049,239.051819 388.385803,235.515472 391.630249,230.317169 
	C387.071167,222.990906 387.586426,220.924667 395.389648,214.908783 
	C393.984161,212.178864 391.999451,209.617401 391.318054,206.746613 
	C389.593109,199.479401 394.812927,191.995789 402.948456,189.339050 
	C404.366180,188.876068 405.839203,188.582413 408.109985,188.148712 
	C415.439117,187.369049 423.181610,190.448334 427.213287,182.133530 
	C427.213287,182.133530 427.607056,182.128677 427.990417,182.304565 
	C428.905853,182.668304 429.437988,182.856155 429.970093,183.044006 
	C429.970093,183.043991 430.001617,183.001846 430.125000,183.341797 
	C432.659790,186.059738 433.838623,188.626495 432.142365,192.039001 
	C431.793365,192.741119 432.605042,194.020203 432.881714,195.033325 
M409.126068,206.762802 
	C411.502197,210.120621 413.253601,210.242722 414.404938,206.833984 
	C415.341461,204.061249 415.684601,201.040298 415.905426,198.100479 
	C415.979126,197.119415 414.860168,196.048767 414.286377,195.019058 
	C413.223450,195.640457 411.510559,196.044312 411.216400,196.923035 
	C410.237427,199.847794 409.767883,202.943085 409.126068,206.762802 
M403.265686,237.287689 
	C407.471893,237.856445 411.622772,238.238831 415.588837,233.479462 
	C409.325867,233.479462 404.256378,233.479462 399.186859,233.479462 
	C398.995239,233.825317 398.803589,234.171188 398.611969,234.517044 
	C399.895844,235.396744 401.179688,236.276428 403.265686,237.287689 
z"/>
<path fill="#52D185" opacity="1.000000" stroke="none" 
	d="
M302.446655,189.513046 
	C309.105896,197.016953 308.493073,211.391235 301.574341,220.814117 
	C296.570221,227.629410 290.236908,230.934708 281.643524,228.586853 
	C280.407471,232.048874 280.325531,234.426407 283.678589,236.552582 
	C286.617737,238.416290 285.792267,241.140808 282.828156,242.239990 
	C275.571381,244.931046 268.342773,244.095627 261.702240,240.318115 
	C260.433960,239.596649 259.264282,235.804413 259.916626,235.055389 
	C265.988831,228.083405 264.480347,219.345108 265.938629,211.336105 
	C266.291870,209.396149 265.998810,207.344849 266.084473,205.348236 
	C266.189972,202.887924 266.051544,200.965012 262.939880,200.093140 
	C259.578369,199.151230 260.075989,195.969376 262.195129,194.815552 
	C267.352722,192.007339 272.853851,189.677094 278.467133,187.985840 
	C279.609283,187.641724 281.850983,190.947083 284.201447,193.145981 
	C288.981171,189.794281 294.646606,185.040161 302.446655,189.513046 
M289.828278,207.160751 
	C289.841492,206.164551 290.092102,205.095428 289.813629,204.188812 
	C289.368591,202.740051 288.572174,201.399216 287.924347,200.012756 
	C286.783142,201.001190 285.103363,201.775131 284.607361,203.020523 
	C283.390503,206.075943 282.499512,209.307770 281.896942,212.546677 
	C281.400726,215.214111 281.506683,217.993591 281.274261,221.936325 
	C287.925415,218.143158 288.356934,212.812744 289.828278,207.160751 
z"/>
<path fill="#51D185" opacity="1.000000" stroke="none" 
	d="
M76.791237,230.955978 
	C76.802597,231.334412 76.813957,231.712845 76.611557,232.448334 
	C76.397797,232.805374 75.977310,232.989761 75.638947,233.041199 
	C70.652954,239.968491 63.599087,242.082306 55.892944,243.014267 
	C54.560337,243.175415 53.294884,243.891846 51.998413,244.351807 
	C51.543461,244.419312 51.088509,244.486816 50.169846,244.128342 
	C45.801544,242.469940 41.896950,241.237518 37.992355,240.005096 
	C37.992359,240.005096 38.000000,240.000000 38.002277,239.557953 
	C38.023361,236.474075 38.042164,233.832245 38.060970,231.190399 
	C38.068317,230.981308 38.075665,230.772232 38.324669,230.059235 
	C37.978828,229.087540 37.391323,228.619766 36.803825,228.151978 
	C36.803829,228.151978 36.915699,228.014938 36.929554,227.714691 
	C37.569157,224.204315 38.194904,220.994186 38.820656,217.784058 
	C38.820656,217.784058 38.971886,217.806076 39.298851,217.869019 
	C40.749172,216.718979 41.872524,215.505981 42.995880,214.292969 
	C41.890865,213.300171 40.785854,212.307373 39.680840,211.314590 
	C39.680836,211.314590 39.768501,211.334457 39.800823,210.892578 
	C38.795551,202.080994 39.735954,196.693146 46.037529,192.936707 
	C47.195297,192.246536 48.032166,191.018051 49.017151,190.038025 
	C49.017151,190.038025 49.012264,189.992752 49.493057,190.008987 
	C54.774868,190.014923 59.584946,190.167587 64.371750,189.901535 
	C65.942429,189.814270 67.452751,188.640991 69.108200,187.757599 
	C69.418365,187.284195 69.670952,187.099487 70.214432,186.884674 
	C70.621925,186.486664 70.798485,186.200775 70.991867,185.683685 
	C71.008682,185.452484 70.975723,184.990021 70.975723,184.990021 
	C70.975723,184.990021 71.314919,184.901810 71.943817,184.922104 
	C74.082672,184.946732 75.592644,184.951065 77.326057,184.975372 
	C77.549507,184.995346 77.998108,185.004532 77.998108,185.004532 
	C77.998108,185.004532 78.000000,185.000000 77.992691,185.246887 
	C77.985374,185.493774 78.005501,185.985535 77.999756,186.359497 
	C78.005196,188.492599 78.016380,190.251770 77.996933,192.383881 
	C78.017654,193.749649 78.069016,194.742462 78.087219,196.150635 
	C78.046959,200.068420 78.039856,203.570831 77.997528,207.364380 
	C77.618034,208.094894 77.273766,208.534256 76.564392,208.986725 
	C75.465401,209.996552 74.731522,210.993286 73.941177,212.219376 
	C73.884705,212.448730 73.816452,212.916153 73.816452,212.916153 
	C73.352142,213.172211 72.887833,213.428253 71.924286,213.822662 
	C71.047203,214.016113 70.669350,214.071198 69.958740,214.103287 
	C69.109787,214.417389 68.593582,214.754501 68.067093,215.071899 
	C68.056816,215.052216 68.083397,215.063766 67.699051,215.037170 
	C66.232719,215.429901 65.150726,215.849228 63.708786,216.472717 
	C58.735123,216.881271 54.121399,217.085693 49.507679,217.290100 
	C49.473328,217.937820 49.438976,218.585541 49.404625,219.233246 
	C51.486423,219.545776 53.558617,220.007446 55.651855,220.142242 
	C61.423100,220.513870 67.203148,220.748734 72.979713,221.037689 
	C73.542526,221.564987 74.105339,222.092270 74.936714,223.047729 
	C75.388016,223.775330 75.652977,223.950226 76.000160,224.000610 
	C76.000160,224.000610 76.000000,224.000000 76.002777,224.286118 
	C76.056694,224.948547 76.107841,225.324844 76.111816,226.097153 
	C76.306839,227.980759 76.549034,229.468369 76.791237,230.955978 
M56.410088,199.144119 
	C56.038876,201.598938 55.428223,204.051956 55.409645,206.509445 
	C55.401779,207.549927 56.638180,208.599823 57.309048,209.645432 
	C58.451832,208.853821 60.211853,208.292206 60.610180,207.223190 
	C61.465755,204.927032 61.898300,202.376343 61.960144,199.916183 
	C61.999889,198.335144 61.071423,196.729782 60.576942,195.135315 
	C59.301453,196.229538 58.025963,197.323761 56.410088,199.144119 
M45.306820,233.564438 
	C44.934315,237.577209 48.199867,237.576797 50.568687,237.817291 
	C54.280895,238.194199 58.173931,238.244019 61.581596,234.267654 
	C55.687813,233.835739 50.838181,233.480347 45.306820,233.564438 
z"/>
<path fill="#52D185" opacity="1.000000" stroke="none" 
	d="
M257.748047,222.584656 
	C253.341797,225.043671 249.353775,227.932755 244.904587,229.190430 
	C238.919785,230.882187 235.778214,227.412827 236.653427,221.229568 
	C237.577042,214.704468 238.503479,208.179749 239.452026,201.490326 
	C234.558609,200.489258 233.332367,203.522308 232.685532,206.278076 
	C231.513016,211.273361 230.939331,216.408005 230.081543,221.478699 
	C228.994919,227.902054 218.892990,232.402130 213.611801,228.549866 
	C212.402878,227.668015 211.764267,225.067795 211.951828,223.379379 
	C212.574371,217.775192 213.743378,212.233765 214.594604,206.651779 
	C214.889603,204.717453 214.868546,202.734909 214.929047,201.772827 
	C212.860672,199.808914 210.120132,198.178177 210.336945,197.208908 
	C210.777969,195.236969 212.531937,193.234619 214.270233,191.962967 
	C216.225983,190.532242 218.699631,189.702881 221.055099,188.944611 
	C228.920715,186.412537 229.907608,186.857452 233.622482,194.428513 
	C235.137665,193.466217 236.515366,192.350708 238.078796,191.648956 
	C241.220749,190.238647 244.363403,188.527588 247.687653,187.892242 
	C253.560059,186.769882 257.211853,189.731964 257.108673,195.639542 
	C257.019440,200.747498 256.020538,205.845367 255.327271,210.934555 
	C254.971024,213.549744 253.969833,216.102844 257.527649,217.648956 
	C258.214386,217.947388 257.843781,220.678940 257.748047,222.584656 
z"/>
<path fill="#53D186" opacity="1.000000" stroke="none" 
	d="
M155.035034,215.121857 
	C155.035034,215.121857 155.492432,215.134338 155.919968,215.313568 
	C157.197861,216.337891 158.048218,217.182999 158.898590,218.028091 
	C158.903854,218.765289 158.909134,219.502502 158.688751,220.777161 
	C158.227066,221.833359 157.991028,222.352112 157.754990,222.870865 
	C150.187241,229.368607 141.377594,231.379395 131.703125,229.827820 
	C123.587372,228.526230 118.761757,221.937897 119.592857,213.659286 
	C121.073654,198.908966 135.249908,186.732849 150.313461,187.273071 
	C160.595673,187.641830 165.278305,195.908768 159.613297,204.507523 
	C157.444519,207.799469 153.681473,210.041077 149.926178,212.953613 
	C145.817810,213.849899 142.428146,214.553879 139.038498,215.257858 
	C138.466583,216.051117 137.894669,216.844376 137.322754,217.637619 
	C138.568741,217.979996 139.814713,218.322357 141.360596,218.809143 
	C142.100784,218.980835 142.541092,219.008133 143.237213,219.239700 
	C147.340378,218.003281 151.187698,216.562561 155.035034,215.121857 
M139.944702,201.612930 
	C139.709961,203.224304 139.475235,204.835678 139.184937,206.828476 
	C145.282410,204.841385 147.287491,200.234039 144.444733,194.715240 
	C142.868820,196.999069 141.524200,198.947739 139.944702,201.612930 
z"/>
<path fill="#53D186" opacity="1.000000" stroke="none" 
	d="
M200.017685,215.076355 
	C200.462006,215.052292 200.906311,215.028198 201.901367,215.270416 
	C203.016769,217.352371 203.581436,219.167999 204.146118,220.983627 
	C204.146118,220.983627 203.967010,221.380966 203.702881,221.719330 
	C203.285004,222.366440 203.131256,222.675201 202.977493,222.983963 
	C202.674957,223.091019 202.416153,223.263626 201.819305,223.766983 
	C201.244095,224.319565 201.050659,224.606949 200.857208,224.894348 
	C200.857224,224.894348 200.985794,224.906723 200.574890,224.938507 
	C196.100861,226.613312 192.037704,228.256348 187.974564,229.899368 
	C187.534332,229.913620 187.094086,229.927887 185.897522,229.942947 
	C181.760605,229.675598 178.380035,229.407425 174.999451,229.139252 
	C174.999451,229.139252 174.587372,228.966263 174.237930,228.744492 
	C173.642990,228.273773 173.348312,228.180908 173.004456,228.244095 
	C166.075836,224.055847 163.498703,217.600021 165.546829,209.562500 
	C168.957382,196.178543 183.304031,185.955399 197.071259,187.098816 
	C205.623444,187.809097 209.794113,194.435638 206.119125,202.247742 
	C204.619476,205.435638 201.799316,208.002350 198.953400,211.091568 
	C193.659119,212.673004 188.991379,214.014572 184.323624,215.356140 
	C184.198059,215.867981 184.072510,216.379837 183.946945,216.891678 
	C185.979721,217.638504 188.191177,219.294220 190.006958,218.937241 
	C193.463272,218.257721 196.693542,216.428299 200.017685,215.076355 
M185.058380,205.683167 
	C189.778488,206.056458 192.836899,200.529755 190.583786,194.805756 
	C186.777710,197.283035 184.911697,200.546799 185.058380,205.683167 
z"/>
<path fill="#56D187" opacity="1.000000" stroke="none" 
	d="
M386.801178,221.433411 
	C383.167023,226.450287 378.298950,228.729309 372.685089,229.525070 
	C367.342957,230.282318 364.602600,227.982254 364.970703,222.619644 
	C365.310822,217.664597 366.369385,212.762817 366.938873,207.817719 
	C367.179810,205.725647 366.979065,203.582703 366.979065,201.371201 
	C362.709381,200.513702 361.707977,203.722824 361.055786,206.142746 
	C359.897858,210.439041 359.452118,214.934448 358.814697,219.361862 
	C358.167999,223.853775 357.036957,227.780365 351.760803,228.995026 
	C341.580933,231.338638 339.021240,228.955139 340.809479,218.694794 
	C341.692047,213.630676 342.479980,208.536499 342.937408,203.422531 
	C343.037231,202.306778 341.801910,200.391846 340.738373,199.974670 
	C337.020569,198.516342 337.604828,196.139069 339.611328,194.232620 
	C344.234497,189.839905 350.061127,187.403046 356.353394,187.936768 
	C358.509766,188.119675 360.398621,191.456131 362.278046,193.227737 
	C366.271301,191.499435 370.322174,189.125443 374.694550,187.994293 
	C381.864960,186.139328 386.084290,189.871613 385.637482,197.274872 
	C385.378235,201.570786 384.541016,205.836807 383.867004,210.100983 
	C383.391876,213.106766 381.597717,216.371140 386.256317,217.912781 
	C386.768311,218.082214 386.709534,219.976303 386.801178,221.433411 
M367.739929,195.053101 
	C367.478119,195.999527 366.844330,197.026169 367.027740,197.876556 
	C367.484314,199.993637 369.036652,202.096863 368.854004,204.086792 
	C368.345764,209.623169 367.273224,215.116898 366.238251,220.592438 
	C365.580994,224.069748 367.937958,227.088501 372.615845,227.675751 
	C376.021759,228.103317 378.650543,227.336884 378.458252,222.731140 
	C378.371796,220.660202 379.992676,218.561157 380.577576,216.404037 
	C380.976227,214.933594 381.449921,213.147293 380.971039,211.838501 
	C379.562958,207.990280 380.343262,204.865784 382.717407,201.661804 
	C385.516388,197.884583 384.375183,194.378876 379.761780,191.282898 
	C376.153595,188.861496 373.765320,189.541473 370.858337,193.610031 
	C370.374756,194.286880 369.306396,194.545914 367.739929,195.053101 
z"/>
<path fill="#53D186" opacity="1.000000" stroke="none" 
	d="
M101.983017,217.985733 
	C101.652130,220.058075 101.321243,222.130417 100.710068,224.786469 
	C98.613396,226.552811 96.797020,227.735458 94.980644,228.918106 
	C94.538284,228.949753 94.095917,228.981415 92.992912,229.016586 
	C91.890076,229.109619 91.447884,229.199142 91.005684,229.288666 
	C90.268967,229.260452 89.532242,229.232239 88.087311,229.160690 
	C86.901436,229.150223 86.423775,229.183090 85.946121,229.215973 
	C85.547424,229.134476 85.148720,229.052994 84.331100,228.718033 
	C83.632309,228.276169 83.352425,228.087769 83.072540,227.899368 
	C83.072540,227.899368 83.048012,228.002487 83.070541,227.587341 
	C82.994362,226.434204 82.895645,225.696213 82.796936,224.958221 
	C82.893127,223.910034 82.989319,222.861847 83.333801,221.134338 
	C84.589363,215.145416 85.679634,209.849518 86.560829,204.519058 
	C86.888313,202.538040 87.661034,199.918182 83.978859,200.126480 
	C83.544365,200.059952 83.109879,199.993423 82.216583,199.578995 
	C82.543831,197.144653 82.753922,193.940811 84.224655,193.182709 
	C88.518204,190.969650 93.315063,189.733078 97.914635,188.113739 
	C97.914635,188.113739 98.001953,188.050568 98.042213,188.305298 
	C98.380157,188.720184 98.677841,188.880325 98.975517,189.040466 
	C98.975517,189.040466 98.998260,188.998596 99.090309,189.354095 
	C99.985031,191.630005 100.787704,193.550400 102.035728,196.536301 
	C103.357643,193.798843 104.253288,191.944122 105.148933,190.089386 
	C105.456322,190.010742 105.708160,189.846771 106.294601,189.345856 
	C107.126923,188.748260 107.569092,188.402283 108.011261,188.056320 
	C108.456490,188.032867 108.901711,188.009415 110.042160,188.016663 
	C111.487083,188.065918 112.236778,188.084518 112.986473,188.103119 
	C112.986473,188.103119 113.256332,188.274933 113.606766,188.530853 
	C114.930000,189.536438 115.902809,190.286072 116.875610,191.035706 
	C117.205025,191.820374 117.534439,192.605026 117.958694,194.123825 
	C118.057030,197.237000 118.060524,199.616043 118.064026,201.995087 
	C118.064026,201.995087 117.896576,202.349701 117.658722,202.692200 
	C117.314766,203.358856 117.208672,203.682983 117.102570,204.007126 
	C116.227814,204.889542 115.353058,205.771973 113.810181,206.850769 
	C111.428658,207.057495 109.715271,207.067841 108.001877,207.078201 
	C108.001877,207.078201 107.667381,206.883575 107.315369,206.549545 
	C106.231987,204.961731 105.500603,203.707932 104.210236,201.495880 
	C103.773491,204.006805 103.507637,205.535278 103.241776,207.063751 
	C103.127914,208.107178 103.014053,209.150589 102.668129,210.890289 
	C102.285049,213.719620 102.134033,215.852676 101.983017,217.985733 
z"/>
<path fill="#53D186" opacity="1.000000" stroke="none" 
	d="
M314.445801,200.051193 
	C310.205322,198.286789 310.303009,195.791031 313.052612,193.452652 
	C318.074738,189.181702 324.189117,187.585342 330.659668,187.789673 
	C334.122437,187.899002 334.923035,190.438736 334.354828,193.516708 
	C333.330353,199.066162 332.254944,204.606903 331.306305,210.169281 
	C330.975281,212.110260 330.955750,214.104385 330.802856,215.966034 
	C335.603516,218.235764 336.427246,221.053360 332.359680,223.919220 
	C328.450653,226.673325 323.662537,228.766418 318.975098,229.672913 
	C313.718109,230.689545 311.231750,227.666016 311.891144,222.292328 
	C312.496948,217.355576 313.681946,212.492493 314.413940,207.567566 
	C314.769714,205.174057 314.673370,202.713379 314.445801,200.051193 
z"/>
<path fill="#56D187" opacity="1.000000" stroke="none" 
	d="
M326.963043,185.117172 
	C326.963043,185.117172 326.736023,185.274933 326.133667,185.168854 
	C322.286865,184.769440 319.042389,184.476105 315.797943,184.182770 
	C315.797943,184.182770 315.998810,184.044525 315.966644,183.711914 
	C316.634644,180.946487 317.334808,178.513657 318.034973,176.080826 
	C318.034973,176.080826 318.026947,176.005356 318.445587,176.014313 
	C321.585052,175.705887 324.305908,175.388504 326.876831,175.387451 
	C326.050598,180.784225 326.837036,181.405273 331.941620,180.197235 
	C331.966888,181.375992 331.970398,182.162109 331.973938,182.948242 
	C331.973938,182.948242 331.988373,183.005676 331.616425,183.030121 
	C329.817322,183.742111 328.390198,184.429642 326.963043,185.117172 
z"/>
<path fill="#DEFCEC" opacity="1.000000" stroke="none" 
	d="
M423.989838,219.451294 
	C417.147614,218.998199 409.920654,221.568878 401.984589,218.244919 
	C410.611725,216.613693 417.835541,215.247787 425.432617,213.833527 
	C425.183258,215.563248 424.560669,217.341370 423.989838,219.451294 
z"/>
<path fill="#DEFCEC" opacity="1.000000" stroke="none" 
	d="
M72.943741,220.708786 
	C67.203148,220.748734 61.423100,220.513870 55.651855,220.142242 
	C53.558617,220.007446 51.486423,219.545776 49.404625,219.233246 
	C49.438976,218.585541 49.473328,217.937820 49.507679,217.290100 
	C54.121399,217.085693 58.735123,216.881271 64.079994,216.451569 
	C65.789612,216.108109 66.768074,215.989960 68.066628,215.912170 
	C68.600899,215.972229 68.815079,215.991898 69.029251,216.011551 
	C70.322090,217.467667 71.614929,218.923767 72.943741,220.708786 
z"/>
<path fill="#5ECE8D" opacity="1.000000" stroke="none" 
	d="
M332.306885,182.885178 
	C331.970398,182.162109 331.966888,181.375992 331.959290,179.817078 
	C332.372253,175.164780 330.023712,174.715759 327.026733,175.071106 
	C324.305908,175.388504 321.585052,175.705887 318.477905,176.034241 
	C321.514038,174.726807 324.868164,172.666687 328.382294,172.342957 
	C330.847931,172.115829 333.531647,174.255905 336.117981,175.338867 
	C334.958588,177.833282 333.799194,180.327698 332.306885,182.885178 
z"/>
<path fill="#DEFCEC" opacity="1.000000" stroke="none" 
	d="
M199.888062,214.769485 
	C196.693542,216.428299 193.463272,218.257721 190.006958,218.937241 
	C188.191177,219.294220 185.979721,217.638504 183.946945,216.891678 
	C184.072510,216.379837 184.198059,215.867981 184.323624,215.356140 
	C188.991379,214.014572 193.659119,212.673004 198.693832,211.318497 
	C199.293335,212.357895 199.525879,213.410263 199.888062,214.769485 
M195.696777,215.579468 
	C195.988831,215.363190 196.280869,215.146912 196.572922,214.930634 
	C196.394714,214.745270 196.216507,214.559906 196.038300,214.374542 
	C195.808197,214.655869 195.578079,214.937195 195.696777,215.579468 
z"/>
<path fill="#D8FCE8" opacity="1.000000" stroke="none" 
	d="
M97.884415,187.743835 
	C93.315063,189.733078 88.518204,190.969650 84.224655,193.182709 
	C82.753922,193.940811 82.543831,197.144653 81.888397,199.545624 
	C81.617210,200.543671 81.215408,201.227203 80.421478,201.592941 
	C79.393028,199.428528 78.756706,197.581894 78.120377,195.735260 
	C78.069016,194.742462 78.017654,193.749649 78.247803,192.194977 
	C78.813210,191.072006 79.097092,190.510925 79.380974,189.949844 
	C79.778534,190.824768 80.176086,191.699692 80.414970,192.225418 
	C84.917564,190.340668 89.210213,188.375381 93.641708,186.800888 
	C94.828232,186.379333 96.438484,187.150391 97.884415,187.743835 
z"/>
<path fill="#5ECE8D" opacity="1.000000" stroke="none" 
	d="
M52.407471,244.512573 
	C53.294884,243.891846 54.560337,243.175415 55.892944,243.014267 
	C63.599087,242.082306 70.652954,239.968491 75.689529,233.294067 
	C76.116844,233.662979 76.155235,233.830505 76.193626,233.998047 
	C70.940926,243.117920 62.101845,244.384216 52.407471,244.512573 
z"/>
<path fill="#5ECE8D" opacity="1.000000" stroke="none" 
	d="
M48.657249,190.041626 
	C48.032166,191.018051 47.195297,192.246536 46.037529,192.936707 
	C39.735954,196.693146 38.795551,202.080994 39.767105,210.862885 
	C35.469223,205.763596 36.488354,198.366577 42.379345,193.477646 
	C44.109745,192.041580 46.311573,191.173569 48.657249,190.041626 
z"/>
<path fill="#DEFCEC" opacity="1.000000" stroke="none" 
	d="
M141.060699,218.664734 
	C139.814713,218.322357 138.568741,217.979996 137.322754,217.637619 
	C137.894669,216.844376 138.466583,216.051117 139.038498,215.257858 
	C142.428146,214.553879 145.817810,213.849899 149.600128,213.071625 
	C151.544678,213.528900 153.096558,214.060471 154.841736,214.856934 
	C151.187698,216.562561 147.340378,218.003281 143.444916,218.973969 
	C144.153687,218.059418 144.910599,217.614868 145.913574,217.025803 
	C142.220978,215.880890 142.220978,215.880890 141.060699,218.664734 
z"/>
<path fill="#DEFCEC" opacity="1.000000" stroke="none" 
	d="
M426.824585,182.092087 
	C423.181610,190.448334 415.439117,187.369049 408.470673,188.033752 
	C408.724854,187.371323 409.472534,186.202805 410.153564,186.240463 
	C416.052979,186.566635 421.560974,185.604034 426.824585,182.092087 
z"/>
<path fill="#D8FCE8" opacity="1.000000" stroke="none" 
	d="
M84.042053,200.506973 
	C87.661034,199.918182 86.888313,202.538040 86.560829,204.519058 
	C85.679634,209.849518 84.589363,215.145416 83.330490,220.739075 
	C83.041183,219.069962 82.870163,217.108475 82.992157,215.165359 
	C83.291214,210.401535 83.725418,205.646210 84.042053,200.506973 
z"/>
<path fill="#5ECE8D" opacity="1.000000" stroke="none" 
	d="
M68.990669,187.964325 
	C67.452751,188.640991 65.942429,189.814270 64.371750,189.901535 
	C59.584946,190.167587 54.774868,190.014923 49.509445,190.024918 
	C52.087765,189.325882 55.130493,188.627151 59.037678,187.959061 
	C62.931644,187.981247 65.961159,187.972778 68.990669,187.964325 
z"/>
<path fill="#DEFCEC" opacity="1.000000" stroke="none" 
	d="
M188.212524,230.196060 
	C192.037704,228.256348 196.100861,226.613312 200.517822,224.908295 
	C199.202347,228.862732 194.001404,231.227005 188.212524,230.196060 
z"/>
<path fill="#5ECE8D" opacity="1.000000" stroke="none" 
	d="
M38.129204,240.325180 
	C41.896950,241.237518 45.801544,242.469940 49.850601,243.983643 
	C46.085396,243.058350 42.175724,241.851807 38.129204,240.325180 
z"/>
<path fill="#D8FCE8" opacity="1.000000" stroke="none" 
	d="
M104.751724,190.055908 
	C104.253288,191.944122 103.357643,193.798843 102.035728,196.536301 
	C100.787704,193.550400 99.985031,191.630005 99.072708,189.370483 
	C100.760208,189.361725 102.557365,189.692093 104.751724,190.055908 
z"/>
<path fill="#DEFCEC" opacity="1.000000" stroke="none" 
	d="
M175.185059,229.445221 
	C178.380035,229.407425 181.760605,229.675598 185.575470,230.020264 
	C182.344635,233.637115 178.837875,232.303131 175.185059,229.445221 
z"/>
<path fill="#DEFCEC" opacity="1.000000" stroke="none" 
	d="
M433.191162,194.760544 
	C432.605042,194.020203 431.793365,192.741119 432.142365,192.039001 
	C433.838623,188.626495 432.659790,186.059738 430.103943,183.357239 
	C431.287659,184.296432 433.425964,185.378448 433.759460,186.865265 
	C434.297913,189.265945 433.648376,191.933136 433.191162,194.760544 
z"/>
<path fill="#DEFCEC" opacity="1.000000" stroke="none" 
	d="
M432.293396,207.916016 
	C432.549408,204.912796 433.167145,201.872147 433.832214,198.435684 
	C434.509796,199.734314 435.808472,201.521805 435.589050,203.097961 
	C435.352844,204.794769 433.693542,206.293442 432.293396,207.916016 
z"/>
<path fill="#5ECE8D" opacity="1.000000" stroke="none" 
	d="
M38.479874,217.881744 
	C38.194904,220.994186 37.569157,224.204315 36.893730,227.795563 
	C33.224087,224.263046 35.020721,221.037308 38.479874,217.881744 
z"/>
<path fill="#5ECE8D" opacity="1.000000" stroke="none" 
	d="
M315.950378,184.498657 
	C319.042389,184.476105 322.286865,184.769440 326.009766,185.107574 
	C322.951324,187.348236 319.498199,186.967880 315.950378,184.498657 
z"/>
<path fill="#5ECE8D" opacity="1.000000" stroke="none" 
	d="
M37.768898,231.334732 
	C38.042164,233.832245 38.023361,236.474075 37.999725,239.561768 
	C34.646084,237.357697 34.854187,234.491714 37.768898,231.334732 
z"/>
<path fill="#5ECE8D" opacity="1.000000" stroke="none" 
	d="
M317.696899,176.144135 
	C317.334808,178.513657 316.634644,180.946487 315.875153,183.792618 
	C312.199371,180.742889 314.941162,178.506424 317.696899,176.144135 
z"/>
<path fill="#DEFCEC" opacity="1.000000" stroke="none" 
	d="
M204.416046,220.748276 
	C203.581436,219.167999 203.016769,217.352371 202.234283,215.247162 
	C203.157913,214.844986 204.299362,214.732422 205.440811,214.619843 
	C205.189194,216.584198 204.937592,218.548553 204.416046,220.748276 
z"/>
<path fill="#5ECE8D" opacity="1.000000" stroke="none" 
	d="
M39.743645,211.623840 
	C40.785854,212.307373 41.890865,213.300171 42.995880,214.292969 
	C41.872524,215.505981 40.749172,216.718979 39.222969,217.877838 
	C39.692154,216.892868 40.564186,215.962021 41.664051,214.787994 
	C41.133064,213.971924 40.469757,212.952499 39.743645,211.623840 
z"/>
<path fill="#D8FCE8" opacity="1.000000" stroke="none" 
	d="
M69.108200,187.757599 
	C65.961159,187.972778 62.931644,187.981247 59.455765,187.908157 
	C62.347088,187.197998 65.684776,186.569382 69.491074,185.946228 
	C69.959679,185.951691 70.067719,186.067276 70.030952,186.298218 
	C69.994186,186.529175 69.983498,186.996780 69.983498,186.996780 
	C69.670952,187.099487 69.418365,187.284195 69.108200,187.757599 
z"/>
<path fill="#DEFCEC" opacity="1.000000" stroke="none" 
	d="
M426.211548,213.859100 
	C427.676392,211.945404 429.521271,210.093414 431.656433,208.089905 
	C431.942139,211.526306 430.114044,213.481903 426.211548,213.859100 
z"/>
<path fill="#D8FCE8" opacity="1.000000" stroke="none" 
	d="
M95.183655,229.179337 
	C96.797020,227.735458 98.613396,226.552811 100.704071,225.182968 
	C101.665977,228.367889 101.405777,228.574722 95.183655,229.179337 
z"/>
<path fill="#5ECE8D" opacity="1.000000" stroke="none" 
	d="
M78.087219,196.150635 
	C78.756706,197.581894 79.393028,199.428528 80.108063,201.661591 
	C80.117668,202.478195 80.048546,202.908356 79.733231,203.864487 
	C79.002274,205.284714 78.517509,206.178970 78.032761,207.073242 
	C78.039856,203.570831 78.046959,200.068420 78.087219,196.150635 
z"/>
<path fill="#D8FCE8" opacity="1.000000" stroke="none" 
	d="
M118.342613,201.763641 
	C118.060524,199.616043 118.057030,197.237000 118.100555,194.413055 
	C121.627991,196.281464 119.876991,198.922348 118.342613,201.763641 
z"/>
<path fill="#D8FCE8" opacity="1.000000" stroke="none" 
	d="
M102.355064,217.911652 
	C102.134033,215.852676 102.285049,213.719620 102.681641,211.284653 
	C102.860519,213.267685 102.793816,215.552643 102.355064,217.911652 
z"/>
<path fill="#D8FCE8" opacity="1.000000" stroke="none" 
	d="
M103.645233,207.044937 
	C103.507637,205.535278 103.773491,204.006805 104.210236,201.495880 
	C105.500603,203.707932 106.231987,204.961731 107.126068,206.509491 
	C106.208740,206.877686 105.128716,206.951904 103.645233,207.044937 
z"/>
<path fill="#D8FCE8" opacity="1.000000" stroke="none" 
	d="
M77.997528,207.364380 
	C78.517509,206.178970 79.002274,205.284714 79.726135,204.191589 
	C80.778137,206.591507 80.863045,208.910583 77.295502,209.717346 
	C76.921997,209.464691 76.929497,208.973633 76.929497,208.973633 
	C77.273766,208.534256 77.618034,208.094894 77.997528,207.364380 
z"/>
<path fill="#D8FCE8" opacity="1.000000" stroke="none" 
	d="
M108.167633,207.378952 
	C109.715271,207.067841 111.428658,207.057495 113.571060,207.048584 
	C112.367027,209.562469 110.464241,209.647278 108.167633,207.378952 
z"/>
<path fill="#D8FCE8" opacity="1.000000" stroke="none" 
	d="
M117.167130,190.818268 
	C115.902809,190.286072 114.930000,189.536438 113.766510,188.539124 
	C115.271523,188.386322 118.055138,186.652039 117.167130,190.818268 
z"/>
<path fill="#5ECE8D" opacity="1.000000" stroke="none" 
	d="
M77.102608,184.955399 
	C75.592644,184.951065 74.082672,184.946732 72.117821,184.901352 
	C71.772247,184.511185 71.881554,184.162048 72.441551,183.463425 
	C73.622650,182.953217 74.353065,182.792526 75.083481,182.631836 
	C75.083481,182.631836 75.501839,182.871933 75.830536,183.176254 
	C76.444901,183.642853 76.730576,183.805130 77.016243,183.967407 
	C77.016243,183.967407 77.000732,184.002609 77.020966,184.237152 
	C77.041206,184.471680 77.102608,184.955399 77.102608,184.955399 
z"/>
<path fill="#DEFCEC" opacity="1.000000" stroke="none" 
	d="
M159.177017,217.812531 
	C158.048218,217.182999 157.197861,216.337891 156.143829,215.266327 
	C157.420364,215.468231 160.469437,213.739792 159.177017,217.812531 
z"/>
<path fill="#5ECE8D" opacity="1.000000" stroke="none" 
	d="
M79.346970,189.625549 
	C79.097092,190.510925 78.813210,191.072006 78.278442,191.822006 
	C78.016380,190.251770 78.005196,188.492599 78.225342,186.409317 
	C78.456665,186.085190 78.907364,186.186951 78.907364,186.186951 
	C78.907364,186.186951 78.972443,186.598999 79.045029,187.059296 
	C79.197655,187.679306 79.277702,187.839005 79.357742,187.998688 
	C79.342812,188.432877 79.327881,188.867050 79.346970,189.625549 
z"/>
<path fill="#D8FCE8" opacity="1.000000" stroke="none" 
	d="
M82.479919,225.033203 
	C82.895645,225.696213 82.994362,226.434204 83.101509,227.544327 
	C82.794266,226.980377 82.478577,226.044281 82.479919,225.033203 
z"/>
<path fill="#D8FCE8" opacity="1.000000" stroke="none" 
	d="
M74.985565,182.323761 
	C74.353065,182.792526 73.622650,182.953217 72.529213,183.202637 
	C73.073349,182.866119 73.980507,182.440903 74.985565,182.323761 
z"/>
<path fill="#5ECE8D" opacity="1.000000" stroke="none" 
	d="
M327.327087,185.123947 
	C328.390198,184.429642 329.817322,183.742111 331.592896,183.012115 
	C330.524597,183.690002 329.107880,184.410370 327.327087,185.123947 
z"/>
<path fill="#5ECE8D" opacity="1.000000" stroke="none" 
	d="
M76.564392,208.986725 
	C76.929497,208.973633 76.921997,209.464691 76.918091,209.710114 
	C76.598816,210.060974 76.354202,210.255417 75.844444,210.840286 
	C75.339355,211.426895 75.170158,211.712082 75.000961,211.997269 
	C75.000961,211.997269 75.000000,212.000000 74.748749,211.996201 
	C74.497498,211.992401 73.997643,211.990021 73.997643,211.990021 
	C74.731522,210.993286 75.465401,209.996552 76.564392,208.986725 
z"/>
<path fill="#5ECE8D" opacity="1.000000" stroke="none" 
	d="
M76.898880,230.554749 
	C76.549034,229.468369 76.306839,227.980759 76.321442,226.178497 
	C76.578232,225.863831 77.007431,225.999573 77.007431,225.999573 
	C77.007126,227.384216 77.006821,228.768860 76.898880,230.554749 
z"/>
<path fill="#5ECE8D" opacity="1.000000" stroke="none" 
	d="
M36.857796,228.442139 
	C37.391323,228.619766 37.978828,229.087540 38.356319,229.747009 
	C37.734795,229.536545 37.323280,229.134399 36.857796,228.442139 
z"/>
<path fill="#DEFCEC" opacity="1.000000" stroke="none" 
	d="
M158.067810,222.884598 
	C157.991028,222.352112 158.227066,221.833359 158.695602,221.145752 
	C158.745605,221.617371 158.563126,222.257858 158.067810,222.884598 
z"/>
<path fill="#DEFCEC" opacity="1.000000" stroke="none" 
	d="
M77.234116,225.826721 
	C77.007431,225.999573 76.578232,225.863831 76.368614,225.782501 
	C76.107841,225.324844 76.056694,224.948547 76.002625,224.286118 
	C76.486732,224.551300 76.973770,225.102585 77.234116,225.826721 
z"/>
<path fill="#D8FCE8" opacity="1.000000" stroke="none" 
	d="
M107.837067,187.815887 
	C107.569092,188.402283 107.126923,188.748260 106.396667,189.141327 
	C106.626686,188.650757 107.144783,188.113098 107.837067,187.815887 
z"/>
<path fill="#DEFCEC" opacity="1.000000" stroke="none" 
	d="
M429.955872,182.745209 
	C429.437988,182.856155 428.905853,182.668304 428.183350,182.265503 
	C428.642517,182.182510 429.292084,182.314468 429.955872,182.745209 
z"/>
<path fill="#D8FCE8" opacity="1.000000" stroke="none" 
	d="
M86.000504,229.482727 
	C86.423775,229.183090 86.901436,229.150223 87.723572,229.226410 
	C87.397003,229.473480 86.725952,229.611481 86.000504,229.482727 
z"/>
<path fill="#D8FCE8" opacity="1.000000" stroke="none" 
	d="
M112.828659,187.836624 
	C112.236778,188.084518 111.487083,188.065918 110.372047,187.961975 
	C110.894753,187.774460 111.782799,187.672287 112.828659,187.836624 
z"/>
<path fill="#D8FCE8" opacity="1.000000" stroke="none" 
	d="
M70.291496,214.126297 
	C70.669350,214.071198 71.047203,214.016113 71.710678,213.982330 
	C71.552689,214.341980 71.109077,214.680328 70.416016,214.798065 
	C70.166565,214.577454 70.291496,214.126297 70.291496,214.126297 
z"/>
<path fill="#5ECE8D" opacity="1.000000" stroke="none" 
	d="
M69.958740,214.103287 
	C70.291496,214.126297 70.166565,214.577454 70.121910,214.807297 
	C69.905670,215.066284 69.734085,215.095444 69.073532,215.155701 
	C68.415504,215.155060 68.246437,215.123337 68.077377,215.091599 
	C68.593582,214.754501 69.109787,214.417389 69.958740,214.103287 
z"/>
<path fill="#D8FCE8" opacity="1.000000" stroke="none" 
	d="
M91.173874,229.469376 
	C91.447884,229.199142 91.890076,229.109619 92.667381,229.086609 
	C92.449013,229.318771 91.895538,229.484436 91.173874,229.469376 
z"/>
<path fill="#DEFCEC" opacity="1.000000" stroke="none" 
	d="
M76.400803,233.834045 
	C76.155235,233.830505 76.116844,233.662979 76.027885,233.242615 
	C75.977310,232.989761 76.397797,232.805374 76.615852,232.733643 
	C76.758598,232.997971 76.683296,233.334000 76.400803,233.834045 
z"/>
<path fill="#D8FCE8" opacity="1.000000" stroke="none" 
	d="
M83.146820,228.160614 
	C83.352425,228.087769 83.632309,228.276169 84.025932,228.696564 
	C83.833481,228.759659 83.527290,228.590759 83.146820,228.160614 
z"/>
<path fill="#DEFCEC" opacity="1.000000" stroke="none" 
	d="
M173.137222,228.438477 
	C173.348312,228.180908 173.642990,228.273773 174.015167,228.726959 
	C173.806686,228.961731 173.516068,228.862289 173.137222,228.438477 
z"/>
<path fill="#DEFCEC" opacity="1.000000" stroke="none" 
	d="
M201.116333,224.829010 
	C201.050659,224.606949 201.244095,224.319565 201.695953,223.967224 
	C201.761398,224.189407 201.568420,224.476532 201.116333,224.829010 
z"/>
<path fill="#DEFCEC" opacity="1.000000" stroke="none" 
	d="
M75.926483,223.776001 
	C75.652977,223.950226 75.388016,223.775330 75.158707,223.236206 
	C75.432816,223.082947 75.679703,223.267914 75.926483,223.776001 
z"/>
<path fill="#DEFCEC" opacity="1.000000" stroke="none" 
	d="
M203.221542,222.871338 
	C203.131256,222.675201 203.285004,222.366440 203.674149,221.935349 
	C203.761566,222.128250 203.613571,222.443481 203.221542,222.871338 
z"/>
<path fill="#D8FCE8" opacity="1.000000" stroke="none" 
	d="
M68.067093,215.071899 
	C68.246437,215.123337 68.415504,215.155060 68.833015,215.257217 
	C69.081467,215.327667 69.066383,215.670349 69.047821,215.840942 
	C68.815079,215.991898 68.600899,215.972229 68.162689,215.715134 
	C67.938675,215.477722 68.083397,215.063766 68.083397,215.063766 
	C68.083397,215.063766 68.056816,215.052216 68.067093,215.071899 
z"/>
<path fill="#D8FCE8" opacity="1.000000" stroke="none" 
	d="
M73.941177,212.219376 
	C73.997643,211.990021 74.497498,211.992401 74.747368,211.996429 
	C74.778320,212.269897 74.559410,212.539322 74.078476,212.862457 
	C73.816452,212.916153 73.884705,212.448730 73.941177,212.219376 
z"/>
<path fill="#D8FCE8" opacity="1.000000" stroke="none" 
	d="
M75.234055,211.903214 
	C75.170158,211.712082 75.339355,211.426895 75.749908,211.059067 
	C75.816566,211.253998 75.641861,211.531586 75.234055,211.903214 
z"/>
<path fill="#D8FCE8" opacity="1.000000" stroke="none" 
	d="
M117.326309,203.865570 
	C117.208672,203.682983 117.314766,203.358856 117.637741,202.887177 
	C117.753090,203.067749 117.651558,203.395874 117.326309,203.865570 
z"/>
<path fill="#D8FCE8" opacity="1.000000" stroke="none" 
	d="
M98.881004,188.797974 
	C98.677841,188.880325 98.380157,188.720184 97.989784,188.317734 
	C98.193558,188.235443 98.490028,188.395447 98.881004,188.797974 
z"/>
<path fill="#D8FCE8" opacity="1.000000" stroke="none" 
	d="
M79.472534,187.874420 
	C79.277702,187.839005 79.197655,187.679306 79.125328,187.251801 
	C79.284477,187.239395 79.435898,187.494781 79.472534,187.874420 
z"/>
<path fill="#D8FCE8" opacity="1.000000" stroke="none" 
	d="
M78.859604,185.921997 
	C78.907364,186.186951 78.456665,186.085190 78.231079,186.035370 
	C78.005501,185.985535 77.985374,185.493774 77.990494,185.247742 
	C78.267693,185.220154 78.539772,185.438599 78.859604,185.921997 
z"/>
<path fill="#D8FCE8" opacity="1.000000" stroke="none" 
	d="
M70.750595,185.072601 
	C70.975723,184.990021 71.008682,185.452484 70.763947,185.715317 
	C70.519211,185.978149 70.067719,186.067276 70.067719,186.067276 
	C70.067719,186.067276 69.959679,185.951691 69.906189,185.891296 
	C70.029678,185.558594 70.253929,185.333359 70.750595,185.072601 
z"/>
<path fill="#D8FCE8" opacity="1.000000" stroke="none" 
	d="
M77.326057,184.975372 
	C77.102608,184.955399 77.041206,184.471680 77.037903,184.227875 
	C77.376640,184.058624 77.642578,184.242966 77.915268,184.770813 
	C77.998108,185.004532 77.549507,184.995346 77.326057,184.975372 
z"/>
<path fill="#D8FCE8" opacity="1.000000" stroke="none" 
	d="
M76.915108,183.736969 
	C76.730576,183.805130 76.444901,183.642853 76.061035,183.247223 
	C76.246559,183.178085 76.530266,183.342316 76.915108,183.736969 
z"/>
<path fill="#E6FDF0" opacity="1.000000" stroke="none" 
	d="
M409.114563,206.367889 
	C409.767883,202.943085 410.237427,199.847794 411.216400,196.923035 
	C411.510559,196.044312 413.223450,195.640457 414.286377,195.019058 
	C414.860168,196.048767 415.979126,197.119415 415.905426,198.100479 
	C415.684601,201.040298 415.341461,204.061249 414.404938,206.833984 
	C413.253601,210.242722 411.502197,210.120621 409.114563,206.367889 
z"/>
<path fill="#DEFCEC" opacity="1.000000" stroke="none" 
	d="
M402.864624,237.221909 
	C401.179688,236.276428 399.895844,235.396744 398.611969,234.517044 
	C398.803589,234.171188 398.995239,233.825317 399.186859,233.479462 
	C404.256378,233.479462 409.325867,233.479462 415.588837,233.479462 
	C411.622772,238.238831 407.471893,237.856445 402.864624,237.221909 
z"/>
<path fill="#E6FDF0" opacity="1.000000" stroke="none" 
	d="
M289.771362,207.579285 
	C288.356934,212.812744 287.925415,218.143158 281.274261,221.936325 
	C281.506683,217.993591 281.400726,215.214111 281.896942,212.546677 
	C282.499512,209.307770 283.390503,206.075943 284.607361,203.020523 
	C285.103363,201.775131 286.783142,201.001190 287.924347,200.012756 
	C288.572174,201.399216 289.368591,202.740051 289.813629,204.188812 
	C290.092102,205.095428 289.841492,206.164551 289.771362,207.579285 
z"/>
<path fill="#E6FDF0" opacity="1.000000" stroke="none" 
	d="
M56.580276,198.781052 
	C58.025963,197.323761 59.301453,196.229538 60.576942,195.135315 
	C61.071423,196.729782 61.999889,198.335144 61.960144,199.916183 
	C61.898300,202.376343 61.465755,204.927032 60.610180,207.223190 
	C60.211853,208.292206 58.451832,208.853821 57.309044,209.645432 
	C56.638180,208.599823 55.401779,207.549927 55.409645,206.509445 
	C55.428223,204.051956 56.038876,201.598938 56.580276,198.781052 
z"/>
<path fill="#D8FCE8" opacity="1.000000" stroke="none" 
	d="
M45.647686,233.344696 
	C50.838181,233.480347 55.687813,233.835739 61.581596,234.267654 
	C58.173931,238.244019 54.280895,238.194199 50.568687,237.817291 
	C48.199867,237.576797 44.934315,237.577209 45.647686,233.344696 
z"/>
<path fill="#5ECE8D" opacity="1.000000" stroke="none" 
	d="
M67.699051,215.037170 
	C68.083397,215.063766 67.938675,215.477722 67.842606,215.674774 
	C66.768074,215.989960 65.789612,216.108109 64.439941,216.247406 
	C65.150726,215.849228 66.232719,215.429901 67.699051,215.037170 
z"/>
<path fill="#5ECE8D" opacity="1.000000" stroke="none" 
	d="
M70.030952,186.298218 
	C70.067719,186.067276 70.519211,185.978149 70.747131,185.946533 
	C70.798485,186.200775 70.621925,186.486664 70.214432,186.884674 
	C69.983498,186.996780 69.994186,186.529175 70.030952,186.298218 
z"/>
<path fill="#DEFCEC" opacity="1.000000" stroke="none" 
	d="
M140.062134,201.254669 
	C141.524200,198.947739 142.868820,196.999069 144.444733,194.715240 
	C147.287491,200.234039 145.282410,204.841385 139.184937,206.828476 
	C139.475235,204.835678 139.709961,203.224304 140.062134,201.254669 
z"/>
<path fill="#FEFFFF" opacity="1.000000" stroke="none" 
	d="
M141.360596,218.809143 
	C142.220978,215.880890 142.220978,215.880890 145.913574,217.025803 
	C144.910599,217.614868 144.153687,218.059418 143.189087,218.769684 
	C142.541092,219.008133 142.100784,218.980835 141.360596,218.809143 
z"/>
<path fill="#DEFCEC" opacity="1.000000" stroke="none" 
	d="
M184.989090,205.318237 
	C184.911697,200.546799 186.777710,197.283035 190.583786,194.805756 
	C192.836899,200.529755 189.778488,206.056458 184.989090,205.318237 
z"/>
<path fill="#4BD381" opacity="1.000000" stroke="none" 
	d="
M368.124084,195.025558 
	C369.306396,194.545914 370.374756,194.286880 370.858337,193.610031 
	C373.765320,189.541473 376.153595,188.861496 379.761780,191.282898 
	C384.375183,194.378876 385.516388,197.884583 382.717407,201.661804 
	C380.343262,204.865784 379.562958,207.990280 380.971039,211.838501 
	C381.449921,213.147293 380.976227,214.933594 380.577576,216.404037 
	C379.992676,218.561157 378.371796,220.660202 378.458252,222.731140 
	C378.650543,227.336884 376.021759,228.103317 372.615845,227.675751 
	C367.937958,227.088501 365.580994,224.069748 366.238251,220.592438 
	C367.273224,215.116898 368.345764,209.623169 368.854004,204.086792 
	C369.036652,202.096863 367.484314,199.993637 367.027740,197.876556 
	C366.844330,197.026169 367.478119,195.999527 368.124084,195.025558 
z"/>
<path fill="#A3FCC1" opacity="1.000000" stroke="none" 
	d="
M326.876831,175.387451 
	C330.023712,174.715759 332.372253,175.164780 331.937561,179.424438 
	C326.837036,181.405273 326.050598,180.784225 326.876831,175.387451 
z"/>
<path fill="#FEFFFF" opacity="1.000000" stroke="none" 
	d="
M195.522369,215.398987 
	C195.578079,214.937195 195.808197,214.655869 196.038300,214.374542 
	C196.216507,214.559906 196.394714,214.745270 196.572922,214.930634 
	C196.280869,215.146912 195.988831,215.363190 195.522369,215.398987 
z"/>
</svg>