<svg version="1.1" id="Layer_1" xmlns="http://www.w3.org/2000/svg" xmlns:xlink="http://www.w3.org/1999/xlink" x="0px" y="0px"
	 width="100%" viewBox="0 0 452 444" enable-background="new 0 0 452 444" xml:space="preserve">
<path fill="#FFFFFF" opacity="1.000000" stroke="none" 
	d="
M451.273560,444.582123 
	C302.548157,445.000000 154.096268,444.987366 5.644473,445.077332 
	C2.158048,445.079437 0.882340,444.716705 0.886152,440.647247 
	C1.022086,295.527771 1.014758,150.408112 0.911832,5.288591 
	C0.909352,1.792008 1.493765,0.891602 5.208803,0.894698 
	C153.493896,1.018302 301.779114,1.000000 450.532166,1.000000 
	C452.377686,2.747687 451.978271,4.819477 451.978546,6.782640 
	C451.997253,150.927856 451.996460,295.073059 451.985474,439.218292 
	C451.985321,440.874207 452.176636,442.559021 451.273560,444.582123 
z"/>
<path fill="#F5F5F5" opacity="1.000000" stroke="none" 
	d="
M451.500000,445.000000 
	C451.000000,297.309265 451.000000,149.618515 451.000000,1.463884 
	C451.627411,1.411838 453.121552,0.026279 453.011841,2.000658 
	C452.947205,3.163733 453.000000,4.333333 453.000000,5.500000 
	C453.000000,150.500000 453.004364,295.500000 452.938049,440.499969 
	C452.937378,441.963501 454.091492,443.890686 451.500000,445.000000 
z"/>
<path fill="#020202" opacity="1.000000" stroke="none" 
	d="
M53.295616,204.999847 
	C53.294563,189.175583 53.279556,173.851334 53.299065,158.527115 
	C53.307293,152.067215 54.385761,151.008331 60.805862,150.999817 
	C69.300812,150.988571 77.795807,150.985718 86.290741,151.000824 
	C92.539673,151.011932 93.287521,151.737381 93.300240,157.811340 
	C93.319420,166.972519 93.413918,176.135544 93.254463,185.293930 
	C93.205887,188.083771 93.921158,189.082581 96.842796,188.986496 
	C103.165428,188.778564 109.506195,188.760178 115.826591,189.002350 
	C118.864914,189.118759 119.373344,187.915802 119.336426,185.257187 
	C119.209251,176.098450 119.264229,166.936615 119.311111,157.776260 
	C119.340111,152.108917 120.433304,151.018219 125.975235,151.002869 
	C135.136398,150.977493 144.298843,151.082016 153.458389,150.957916 
	C157.462006,150.903687 159.306091,152.625961 159.305145,156.578568 
	C159.297073,190.225143 159.306259,223.871735 159.312027,257.518311 
	C159.312653,261.154938 157.685684,263.049286 153.866058,263.022797 
	C144.205597,262.955750 134.544205,262.967255 124.883560,263.017578 
	C120.841888,263.038605 119.235268,261.011047 119.259682,257.131378 
	C119.321541,247.304245 119.185822,237.474915 119.347504,227.650040 
	C119.393707,224.842606 118.641174,223.908279 115.749832,224.006760 
	C109.427559,224.222076 103.087135,224.236008 96.765907,224.007034 
	C93.729660,223.897049 93.219307,225.111542 93.254860,227.776367 
	C93.383713,237.435562 93.207611,247.098877 93.342567,256.757904 
	C93.403793,261.140137 91.795479,263.157043 87.190216,263.059845 
	C78.033058,262.866486 68.865860,262.860962 59.708973,263.060577 
	C54.905602,263.165283 53.213474,261.065643 53.243946,256.469482 
	C53.356579,239.480255 53.292976,222.489822 53.295616,204.999847 
z"/>
<path fill="#030303" opacity="1.000000" stroke="none" 
	d="
M302.502777,250.503525 
	C295.566681,244.026596 292.403900,236.253372 291.914612,227.215515 
	C291.703705,223.320633 293.319763,221.822800 297.170898,221.874939 
	C306.833099,222.005753 316.501892,222.075470 326.160431,221.847992 
	C330.185852,221.753189 332.639130,223.186798 334.459808,226.739639 
	C337.590759,232.849442 340.694794,234.398270 346.387756,233.031982 
	C351.825897,231.726822 353.031921,227.373856 353.100403,222.656433 
	C353.274475,210.663147 353.121826,198.664581 353.353668,186.673035 
	C353.419952,183.244568 351.549072,183.494461 349.284088,183.500290 
	C335.621307,183.535431 321.958405,183.540207 308.295654,183.506790 
	C302.532318,183.492691 301.526520,182.495331 301.497009,176.884232 
	C301.462006,170.220215 301.592072,163.554108 301.471252,156.892181 
	C301.393799,152.622665 303.323608,150.949463 307.511719,150.959930 
	C334.670593,151.027847 361.829773,151.026459 388.988678,150.961807 
	C393.325073,150.951492 394.868866,153.002274 394.857330,157.110123 
	C394.795563,179.103394 395.106598,201.101532 394.741913,223.088913 
	C394.467041,239.662720 387.067444,252.618408 371.405731,258.868225 
	C347.317902,268.480499 323.985535,267.403503 302.502777,250.503525 
z"/>
<path fill="#020202" opacity="1.000000" stroke="none" 
	d="
M207.692993,243.005539 
	C210.546097,226.230621 200.625748,214.007217 194.242691,200.735733 
	C187.260681,186.218887 179.761108,171.951523 172.551407,157.543259 
	C170.308411,153.060715 171.561493,151.045349 176.548538,151.014175 
	C185.714432,150.956879 194.881516,151.059860 204.046967,150.974167 
	C208.003479,150.937210 210.509308,152.547211 212.250778,156.183273 
	C217.126266,166.362930 222.264542,176.416733 227.559509,187.042770 
	C232.744217,176.724197 237.880981,166.914764 242.604218,156.910126 
	C244.675766,152.522217 247.567963,150.778030 252.355957,150.925140 
	C260.681091,151.180969 269.019775,150.986832 277.352722,150.999908 
	C284.168610,151.010590 285.252747,152.654648 282.261902,158.592834 
	C271.353607,180.250595 260.440460,201.906067 249.451981,223.523163 
	C248.201279,225.983612 247.638763,228.425262 247.670105,231.167847 
	C247.765289,239.499710 247.724945,247.833435 247.693802,256.166290 
	C247.672653,261.828827 246.550537,262.982300 241.083923,262.996460 
	C232.084366,263.019775 223.081100,262.850739 214.086517,263.063660 
	C209.278183,263.177521 207.451645,261.142242 207.652023,256.501312 
	C207.838760,252.176193 207.692612,247.836700 207.692993,243.005539 
z"/>
</svg>