<svg version="1.1" id="Layer_1" xmlns="http://www.w3.org/2000/svg" xmlns:xlink="http://www.w3.org/1999/xlink" x="0px" y="0px"
	 width="100%" viewBox="0 0 444 450" enable-background="new 0 0 444 450" xml:space="preserve">
<path fill="#FFFFFD" opacity="1.000000" stroke="none" 
	d="
M1.165956,450.167358 
	C1.000000,301.880554 1.012700,153.761078 0.922408,5.641685 
	C0.920280,2.151127 1.291812,0.882639 5.355600,0.886435 
	C150.475891,1.021998 295.596313,1.015008 440.716675,0.910652 
	C444.227631,0.908127 445.107269,1.513586 445.104218,5.214101 
	C444.981903,153.166733 445.000000,301.119507 445.000000,449.536133 
	C444.779205,450.223602 444.557465,450.446289 444.167358,450.834045 
	C296.975922,451.000000 149.951843,451.000000 2.463884,451.000000 
	C1.776338,450.779205 1.553642,450.557465 1.165956,450.167358 
z"/>
<path fill="#F4F4F4" opacity="1.000000" stroke="none" 
	d="
M1.000000,450.500000 
	C1.327429,450.094543 1.589859,450.280731 1.893646,450.779236 
	C1.666667,451.000000 1.333333,451.000000 1.000000,450.500000 
z"/>
<path fill="#F4F4F4" opacity="1.000000" stroke="none" 
	d="
M444.500000,451.000000 
	C444.097748,450.674713 444.283569,450.411591 444.778717,450.105316 
	C445.000000,450.333344 445.000000,450.666656 444.500000,451.000000 
z"/>
<path fill="#F8C506" opacity="1.000000" stroke="none" 
	d="
M282.346375,19.968258 
	C297.460785,18.803101 307.854126,26.425146 316.683807,36.828354 
	C329.938202,52.444778 338.033752,70.889175 344.804565,89.943985 
	C356.844452,123.827332 363.487946,158.934860 367.945099,194.507248 
	C371.821167,225.442261 373.475922,256.516388 373.854248,287.680878 
	C373.905731,291.921722 372.647797,293.071960 368.532654,292.956207 
	C358.708435,292.679901 348.869202,292.747131 339.040466,292.923615 
	C335.513794,292.986969 334.381775,291.670654 334.405243,288.258820 
	C334.580414,262.762238 333.662598,237.294662 331.980377,211.856445 
	C329.253326,170.618286 324.919312,129.586105 314.895050,89.379951 
	C311.713928,76.620918 307.836151,64.019402 301.215240,52.494827 
	C300.141449,50.625717 298.955261,48.794056 297.613678,47.110310 
	C289.536926,36.973610 280.922058,37.116909 273.261963,47.726032 
	C265.544037,58.415241 261.355042,70.723579 257.807617,83.253441 
	C248.149231,117.367683 243.822342,152.346497 240.853851,187.560089 
	C238.571503,214.634171 237.572845,241.750854 237.568497,268.908508 
	C237.567978,272.202179 236.413528,273.218079 233.190643,273.168121 
	C222.861267,273.007965 212.527100,273.033051 202.196594,273.149078 
	C199.220596,273.182526 198.142700,272.235596 198.135132,269.136261 
	C198.070084,242.478043 197.230499,215.835632 194.948990,189.274216 
	C191.598358,150.265869 187.104492,111.419838 174.894638,73.948044 
	C171.846115,64.592216 168.222885,55.427368 162.174286,47.512573 
	C154.152283,37.015465 145.811218,36.948444 137.811279,47.382580 
	C130.269135,57.219612 126.540512,68.884651 123.158546,80.531464 
	C114.825264,109.229599 110.417603,138.711578 107.266449,168.341492 
	C103.089783,207.614029 101.170097,247.038956 101.005058,286.540680 
	C100.978668,292.858490 100.976303,292.859314 94.460754,292.860382 
	C85.128746,292.861877 75.794540,292.746521 66.465912,292.924347 
	C63.118511,292.988159 61.736382,292.127655 61.774662,288.492920 
	C62.069553,260.492035 63.400368,232.559143 66.472000,204.714005 
	C69.248283,179.546249 73.106499,154.556778 79.081245,129.943771 
	C86.090637,101.068565 94.846947,72.812775 110.972206,47.463074 
	C115.994461,39.567822 121.813225,32.241135 129.634674,26.867872 
	C144.599564,16.587137 160.301956,17.660646 174.005615,29.567244 
	C188.623734,42.268372 197.324570,58.870686 204.946014,76.177567 
	C208.907974,85.174454 212.078491,94.477058 214.972794,103.872261 
	C215.692490,106.208435 216.582993,108.491997 217.773483,111.875496 
	C221.121857,102.283173 223.922485,93.688423 227.112732,85.240814 
	C233.551620,68.190994 241.364807,51.839909 253.316406,37.849407 
	C260.928772,28.938404 269.785828,21.816051 282.346375,19.968258 
z"/>
<path fill="#251C1A" opacity="1.000000" stroke="none" 
	d="
M80.175255,406.877747 
	C80.047241,408.424591 80.603973,409.861633 78.759140,409.975403 
	C78.094994,410.016357 77.427010,409.990143 76.761246,410.010406 
	C66.821472,410.313263 66.822479,410.313904 66.823692,400.397217 
	C66.825081,389.069275 66.905266,377.740326 66.766464,366.414062 
	C66.732872,363.672913 67.398705,362.441040 70.312744,362.784760 
	C72.120567,362.997955 73.975471,362.894653 75.804855,362.822418 
	C78.314842,362.723328 80.884766,362.417084 80.527168,366.400970 
	C88.678604,360.850006 96.514214,359.466248 104.336472,365.682770 
	C106.100922,367.084961 106.988083,366.081635 108.132874,365.209351 
	C112.388649,361.966644 117.263374,361.418030 122.356911,361.987488 
	C128.767197,362.704193 132.918579,366.446533 133.168274,372.923279 
	C133.610641,384.397491 133.420303,395.895477 133.556290,407.382782 
	C133.578308,409.243225 133.052444,410.271423 131.023087,410.011322 
	C130.859238,409.990326 130.689774,410.000610 130.523773,410.010468 
	C119.990944,410.636078 120.005150,410.636169 119.987434,400.011353 
	C119.976608,393.515961 119.960464,387.019867 119.858131,380.525513 
	C119.792480,376.359253 118.120125,373.345367 113.486977,373.216827 
	C109.493500,373.106018 107.071182,376.052246 107.028961,381.022125 
	C106.956772,389.517487 106.888519,398.016479 107.074661,406.508362 
	C107.137276,409.364868 106.263756,410.060486 103.473366,410.082672 
	C93.155235,410.164825 93.156013,410.276947 93.155502,400.209259 
	C93.155174,393.712372 93.101486,387.214874 93.174126,380.718811 
	C93.222038,376.434235 91.592972,373.424438 87.042213,373.253510 
	C82.367691,373.077972 80.500305,376.504852 80.354141,380.408813 
	C80.030266,389.058838 80.204865,397.727539 80.175255,406.877747 
z"/>
<path fill="#251D1A" opacity="1.000000" stroke="none" 
	d="
M172.021393,392.777771 
	C171.144974,387.718353 171.233551,383.070129 172.380310,378.510895 
	C175.330719,366.780914 185.123627,360.485687 198.668121,361.476593 
	C211.170914,362.391296 219.819702,370.856445 220.743744,383.604797 
	C221.471527,393.645844 218.977264,402.754791 209.551102,407.920746 
	C199.942245,413.186829 190.025909,412.596100 180.718857,406.687012 
	C175.843765,403.591827 173.380035,398.698853 172.021393,392.777771 
z"/>
<path fill="#251C1A" opacity="1.000000" stroke="none" 
	d="
M288.993805,391.999084 
	C288.993164,383.179260 289.157562,374.854156 288.908478,366.541473 
	C288.812592,363.341461 289.844452,362.493805 292.830261,362.774353 
	C295.469574,363.022369 299.194244,361.715027 300.613922,363.044342 
	C304.621857,366.797119 307.312836,363.033661 310.422272,362.284943 
	C322.427338,359.394287 329.962494,365.161072 330.002319,377.525452 
	C330.033417,387.176697 329.905518,396.829926 330.071960,406.478424 
	C330.120270,409.279510 329.346680,410.061676 326.510406,410.085754 
	C316.153992,410.173615 316.154694,410.291504 316.158051,399.764374 
	C316.160187,393.108429 316.157562,386.452454 316.168030,379.796509 
	C316.174652,375.582947 314.110840,373.220825 309.888214,373.036957 
	C305.610992,372.850708 303.230347,375.255188 303.106110,379.309784 
	C302.836182,388.120453 302.718872,396.946533 302.938751,405.756348 
	C303.028534,409.353241 301.880798,410.152161 298.478149,410.098663 
	C288.995026,409.949463 288.992615,410.104980 288.993408,400.486053 
	C288.993652,397.823608 288.993683,395.161194 288.993805,391.999084 
z"/>
<path fill="#261D1B" opacity="1.000000" stroke="none" 
	d="
M258.156982,383.301086 
	C255.683426,391.283966 253.250092,398.861877 250.969666,406.485535 
	C250.223984,408.978394 249.255234,410.144989 246.234116,410.119476 
	C235.441742,410.028320 235.425537,410.204437 232.242218,400.082764 
	C228.711029,388.854980 225.342941,377.573273 221.611771,366.412689 
	C220.558853,363.263184 221.347641,362.834503 224.264114,362.765320 
	C234.867477,362.513580 234.857285,362.428345 237.315109,372.646912 
	C238.943832,379.418488 240.595383,386.184601 242.265213,392.946106 
	C242.316299,393.152954 242.685135,393.281311 243.475693,393.872192 
	C245.432938,385.144043 247.521744,376.728638 249.138931,368.223602 
	C249.903809,364.201080 251.265518,362.472565 255.778015,362.693420 
	C264.545105,363.122528 264.574982,362.809906 262.026154,371.066406 
	C260.803772,375.026093 259.515228,378.965363 258.156982,383.301086 
z"/>
<path fill="#29201E" opacity="1.000000" stroke="none" 
	d="
M407.550018,385.984985 
	C407.550476,388.141541 407.649445,389.810699 407.534576,391.465057 
	C407.203094,396.237274 407.854767,400.031403 414.151276,398.616547 
	C415.492126,398.315277 415.962677,398.932373 416.003326,400.138855 
	C416.014526,400.471008 416.120850,400.848755 416.002289,401.128876 
	C414.798431,403.973297 418.733246,409.040009 413.605072,409.791992 
	C404.772278,411.087158 397.192474,410.789948 394.795074,403.200378 
	C393.253326,398.319702 394.215851,393.294250 394.006531,388.337799 
	C393.880371,385.350800 393.907318,382.351685 394.003510,379.362488 
	C394.107117,376.144897 394.552643,372.845917 389.486877,373.820679 
	C387.971222,374.112366 387.481628,372.976715 387.468323,371.662048 
	C387.446472,369.501526 387.516296,367.338959 387.448212,365.180389 
	C387.396545,363.542450 387.975342,362.515350 389.714539,362.840302 
	C393.952667,363.632172 394.490326,361.179688 393.956726,357.991638 
	C393.165131,353.262054 394.831970,351.206696 399.735596,352.114471 
	C400.860901,352.322815 402.079926,352.294891 403.216797,352.120819 
	C406.791199,351.573700 408.126038,353.127502 407.544800,356.544464 
	C406.711182,361.445343 408.185883,364.053619 413.664398,363.001373 
	C416.265228,362.501740 416.960480,364.074768 416.486969,366.208344 
	C415.925018,368.740356 418.257080,371.925018 414.971497,373.804077 
	C412.706573,375.099365 408.654663,371.458801 407.672028,376.037811 
	C407.092041,378.740387 407.557312,381.667328 407.552551,384.493347 
	C407.552002,384.825836 407.551453,385.158356 407.550018,385.984985 
z"/>
<path fill="#271E1C" opacity="1.000000" stroke="none" 
	d="
M159.029938,410.012909 
	C153.559769,410.881012 151.884445,409.181427 152.004166,403.793732 
	C152.396088,386.157501 152.243347,368.506287 152.071808,350.863007 
	C152.038147,347.398865 152.945190,346.331116 156.479935,346.372742 
	C166.010132,346.485077 166.012161,346.316589 166.012222,356.047882 
	C166.012314,371.861725 166.012283,387.675598 166.012451,403.489441 
	C166.012527,410.013184 166.012665,410.013184 159.029938,410.012909 
z"/>
<path fill="#29201E" opacity="1.000000" stroke="none" 
	d="
M27.984262,380.001465 
	C27.984240,374.848236 28.093969,370.190765 27.936470,365.542389 
	C27.861179,363.320312 28.656408,362.860809 30.761520,362.745392 
	C41.596275,362.151428 41.588173,362.080536 41.574478,372.627502 
	C41.560234,383.596832 41.364956,394.571075 41.648567,405.532837 
	C41.748993,409.414307 40.523983,410.200043 36.899967,410.108398 
	C27.986769,409.883057 27.982334,410.070099 27.983356,400.944305 
	C27.984119,394.129883 27.983994,387.315430 27.984262,380.001465 
z"/>
<path fill="#29201E" opacity="1.000000" stroke="none" 
	d="
M283.560760,373.067383 
	C283.560333,384.528107 283.470062,395.501770 283.620575,406.472137 
	C283.659698,409.322693 282.777985,410.060760 279.970276,410.091827 
	C269.980865,410.202301 269.982300,410.318207 269.982574,400.515656 
	C269.982880,389.210724 270.100861,377.903717 269.905151,366.602173 
	C269.852234,363.547974 270.591461,362.709351 273.713470,362.721771 
	C283.527405,362.760864 283.528015,362.607574 283.560760,373.067383 
z"/>
<path fill="#2A211F" opacity="1.000000" stroke="none" 
	d="
M381.854248,392.998077 
	C381.854401,397.986389 381.734344,402.479584 381.902924,406.961975 
	C381.993683,409.375458 381.151367,409.977478 378.797119,410.083160 
	C368.140747,410.561523 368.145203,410.645325 368.144714,400.089142 
	C368.144226,388.950623 368.250061,377.810394 368.070312,366.674744 
	C368.021088,363.624573 368.850769,362.744324 371.945099,362.730103 
	C381.860779,362.684601 381.858917,362.545258 381.855133,372.548706 
	C381.852661,379.198639 381.854370,385.848541 381.854248,392.998077 
z"/>
<path fill="#302826" opacity="1.000000" stroke="none" 
	d="
M339.285339,346.415710 
	C349.588806,346.427979 349.465607,346.430023 349.627930,356.270050 
	C349.742828,363.235352 348.776367,369.613464 342.158539,373.520721 
	C340.079407,374.748260 337.000244,376.596741 335.477783,374.339203 
	C334.187958,372.426575 334.249084,368.932861 337.984070,367.502014 
	C339.660645,366.859772 340.332520,364.786255 340.822083,363.000397 
	C341.335052,361.129059 341.179413,359.644409 338.608917,360.046661 
	C335.710571,360.500275 334.800201,359.204559 335.082123,356.421387 
	C335.298462,354.285736 335.296722,352.093018 335.081268,349.957031 
	C334.780792,346.977936 336.144531,346.075806 339.285339,346.415710 
z"/>
<path fill="#271F1D" opacity="1.000000" stroke="none" 
	d="
M61.182838,358.632568 
	C60.891979,367.122009 57.702858,372.352448 51.716030,374.447601 
	C50.239456,374.964325 47.999851,376.157928 47.346672,374.422699 
	C46.668453,372.621033 45.716881,369.799744 48.483196,368.321838 
	C50.374992,367.311127 51.451031,365.814850 52.174953,363.861694 
	C53.101357,361.362274 53.164612,359.557892 49.692005,360.031677 
	C47.432953,360.339874 46.707790,359.349030 46.974915,357.220581 
	C47.098061,356.239349 46.999813,355.230164 46.999489,354.233643 
	C46.996933,346.435913 47.013889,346.757935 54.793137,346.343842 
	C59.857239,346.074310 62.126659,347.394196 61.231945,352.721130 
	C60.933449,354.498322 61.183651,356.367645 61.182838,358.632568 
z"/>
<path fill="#2D2422" opacity="1.000000" stroke="none" 
	d="
M27.970814,351.007874 
	C27.416409,347.210510 28.551476,345.552124 32.178669,346.096741 
	C33.478245,346.291901 34.860100,346.308594 36.154751,346.099457 
	C40.457996,345.404175 41.713493,346.922119 41.764126,351.416229 
	C41.818577,356.249390 40.548378,357.599670 35.734367,357.323425 
	C27.994898,356.879364 27.975990,357.208893 27.970814,351.007874 
z"/>
<path fill="#2D2523" opacity="1.000000" stroke="none" 
	d="
M270.511536,346.520874 
	C273.190033,346.189575 275.537933,346.366852 277.829651,346.085876 
	C282.167267,345.553955 283.853607,346.793274 283.755280,351.621918 
	C283.664429,356.082275 282.658112,358.004242 278.042511,357.243011 
	C276.588104,357.003113 275.046753,357.070862 273.570496,357.231079 
	C270.900574,357.520905 269.555603,356.772858 269.925781,353.772461 
	C270.208496,351.481232 270.093597,349.140991 270.511536,346.520874 
z"/>
<path fill="#2E2624" opacity="1.000000" stroke="none" 
	d="
M368.830109,356.940063 
	C368.334778,356.445709 368.177399,356.132812 368.161957,355.813049 
	C367.695007,346.149200 370.433197,343.945099 379.979370,346.100891 
	C381.441589,346.431122 381.887665,347.092865 381.869202,348.425690 
	C381.841766,350.406586 381.741821,352.398224 381.901642,354.366730 
	C382.075684,356.510254 381.311951,357.336395 379.135712,357.237183 
	C375.840271,357.087006 372.535187,357.147369 368.830109,356.940063 
z"/>
<path fill="#ECD167" opacity="1.000000" stroke="none" 
	d="
M400.834381,275.808594 
	C401.108795,276.261200 401.255951,276.545074 401.659607,276.939087 
	C402.930939,277.868591 403.391266,278.965881 403.370850,280.623444 
	C403.249756,281.173706 403.212402,281.363373 403.114563,281.836670 
	C401.570557,282.601196 400.138916,282.350922 398.410370,281.633911 
	C397.749298,281.111572 397.495056,280.713074 397.287476,279.903931 
	C396.408081,275.284790 393.499207,276.097778 390.346985,277.033447 
	C389.898712,277.353302 389.721161,277.483856 389.285950,277.821198 
	C386.875580,280.300110 385.888519,282.760712 388.034668,285.887939 
	C388.958527,286.568268 389.715820,286.905243 390.707031,287.448914 
	C391.075989,287.786774 391.192688,287.951508 391.376740,288.401245 
	C392.347290,290.178223 393.259766,290.144745 394.095917,288.412079 
	C393.763428,287.523773 393.555542,286.915009 393.523315,285.926025 
	C393.860626,284.891205 394.398895,284.499420 395.464294,284.321655 
	C397.125244,284.631165 397.684235,285.376526 397.317535,286.641724 
	C398.901276,285.356934 399.970032,283.139923 402.734924,282.771393 
	C403.111847,283.037964 403.158569,283.226868 403.271790,283.700012 
	C403.349823,284.159241 403.361420,284.334229 403.321716,284.767181 
	C401.173676,290.759674 397.569641,293.395599 392.255463,293.081299 
	C387.812622,292.818573 384.039459,289.623566 383.076660,285.308990 
	C382.023407,280.589081 383.859558,275.959045 388.048645,273.929260 
	C391.818024,272.102875 395.712921,272.087524 399.657990,274.836273 
	C400.200531,275.237091 400.413666,275.463257 400.834381,275.808594 
z"/>
<path fill="#44403F" opacity="1.000000" stroke="none" 
	d="
M438.951172,361.704987 
	C435.152191,366.378845 430.147034,367.373322 425.904755,364.641937 
	C421.768433,361.978790 420.122803,356.371460 422.156311,351.869507 
	C424.205109,347.333740 428.991852,345.428406 435.209381,346.900909 
	C434.404480,350.385620 430.693420,348.570190 428.346741,350.450134 
	C424.515259,354.126953 424.296570,356.276917 427.253967,360.937866 
	C429.693298,363.399628 432.125641,362.932220 434.907043,361.629822 
	C435.777679,361.125000 436.387970,360.848541 437.384399,360.658203 
	C438.171478,360.774902 438.538818,361.028229 438.951172,361.704987 
z"/>
<path fill="#322F2D" opacity="1.000000" stroke="none" 
	d="
M439.365112,361.798737 
	C438.762054,361.798981 438.460571,361.570496 438.034912,361.081482 
	C436.615417,357.869171 438.707031,354.271851 435.954834,351.219666 
	C435.287231,349.884521 435.055695,348.866821 435.568512,347.396729 
	C441.457550,351.506622 442.424866,355.038635 439.365112,361.798737 
z"/>
<path fill="#FFFDD8" opacity="1.000000" stroke="none" 
	d="
M403.066406,282.666809 
	C401.763977,284.055481 400.367798,285.176025 399.182617,286.487274 
	C397.110260,288.780151 397.142639,286.235626 396.177612,285.197876 
	C394.846466,283.182220 395.930817,281.990112 397.531616,280.670288 
	C399.466644,280.628540 401.003876,280.869080 402.695435,281.962158 
	C403.054138,282.120270 403.067657,282.484558 403.066406,282.666809 
z"/>
<path fill="#E8E4E4" opacity="1.000000" stroke="none" 
	d="
M435.664917,346.998535 
	C433.643860,348.662231 435.968567,349.160126 436.757568,350.564453 
	C436.868805,351.470367 436.615662,351.868103 435.882050,352.276062 
	C433.098572,351.473969 430.521027,351.246796 427.452576,350.353302 
	C429.256104,346.484283 432.915802,349.228912 435.677979,347.494598 
	C435.623932,346.962952 435.651550,346.990143 435.664917,346.998535 
z"/>
<path fill="#FFFDD8" opacity="1.000000" stroke="none" 
	d="
M403.494324,280.719452 
	C402.846466,279.911499 402.405792,278.838928 401.909790,277.423767 
	C404.350769,277.176117 404.116241,278.766144 403.494324,280.719452 
z"/>
<path fill="#FFFDD8" opacity="1.000000" stroke="none" 
	d="
M403.398285,284.923096 
	C403.246918,284.849457 403.223480,284.673737 403.269104,284.241150 
	C403.647736,284.220215 403.710388,284.499146 403.398285,284.923096 
z"/>
<path fill="#FFFDD8" opacity="1.000000" stroke="none" 
	d="
M400.918732,275.725403 
	C400.676758,275.897705 400.400177,275.732727 400.099854,275.221863 
	C400.341492,275.059845 400.610840,275.230591 400.918732,275.725403 
z"/>
<path fill="#FBFAF9" opacity="1.000000" stroke="none" 
	d="
M186.092758,380.464600 
	C189.127533,373.952240 192.562943,371.850342 198.143860,372.757843 
	C202.658936,373.492035 205.824677,377.210144 206.756653,383.025085 
	C207.316147,386.516083 207.134720,390.002014 205.815491,393.306061 
	C204.212112,397.321777 201.335022,399.790405 196.837311,399.994873 
	C192.176483,400.206757 188.863831,398.107788 186.936417,393.940887 
	C184.987503,389.727478 184.706985,385.331238 186.092758,380.464600 
z"/>
<path fill="#EDCB54" opacity="1.000000" stroke="none" 
	d="
M397.913086,280.334961 
	C397.261780,281.771118 396.626465,283.044495 395.959015,284.667419 
	C395.373138,285.220551 394.819397,285.424133 394.115997,285.892578 
	C393.104889,286.681641 392.247925,287.212860 391.126007,287.879150 
	C390.009399,287.810516 389.182190,287.645203 388.163330,287.221252 
	C386.767731,283.786377 387.441803,280.717865 388.768646,277.325134 
	C389.032837,276.978668 388.987885,276.979492 388.985535,277.001831 
	C392.283417,275.611633 395.434723,275.037109 397.915405,279.053162 
	C397.950470,279.727539 397.933533,279.949371 397.913086,280.334961 
z"/>
<path fill="#FFFDDD" opacity="1.000000" stroke="none" 
	d="
M388.680420,277.033630 
	C388.756500,280.041290 389.626495,283.221741 388.030701,286.558716 
	C384.382721,284.278290 384.480621,281.565186 388.680420,277.033630 
z"/>
<path fill="#FEF9BE" opacity="1.000000" stroke="none" 
	d="
M398.252411,279.250122 
	C396.011871,276.229980 392.777100,277.094391 389.407318,277.018982 
	C392.996979,273.515442 396.971985,274.335876 398.252411,279.250122 
z"/>
<path fill="#FFFCEA" opacity="1.000000" stroke="none" 
	d="
M390.871399,288.201782 
	C391.343475,286.837891 391.049774,284.712585 393.695221,286.017700 
	C394.252197,286.595367 394.538055,287.033234 394.923096,287.716827 
	C395.327393,292.270050 392.800232,290.330658 390.894043,289.352417 
	C390.866486,288.883148 390.906250,288.427704 390.871399,288.201782 
z"/>
<path fill="#FEF8BD" opacity="1.000000" stroke="none" 
	d="
M390.568817,288.950256 
	C392.285553,290.297302 393.651398,290.714966 394.953857,288.315430 
	C395.841797,288.624359 397.541626,289.459442 395.780029,290.373596 
	C393.870728,291.364410 391.484589,291.868103 389.699890,289.670166 
	C389.651428,289.610504 389.759033,289.367584 389.853088,289.263763 
	C389.956726,289.149323 390.128845,289.096832 390.568817,288.950256 
z"/>
<path fill="#F6F3F3" opacity="1.000000" stroke="none" 
	d="
M435.725220,352.314240 
	C436.168762,351.783478 436.363159,351.509399 436.782349,351.116119 
	C439.704987,353.746765 439.382935,356.851105 437.991516,360.446228 
	C437.455597,361.181030 437.000397,361.541107 435.935791,361.754700 
	C431.812683,358.536774 434.204712,355.563141 435.725220,352.314240 
z"/>
<path fill="#F9F6F6" opacity="1.000000" stroke="none" 
	d="
M427.021118,362.181274 
	C422.686157,358.155853 422.569122,354.881500 426.561584,350.036346 
	C426.915009,349.910309 427.133545,350.162537 427.280701,350.241150 
	C429.032135,353.589966 428.335663,357.017242 427.987122,360.824097 
	C427.703796,361.480042 427.550323,361.723877 427.021118,362.181274 
z"/>
<path fill="#F4F2F1" opacity="1.000000" stroke="none" 
	d="
M435.977264,361.977692 
	C433.353394,365.167419 430.313110,364.510925 426.907593,362.665558 
	C426.645416,362.394867 426.919067,362.081055 427.071716,361.939545 
	C430.617401,356.294647 430.617401,356.294647 435.802673,361.803223 
	C436.050446,362.043945 435.995697,362.005585 435.977264,361.977692 
z"/>
<path fill="#4D4847" opacity="1.000000" stroke="none" 
	d="
M436.029755,361.678589 
	C432.464050,362.557587 432.889832,358.345795 430.518768,357.349945 
	C428.274902,358.078766 431.465118,361.921143 427.589478,361.856049 
	C427.269043,358.258148 427.313690,354.718292 427.393127,350.749084 
	C430.188354,350.077393 433.002136,349.503937 435.680145,351.829315 
	C435.886749,353.157288 436.228119,354.800018 435.639191,355.265320 
	C432.670288,357.611115 435.021851,359.372101 436.029755,361.678589 
z"/>
<path fill="#FFF8AF" opacity="1.000000" stroke="none" 
	d="
M391.326019,280.077545 
	C392.679504,278.628998 394.060425,278.628876 395.303467,279.603058 
	C395.802429,279.994080 395.562286,280.872253 394.969910,281.233154 
	C393.515045,282.119476 392.028778,282.769592 391.326019,280.077545 
z"/>
<path fill="#D7D4D3" opacity="1.000000" stroke="none" 
	d="
M430.129852,355.051147 
	C429.358856,353.119415 429.408081,351.832733 431.694885,352.054321 
	C432.722321,352.153870 433.860718,352.527985 433.755127,353.624023 
	C433.559753,355.652008 431.819946,355.316132 430.129852,355.051147 
z"/>
</svg>