<svg width="2000" height="2000" viewBox="0 0 2000 2000" fill="none" xmlns="http://www.w3.org/2000/svg">
<rect width="2000" height="2000" fill="white"/>
<path d="M1131.71 1302.3H1345.93L1238.82 983.625L1131.71 1302.3Z" fill="black"/>
<path d="M1460.7 1477.81C1459.11 1478.46 1457.38 1478.77 1455.64 1478.72C1452.92 1478.74 1450.26 1477.99 1448 1476.56C1445.75 1475.13 1444.01 1473.1 1443.01 1470.72L1381.3 1324.37H1092.95L1031.14 1470.72C1029.83 1473.84 1027.25 1476.34 1023.97 1477.68C1020.69 1479.01 1016.97 1479.07 1013.65 1477.85C1010.32 1476.62 1007.65 1474.2 1006.22 1471.13C1004.8 1468.06 1004.73 1464.58 1006.04 1461.46L1104.05 1229.28V849.82L926.444 1199.22C925.348 1201.37 923.624 1203.19 921.472 1204.46C919.32 1205.73 916.828 1206.4 914.283 1206.4C911.739 1206.4 909.246 1205.73 907.094 1204.46C904.942 1203.19 903.219 1201.37 902.123 1199.22L724.583 849.82V1021.8C734.3 1021.15 744.051 1021.12 753.772 1021.7C757.345 1021.9 760.69 1023.41 763.07 1025.92C765.45 1028.42 766.67 1031.71 766.463 1035.06C766.255 1038.41 764.636 1041.54 761.962 1043.77C759.289 1046 755.779 1047.14 752.205 1046.95C748.279 1046.74 744.348 1046.62 740.415 1046.6C735.161 1046.6 729.855 1046.85 724.499 1047.26V1203.34C724.375 1206.62 722.895 1209.73 720.371 1212.02C717.846 1214.3 714.475 1215.57 710.966 1215.57C707.457 1215.57 704.085 1214.3 701.561 1212.02C699.036 1209.73 697.556 1206.62 697.433 1203.34V1051.11C692.969 1052 688.59 1053.08 684.093 1054.27C643.317 1065.63 607.547 1089.02 582.101 1120.96C556.656 1152.9 542.896 1191.68 542.867 1231.53C542.9 1249.4 545.651 1267.18 551.036 1284.32C563.139 1322.53 588.085 1356.05 622.161 1379.9C656.237 1403.76 697.623 1416.67 740.163 1416.72C759.206 1416.74 778.149 1414.14 796.384 1409C827.849 1400.3 856.498 1384.39 879.733 1362.69C902.969 1341 920.055 1314.21 929.442 1284.77C929.949 1283.18 930.786 1281.7 931.904 1280.41C933.022 1279.12 934.4 1278.06 935.959 1277.27C937.517 1276.48 939.226 1275.99 940.988 1275.82C942.749 1275.65 944.529 1275.81 946.225 1276.29C947.922 1276.76 949.502 1277.54 950.875 1278.59C952.248 1279.64 953.387 1280.93 954.228 1282.39C955.069 1283.85 955.594 1285.45 955.774 1287.1C955.955 1288.75 955.786 1290.42 955.278 1292.01C944.121 1326.88 923.488 1358.44 895.398 1383.6C867.309 1408.76 832.726 1426.65 795.036 1435.53C757.346 1444.41 717.842 1443.97 680.39 1434.24C642.938 1424.52 608.823 1405.86 581.385 1380.08C553.947 1354.29 534.127 1322.28 523.865 1287.17C513.603 1252.05 513.251 1215.04 522.844 1179.76C532.436 1144.49 551.645 1112.14 578.588 1085.91C605.532 1059.67 639.287 1040.44 676.548 1030.1C683.43 1028.19 690.412 1026.61 697.466 1025.36V796.712L579.197 563.706V917.128C579.197 920.475 577.777 923.686 575.25 926.053C572.723 928.42 569.296 929.75 565.722 929.75C562.149 929.75 558.722 928.42 556.195 926.053C553.668 923.686 552.248 920.475 552.248 917.128V507.868C552.25 505.005 553.291 502.229 555.2 499.993C557.108 497.758 559.771 496.196 562.752 495.565C565.733 494.934 568.854 495.271 571.603 496.52C574.352 497.769 576.567 499.857 577.883 502.44L768.998 878.346L960.112 502.44C961.439 499.875 963.653 497.805 966.395 496.569C969.137 495.332 972.245 495.002 975.214 495.631C978.182 496.26 980.835 497.812 982.742 500.034C984.648 502.256 985.695 505.017 985.713 507.868V917.128C985.713 920.475 984.294 923.686 981.767 926.053C979.24 928.42 975.813 929.75 972.239 929.75C968.666 929.75 965.238 928.42 962.711 926.053C960.184 923.686 958.765 920.475 958.765 917.128V563.706L783.903 907.661L914.401 1164.41L1105.41 788.539C1106.72 785.94 1108.93 783.835 1111.68 782.572C1114.44 781.309 1117.57 780.964 1120.56 781.593C1123.55 782.221 1126.22 783.787 1128.14 786.031C1130.05 788.275 1131.09 791.063 1131.08 793.935V1165.36L1224.63 943.808C1225.6 941.423 1227.33 939.372 1229.57 937.925C1231.82 936.478 1234.48 935.704 1237.21 935.704C1239.94 935.704 1242.6 936.478 1244.84 937.925C1247.09 939.372 1248.82 941.423 1249.79 943.808L1468.26 1461.46C1469.56 1464.57 1469.49 1468.04 1468.07 1471.1C1466.65 1474.16 1464.01 1476.58 1460.7 1477.81ZM1229.5 869.4V687.624H1083.99V415H884L769.587 639.044H767.903L653.642 415H453.6V983H562.522C492.168 1027.19 443.433 1095.75 427.04 1173.6C410.646 1251.45 427.937 1332.21 475.108 1398.11C522.28 1464.02 595.467 1509.67 678.571 1525.03C761.674 1540.39 847.886 1524.19 918.241 1480L887.554 1551H1087.98L1126.25 1460.15H1348.05L1385.98 1551H1603L1314.11 869.4H1229.5Z" fill="black"/>
</svg>
