<?xml version="1.0" standalone="no"?>
<!DOCTYPE svg PUBLIC "-//W3C//DTD SVG 20010904//EN"
 "http://www.w3.org/TR/2001/REC-SVG-20010904/DTD/svg10.dtd">
<svg version="1.0" xmlns="http://www.w3.org/2000/svg"
 width="490.000000pt" height="537.000000pt" viewBox="0 0 490.000000 537.000000"
 preserveAspectRatio="xMidYMid meet">

<g transform="translate(0.000000,537.000000) scale(0.100000,-0.100000)"
fill="#000000" stroke="none">
<path d="M0 5095 l0 -275 2450 0 2450 0 0 275 0 275 -2450 0 -2450 0 0 -275z
m3692 68 c1 -31 1 -76 -1 -100 l-3 -43 -119 0 -119 0 0 100 0 100 119 0 119 0
4 -57z m313 7 c4 -27 4 -72 0 -100 l-7 -50 -114 0 -114 0 0 100 0 100 114 0
114 0 7 -50z m295 -50 l0 -100 -110 0 -110 0 0 100 0 100 110 0 110 0 0 -100z
m422 28 c2 -40 2 -85 0 -100 l-3 -28 -170 0 -169 0 0 100 0 100 169 0 169 0 4
-72z m-4322 -9 c0 -51 0 -51 27 -44 33 8 42 16 26 22 -7 3 -13 15 -13 29 0 25
35 42 65 30 8 -3 15 -1 15 5 0 6 8 9 18 7 13 -3 17 -14 18 -58 1 -30 -1 -61
-3 -67 -7 -18 -33 -16 -33 2 0 18 -75 22 -85 4 -4 -6 -13 -8 -20 -5 -8 3 -15
0 -17 -5 -5 -15 -58 1 -58 17 0 18 -51 8 -63 -13 -11 -18 -37 -17 -37 2 0 10
-10 15 -34 15 -40 0 -58 26 -23 33 18 3 17 5 -6 6 -43 2 -22 21 24 21 21 0 39
5 39 10 0 6 -16 10 -35 10 -19 0 -35 5 -35 11 0 12 124 9 136 -4 4 -3 7 -16 8
-28 2 -39 26 -34 26 4 0 25 5 37 18 40 39 11 42 8 42 -44z m548 36 c27 -4 42
-2 42 4 0 15 27 14 34 -1 5 -10 7 -10 12 0 3 6 12 12 19 12 18 0 23 -17 20
-80 -2 -42 -6 -56 -19 -58 -9 -2 -16 3 -16 13 0 14 -11 15 -97 9 -54 -4 -99
-11 -101 -15 -6 -14 -36 -11 -58 6 -25 19 -60 19 -68 0 -8 -22 -36 -18 -36 5
0 16 -7 20 -31 20 -39 0 -59 20 -59 59 0 29 2 30 48 33 70 4 261 0 310 -7z
m282 -20 c0 -33 1 -35 21 -24 12 6 24 20 26 30 7 27 28 24 41 -6 15 -32 32
-32 32 -1 0 21 5 24 58 29 31 2 61 1 65 -3 4 -4 7 -34 5 -66 l-3 -59 -52 -3
-53 -3 0 32 c0 24 -4 30 -15 25 -8 -3 -26 0 -40 6 -19 8 -28 8 -40 -2 -8 -7
-22 -10 -30 -6 -8 3 -15 1 -15 -4 0 -6 29 -10 65 -10 37 0 65 -4 65 -10 0 -6
-28 -10 -65 -10 -37 0 -65 -4 -65 -10 0 -18 -24 -10 -48 15 -20 20 -27 22 -42
13 -27 -17 -35 -4 -16 24 9 12 16 33 16 45 0 14 6 23 15 23 8 0 15 -9 15 -19
0 -25 10 -51 20 -51 4 0 6 14 4 31 -4 36 1 49 22 49 9 0 14 -11 14 -35z m1990
-41 c0 -56 -2 -65 -16 -60 -9 3 -20 6 -25 6 -5 0 -9 7 -9 15 0 11 -8 13 -30 9
-30 -6 -30 -6 -30 39 0 44 1 46 33 50 82 10 77 14 77 -59z m110 47 c0 -11 6
-22 13 -25 10 -5 10 -7 0 -12 -7 -3 -13 -21 -13 -40 0 -37 -19 -47 -27 -14 -4
15 -14 20 -39 20 -33 0 -34 1 -34 39 0 39 1 40 38 44 20 2 43 4 50 5 6 1 12
-7 12 -17z m85 -20 c7 -12 -12 -24 -25 -16 -11 7 -4 25 10 25 5 0 11 -4 15 -9z
m0 -61 c3 -5 -3 -10 -14 -10 -12 0 -21 5 -21 10 0 6 6 10 14 10 8 0 18 -4 21
-10z"/>
<path d="M475 5140 c3 -5 8 -10 11 -10 2 0 4 5 4 10 0 6 -5 10 -11 10 -5 0 -7
-4 -4 -10z"/>
<path d="M240 5116 c0 -2 9 -6 20 -9 11 -3 20 -1 20 4 0 5 -9 9 -20 9 -11 0
-20 -2 -20 -4z"/>
<path d="M840 5140 c0 -5 7 -10 15 -10 8 0 15 5 15 10 0 6 -7 10 -15 10 -8 0
-15 -4 -15 -10z"/>
<path d="M939 5131 c25 -19 15 -38 -14 -27 -8 3 -15 1 -15 -4 0 -12 30 -13 46
-2 5 4 10 17 10 30 0 17 -6 22 -26 22 l-25 0 24 -19z"/>
<path d="M855 5100 c-19 -8 -19 -9 3 -9 12 -1 22 4 22 9 0 6 -1 10 -2 9 -2 0
-12 -4 -23 -9z"/>
<path d="M1418 5083 c7 -3 16 -2 19 1 4 3 -2 6 -13 5 -11 0 -14 -3 -6 -6z"/>
<path d="M3138 5143 c6 -2 18 -2 25 0 6 3 1 5 -13 5 -14 0 -19 -2 -12 -5z"/>
<path d="M3130 5110 c0 -5 9 -10 20 -10 11 0 20 5 20 10 0 6 -9 10 -20 10 -11
0 -20 -4 -20 -10z"/>
<path d="M3250 5130 c0 -16 5 -30 10 -30 6 0 10 14 10 30 0 17 -4 30 -10 30
-5 0 -10 -13 -10 -30z"/>
<path d="M2253 2970 c0 -25 2 -35 4 -22 2 12 8 22 13 22 5 0 11 -10 13 -22 2
-13 4 -3 4 22 1 25 -1 37 -4 28 -2 -10 -8 -18 -13 -18 -5 0 -11 8 -13 18 -3 9
-5 -3 -4 -28z"/>
<path d="M2393 2950 c0 -36 2 -50 4 -32 6 44 21 41 26 -5 2 -21 4 -6 4 32 0
39 -2 58 -4 43 -2 -16 -8 -28 -13 -28 -5 0 -11 12 -13 28 -2 15 -4 -2 -4 -38z"/>
<path d="M2518 3003 c30 -6 28 -29 -5 -47 -17 -9 -22 -15 -12 -16 9 0 24 9 33
19 20 22 53 17 59 -8 3 -9 5 2 5 24 0 22 -2 32 -5 23 -5 -22 -33 -24 -33 -3 0
11 -10 15 -32 14 -24 -1 -27 -3 -10 -6z"/>
<path d="M2649 2973 c-13 -25 -13 -31 -3 -22 11 9 18 8 29 -1 16 -13 21 0 6
16 -5 5 -11 16 -13 25 -2 11 -8 5 -19 -18z"/>
<path d="M2703 2970 c0 -25 2 -35 4 -22 2 12 8 22 13 22 5 0 11 -10 13 -22 2
-13 4 -3 4 22 1 25 -1 37 -4 28 -2 -10 -8 -18 -13 -18 -5 0 -11 8 -13 18 -3 9
-5 -3 -4 -28z"/>
<path d="M2180 2973 c0 -31 2 -33 33 -32 30 2 30 2 5 6 -34 5 -37 23 -5 24 20
1 20 2 2 6 -11 3 -23 10 -27 17 -4 6 -8 -4 -8 -21z"/>
<path d="M2321 2958 c-1 -45 1 -48 24 -48 23 0 25 3 24 48 -1 26 -3 39 -6 30
-2 -10 -11 -18 -18 -18 -7 0 -16 8 -18 18 -3 9 -5 -4 -6 -30z m39 -18 c0 -11
-7 -20 -15 -20 -8 0 -15 9 -15 20 0 11 7 20 15 20 8 0 15 -9 15 -20z"/>
<path d="M2510 2905 c0 -23 4 -25 45 -25 41 0 45 2 45 25 0 23 -4 25 -45 25
-41 0 -45 -2 -45 -25z m80 0 c0 -10 -10 -15 -30 -15 -20 0 -30 5 -30 15 0 10
10 15 30 15 20 0 30 -5 30 -15z"/>
<path d="M2277 2900 c3 -11 7 -20 9 -20 2 0 4 9 4 20 0 11 -4 20 -9 20 -5 0
-7 -9 -4 -20z"/>
<path d="M2727 2900 c3 -11 7 -20 9 -20 2 0 4 9 4 20 0 11 -4 20 -9 20 -5 0
-7 -9 -4 -20z"/>
<path d="M1373 2515 c0 -33 2 -48 4 -32 6 37 21 34 26 -5 2 -18 4 -4 4 32 0
36 -2 53 -4 38 -2 -16 -8 -28 -13 -28 -5 0 -11 12 -13 28 -2 15 -4 0 -4 -33z"/>
<path d="M1750 2531 c0 -22 -5 -42 -12 -44 -10 -4 -10 -6 0 -6 6 -1 12 -8 12
-16 0 -8 5 -15 10 -15 6 0 10 27 10 60 0 33 -4 60 -10 60 -5 0 -10 -18 -10
-39z"/>
<path d="M1910 2555 c0 -8 -6 -15 -12 -15 -10 0 -10 -2 -2 -8 7 -4 14 -18 17
-32 2 -15 5 -5 6 23 0 26 -1 47 -4 47 -3 0 -5 -7 -5 -15z"/>
<path d="M2012 2535 c0 -22 2 -32 5 -22 2 9 8 17 13 17 5 0 11 -8 13 -17 3
-10 5 0 5 22 0 22 -2 32 -5 23 -2 -10 -8 -18 -13 -18 -5 0 -11 8 -13 18 -3 9
-5 -1 -5 -23z"/>
<path d="M2663 2515 c0 -33 2 -48 4 -32 6 37 21 34 26 -5 2 -18 4 -4 4 32 0
36 -2 53 -4 38 -2 -16 -8 -28 -13 -28 -5 0 -11 12 -13 28 -2 15 -4 0 -4 -33z"/>
<path d="M3510 2531 c0 -29 -5 -41 -17 -44 -16 -4 -16 -5 -1 -6 9 0 19 -9 21
-18 3 -10 5 10 6 45 0 34 -1 62 -4 62 -3 0 -5 -18 -5 -39z"/>
<path d="M1271 2543 c-1 -20 -7 -23 -43 -24 -30 -2 -35 -3 -15 -6 33 -5 36
-20 5 -26 -15 -3 -9 -5 14 -6 26 -1 38 -6 41 -18 4 -14 5 -12 6 5 1 13 -5 22
-14 22 -8 0 -15 5 -15 10 0 6 12 10 28 10 15 0 22 4 16 8 -7 4 -14 16 -17 27
-4 18 -5 18 -6 -2z"/>
<path d="M1480 2520 c-6 -23 -14 -49 -17 -58 -4 -11 -3 -14 4 -7 11 11 34 97
28 103 -2 2 -9 -15 -15 -38z"/>
<path d="M1631 2543 c-1 -20 -7 -23 -43 -24 -30 -2 -35 -3 -15 -6 33 -5 36
-20 5 -26 -15 -3 -9 -5 14 -6 26 -1 38 -6 41 -18 4 -14 5 -12 6 5 1 13 -5 22
-14 22 -8 0 -15 5 -15 10 0 6 12 10 28 10 15 0 22 4 16 8 -7 4 -14 16 -17 27
-4 18 -5 18 -6 -2z"/>
<path d="M1673 2544 c-4 -10 1 -22 10 -29 10 -7 17 -17 17 -24 0 -6 5 -11 11
-11 5 0 7 5 4 11 -4 6 1 16 11 23 24 18 11 46 -21 46 -15 0 -28 -7 -32 -16z
m53 -5 c9 -16 -18 -30 -33 -17 -7 6 -10 14 -7 19 7 13 31 11 40 -2z"/>
<path d="M1850 2542 c0 -11 -8 -26 -17 -31 -10 -6 -13 -11 -7 -11 5 0 15 5 22
12 8 8 15 8 28 -3 15 -12 15 -10 -1 16 -11 17 -20 32 -22 34 -2 2 -3 -5 -3
-17z"/>
<path d="M1950 2533 c0 -16 4 -23 8 -17 4 6 14 14 22 17 11 4 10 6 -5 7 l-20
1 20 9 c19 8 19 9 -2 9 -19 1 -23 -4 -23 -26z"/>
<path d="M2561 2543 c-1 -20 -7 -23 -43 -24 -30 -2 -35 -3 -15 -6 33 -5 36
-20 5 -26 -15 -3 -9 -5 14 -6 26 -1 38 -6 41 -18 4 -14 5 -12 6 5 1 13 -5 22
-14 22 -8 0 -15 5 -15 10 0 6 12 10 28 10 15 0 22 4 16 8 -7 4 -14 16 -17 27
-4 18 -5 18 -6 -2z"/>
<path d="M3381 2543 c-1 -20 -7 -23 -43 -24 -30 -2 -35 -3 -15 -6 33 -5 36
-20 5 -26 -15 -3 -9 -5 14 -6 26 -1 38 -6 41 -18 4 -14 5 -12 6 5 1 13 -5 22
-14 22 -8 0 -15 5 -15 10 0 6 12 10 28 10 15 0 22 4 16 8 -7 4 -14 16 -17 27
-4 18 -5 18 -6 -2z"/>
<path d="M3431 2546 c-9 -11 -8 -17 4 -29 8 -9 15 -20 15 -26 0 -6 5 -11 11
-11 5 0 7 5 4 11 -4 6 1 16 11 23 21 16 12 46 -14 46 -11 0 -25 -6 -31 -14z
m49 -10 c0 -15 -24 -28 -34 -19 -13 14 -5 33 14 33 11 0 20 -6 20 -14z"/>
<path d="M1312 2518 c-2 -35 0 -38 26 -37 22 1 23 2 5 6 -16 3 -23 13 -26 36
-4 31 -4 31 -5 -5z"/>
<path d="M2602 2518 c-2 -35 0 -38 26 -37 22 1 23 2 5 6 -16 3 -23 13 -26 36
-4 31 -4 31 -5 -5z"/>
<path d="M1842 2473 c2 -14 14 -18 48 -19 39 -1 40 -1 8 3 -24 3 -38 9 -38 19
0 8 -5 14 -11 14 -6 0 -9 -8 -7 -17z"/>
<path d="M2002 2483 c24 -3 38 -10 41 -21 3 -12 5 -11 6 6 1 20 -3 22 -41 20
l-43 -1 37 -4z"/>
<path d="M833 1910 c0 -36 2 -50 4 -32 6 44 21 41 26 -5 2 -21 4 -6 4 32 0 39
-2 58 -4 43 -2 -16 -8 -28 -13 -28 -5 0 -11 12 -13 28 -2 15 -4 -2 -4 -38z"/>
<path d="M910 1959 c-20 -6 -17 -7 18 -8 23 -1 42 1 42 3 0 9 -37 12 -60 5z"/>
<path d="M993 1920 c0 -30 2 -44 4 -30 3 14 10 28 17 32 8 6 8 8 -1 8 -6 0
-14 10 -16 23 -2 12 -4 -3 -4 -33z"/>
<path d="M1040 1945 c0 -14 5 -25 10 -25 6 0 10 5 10 10 0 6 19 11 43 12 l42
1 -45 7 -45 6 45 5 45 6 -52 1 c-50 2 -53 1 -53 -23z"/>
<path d="M1191 1961 c-23 -15 -5 -41 28 -41 39 0 61 9 61 25 0 23 -60 34 -89
16z m74 -16 c0 -12 -40 -19 -61 -11 -9 3 -12 11 -9 16 8 14 70 9 70 -5z"/>
<path d="M569 1936 c-15 -32 -4 -73 21 -81 25 -8 60 2 60 18 0 8 -3 8 -12 -1
-20 -20 -48 -14 -58 14 -18 47 24 85 59 52 11 -11 13 -10 9 2 -3 8 -19 16 -36
18 -26 3 -34 -1 -43 -22z"/>
<path d="M720 1915 c-5 -45 -7 -50 -28 -48 -13 2 -21 -1 -17 -7 9 -15 45 -12
51 4 3 7 4 33 2 57 l-4 44 -4 -50z"/>
<path d="M760 1915 c0 -43 1 -45 28 -44 23 2 24 2 5 6 -19 4 -23 11 -23 38 0
27 4 34 23 38 19 4 18 4 -5 6 -27 1 -28 -1 -28 -44z"/>
<path d="M904 1925 c-8 -19 3 -35 25 -35 26 0 44 23 29 38 -17 17 -47 15 -54
-3z m46 -11 c0 -9 -7 -14 -17 -12 -25 5 -28 28 -4 28 12 0 21 -6 21 -16z"/>
<path d="M1085 1911 c3 -5 -9 -12 -27 -14 -18 -2 -4 -4 32 -4 36 0 53 2 38 4
-16 2 -28 9 -28 14 0 5 -5 9 -11 9 -5 0 -8 -4 -4 -9z"/>
<path d="M1220 1885 c0 -8 5 -15 10 -15 6 0 10 7 10 15 0 8 -4 15 -10 15 -5 0
-10 -7 -10 -15z"/>
<path d="M910 1860 c0 -18 6 -20 53 -18 50 1 50 2 10 5 -29 3 -43 9 -43 19 0
8 -4 14 -10 14 -5 0 -10 -9 -10 -20z"/>
<path d="M1050 1871 c-24 -16 2 -33 46 -29 27 2 39 8 39 18 0 18 -62 25 -85
11z m70 -11 c0 -5 -13 -10 -30 -10 -16 0 -30 5 -30 10 0 6 14 10 30 10 17 0
30 -4 30 -10z"/>
<path d="M1181 1863 c-1 -21 3 -23 52 -21 l52 2 -47 3 c-33 3 -48 9 -51 21 -3
12 -5 11 -6 -5z"/>
<path d="M485 585 c-24 -23 -25 -28 -25 -175 0 -147 1 -152 25 -175 l24 -25
1951 0 1951 0 24 25 c24 23 25 28 25 175 0 147 -1 152 -25 175 l-24 25 -1951
0 -1951 0 -24 -25z m1905 -105 c0 -5 9 -10 20 -10 11 0 20 5 20 10 0 6 5 10
10 10 6 0 10 -32 10 -75 0 -43 -4 -75 -10 -75 -5 0 -10 7 -10 15 0 14 -16 15
-125 9 -91 -5 -125 -4 -125 5 0 6 14 11 30 11 20 0 30 5 30 15 0 8 7 15 15 15
8 0 15 -7 15 -15 0 -16 35 -19 80 -6 21 6 22 8 8 14 -10 3 -18 16 -18 27 0 12
7 20 18 21 11 1 9 4 -8 9 -24 8 -24 8 -2 9 12 1 22 6 22 11 0 6 5 10 10 10 6
0 10 -4 10 -10z m130 0 c0 -5 9 -10 20 -10 11 0 20 5 20 10 0 6 5 10 10 10 6
0 10 -13 10 -30 0 -22 5 -30 18 -30 16 -1 16 -1 0 -14 -11 -8 -18 -26 -18 -45
0 -17 -4 -31 -10 -31 -5 0 -10 25 -10 55 0 50 -2 55 -22 55 -21 -1 -21 -2 -5
-11 41 -24 0 -82 -43 -59 -22 12 -26 40 -8 58 9 9 8 12 -5 12 -9 0 -17 5 -17
10 0 6 9 10 20 10 11 0 20 5 20 10 0 6 5 10 10 10 6 0 10 -4 10 -10z m210 -65
c0 -60 -3 -75 -15 -75 -12 0 -15 15 -15 75 0 60 3 75 15 75 12 0 15 -15 15
-75z m-415 55 c4 -6 -5 -10 -19 -10 -33 0 -33 -17 -1 -32 14 -6 25 -15 25 -20
0 -13 -24 -10 -45 6 -17 12 -22 12 -39 0 -11 -8 -26 -14 -33 -14 -22 0 -15 16
12 28 30 14 33 32 5 32 -11 0 -20 5 -20 10 0 6 24 10 54 10 30 0 58 -4 61 -10z
m375 0 c0 -28 -32 -81 -55 -92 -37 -17 -40 -4 -5 30 37 37 38 52 5 52 -14 0
-25 5 -25 10 0 6 18 10 40 10 22 0 40 -5 40 -10z"/>
<path d="M2398 450 c26 -11 29 -35 5 -49 -16 -9 -16 -10 5 -11 19 0 22 5 22
35 0 32 -3 35 -27 34 -27 0 -27 -1 -5 -9z"/>
<path d="M2365 431 c-6 -11 9 -23 19 -14 9 9 7 23 -3 23 -6 0 -12 -4 -16 -9z"/>
<path d="M2500 409 c0 -11 5 -17 10 -14 6 3 10 13 10 21 0 8 -4 14 -10 14 -5
0 -10 -9 -10 -21z"/>
</g>
</svg>
