<?xml version="1.0" standalone="no"?>
<!DOCTYPE svg PUBLIC "-//W3C//DTD SVG 20010904//EN"
 "http://www.w3.org/TR/2001/REC-SVG-20010904/DTD/svg10.dtd">
<svg version="1.0" xmlns="http://www.w3.org/2000/svg"
 width="689.000000pt" height="772.000000pt" viewBox="0 0 689.000000 772.000000"
 preserveAspectRatio="xMidYMid meet">

<g transform="translate(0.000000,772.000000) scale(0.100000,-0.100000)"
fill="#000000" stroke="none">
<path d="M73 7525 c0 -38 2 -55 4 -37 4 29 7 32 38 32 31 0 34 -3 38 -32 2
-18 4 -1 4 37 0 39 -2 55 -4 38 -4 -30 -7 -33 -38 -33 -31 0 -34 3 -38 33 -2
17 -4 1 -4 -38z"/>
<path d="M542 7554 c11 -19 24 -50 28 -67 8 -32 8 -32 9 -4 1 15 12 45 26 67
14 22 21 40 15 40 -5 0 -17 -14 -26 -32 l-16 -31 -19 24 c-10 13 -19 27 -19
32 0 4 -4 7 -10 7 -5 0 0 -16 12 -36z"/>
<path d="M990 7535 c0 -63 -21 -84 -47 -49 -14 19 -15 19 -11 -1 4 -23 42 -32
64 -15 16 14 20 120 4 120 -5 0 -10 -25 -10 -55z"/>
<path d="M201 7546 c-7 -8 -11 -30 -9 -48 2 -26 8 -34 26 -36 31 -5 52 15 52
47 0 46 -43 69 -69 37z m59 -34 c0 -27 -16 -44 -36 -40 -22 4 -31 43 -14 63
15 18 50 2 50 -23z"/>
<path d="M292 7505 c1 -43 2 -45 5 -13 3 25 11 42 24 48 22 12 26 6 32 -50 3
-21 4 -15 3 15 -1 49 -1 50 -33 50 l-33 1 2 -51z"/>
<path d="M401 7546 c-7 -8 -11 -30 -9 -48 3 -28 7 -34 31 -36 16 -2 26 -8 24
-15 -2 -7 -14 -11 -26 -10 -13 2 -20 -1 -16 -7 3 -6 15 -10 26 -10 23 0 35 29
37 86 2 35 -2 43 -21 48 -31 8 -33 8 -46 -8z m49 -43 c0 -30 -3 -34 -22 -31
-26 3 -37 41 -18 63 19 23 40 6 40 -32z"/>
<path d="M646 7544 c-33 -32 -14 -84 31 -84 35 0 51 41 29 75 -19 29 -38 32
-60 9z m54 -35 c0 -33 -22 -48 -45 -29 -19 16 -19 35 0 54 22 22 45 9 45 -25z"/>
<path d="M746 7544 c-33 -32 -14 -84 31 -84 35 0 51 41 29 75 -19 29 -38 32
-60 9z m54 -35 c0 -33 -22 -48 -45 -29 -19 16 -19 35 0 54 22 22 45 9 45 -25z"/>
<path d="M842 7505 c1 -40 2 -43 5 -15 9 71 49 76 56 7 l4 -42 1 48 c1 26 -1
48 -5 48 -5 1 -20 2 -35 3 -27 2 -28 1 -26 -49z"/>
<path d="M1148 7553 c-14 -3 -18 -15 -18 -49 0 -24 5 -44 10 -44 6 0 10 18 10
39 0 24 5 41 14 44 20 8 26 -2 26 -45 0 -21 5 -38 10 -38 14 0 12 74 -2 88
-12 12 -20 13 -50 5z"/>
<path d="M1242 7548 c-15 -15 -15 -61 0 -76 7 -7 20 -12 31 -12 11 0 17 -5 14
-12 -2 -7 -14 -12 -26 -11 -13 2 -20 -1 -16 -7 10 -17 44 -11 55 9 5 11 10 40
10 64 0 38 -3 46 -22 51 -31 8 -32 8 -46 -6z m53 -28 c8 -25 -4 -50 -25 -50
-23 0 -34 33 -20 59 12 23 36 18 45 -9z"/>
<path d="M1039 7546 c-3 -3 -3 -23 0 -44 6 -33 10 -37 39 -40 l32 -3 -1 48 -2
48 -6 -40 c-5 -31 -10 -40 -26 -40 -16 0 -21 8 -25 38 -3 22 -8 36 -11 33z"/>
<path d="M6343 7433 c9 -2 23 -2 30 0 6 3 -1 5 -18 5 -16 0 -22 -2 -12 -5z"/>
<path d="M5730 7416 c0 -2 7 -7 16 -10 8 -3 12 -2 9 4 -6 10 -25 14 -25 6z"/>
<path d="M5797 7413 c-3 -5 5 -8 18 -8 13 0 21 3 18 8 -2 4 -10 7 -18 7 -8 0
-16 -3 -18 -7z"/>
<path d="M5948 7413 c7 -3 16 -2 19 1 4 3 -2 6 -13 5 -11 0 -14 -3 -6 -6z"/>
<path d="M6021 7375 c2 -33 3 -35 6 -10 2 17 11 35 20 42 13 10 13 12 -6 10
-18 -1 -21 -7 -20 -42z"/>
<path d="M6090 7416 c0 -2 7 -7 16 -10 8 -3 12 -2 9 4 -6 10 -25 14 -25 6z"/>
<path d="M6168 7413 c7 -3 16 -2 19 1 4 3 -2 6 -13 5 -11 0 -14 -3 -6 -6z"/>
<path d="M6425 7410 c-3 -6 1 -7 9 -4 18 7 21 14 7 14 -6 0 -13 -4 -16 -10z"/>
<path d="M6542 7400 c0 -14 2 -19 5 -12 2 6 2 18 0 25 -3 6 -5 1 -5 -13z"/>
<path d="M6718 7395 c2 -14 6 -25 7 -25 1 0 5 11 7 25 3 16 1 25 -7 25 -8 0
-10 -9 -7 -25z"/>
<path d="M6765 7410 c-8 -13 3 -30 18 -29 9 0 9 2 0 6 -21 8 -15 26 7 20 11
-3 18 -1 14 4 -7 12 -31 11 -39 -1z"/>
<path d="M6140 7382 c0 -5 14 -7 30 -4 17 2 30 6 30 8 0 2 -13 4 -30 4 -16 0
-30 -4 -30 -8z"/>
<path d="M6330 7373 c0 -12 3 -14 8 -7 4 7 16 14 27 17 15 4 14 5 -7 6 -21 1
-28 -4 -28 -16z"/>
<path d="M6583 7383 c9 -2 25 -2 35 0 9 3 1 5 -18 5 -19 0 -27 -2 -17 -5z"/>
<path d="M5643 7373 c9 -2 23 -2 30 0 6 3 -1 5 -18 5 -16 0 -22 -2 -12 -5z"/>
<path d="M6542 7350 c0 -14 2 -19 5 -12 2 6 2 18 0 25 -3 6 -5 1 -5 -13z"/>
<path d="M5740 7350 c-9 -6 -10 -10 -3 -10 6 0 15 5 18 10 8 12 4 12 -15 0z"/>
<path d="M5797 7348 c2 -5 10 -8 18 -8 8 0 16 3 18 8 3 4 -5 7 -18 7 -13 0
-21 -3 -18 -7z"/>
<path d="M5877 7348 c2 -5 10 -8 18 -8 8 0 16 3 18 8 3 4 -5 7 -18 7 -13 0
-21 -3 -18 -7z"/>
<path d="M6158 7348 c5 -5 16 -8 23 -6 8 3 3 7 -10 11 -17 4 -21 3 -13 -5z"/>
<path d="M6675 7350 c-16 -7 -17 -9 -3 -9 9 -1 20 4 23 9 7 11 7 11 -20 0z"/>
<path d="M6767 7348 c2 -5 10 -8 18 -8 8 0 16 3 18 8 3 4 -5 7 -18 7 -13 0
-21 -3 -18 -7z"/>
<path d="M1210 7252 c0 -40 3 -72 8 -72 9 0 9 127 -1 136 -4 4 -7 -25 -7 -64z"/>
<path d="M72 7243 c0 -38 3 -54 5 -36 4 27 9 32 36 36 l32 4 -32 1 c-28 2 -33
6 -33 26 0 21 5 25 38 29 l37 4 -42 1 -43 2 2 -67z"/>
<path d="M480 7245 l0 -65 43 1 42 2 -35 6 c-26 4 -35 11 -35 26 0 15 8 21 30
24 l30 4 -30 6 c-45 9 -42 44 5 52 l35 6 -42 2 -43 1 0 -65z"/>
<path d="M740 7291 c0 -14 -5 -18 -18 -14 -26 6 -44 -20 -40 -59 3 -30 6 -33
41 -36 l37 -3 0 65 c0 37 -4 66 -10 66 -5 0 -10 -9 -10 -19z m0 -68 c0 -30 -3
-34 -22 -31 -26 3 -37 41 -18 63 19 23 40 6 40 -32z"/>
<path d="M830 7245 l0 -65 29 0 c33 0 61 30 61 65 0 35 -28 65 -61 65 l-29 0
0 -65z m54 42 c35 -26 16 -97 -25 -97 -16 0 -19 8 -19 55 0 58 9 67 44 42z"/>
<path d="M420 7282 c-10 -11 -11 -17 -2 -20 7 -2 12 -21 12 -43 0 -31 4 -39
18 -39 14 0 14 2 3 9 -10 6 -12 21 -9 49 7 48 -2 66 -22 44z"/>
<path d="M178 7273 c-14 -3 -18 -15 -18 -49 0 -24 5 -44 10 -44 6 0 10 16 10
36 0 23 6 42 18 50 17 13 12 15 -20 7z"/>
<path d="M236 7267 c-27 -20 -18 -81 12 -85 31 -5 52 15 52 47 0 46 -30 63
-64 38z m44 -12 c7 -9 10 -25 6 -41 -5 -19 -12 -25 -29 -22 -25 3 -35 41 -17
64 16 18 24 18 40 -1z"/>
<path d="M338 7273 c-14 -3 -18 -14 -16 -51 1 -44 2 -44 5 -10 3 25 11 42 24
48 22 12 26 6 32 -50 3 -21 4 -15 3 15 -1 51 -9 59 -48 48z"/>
<path d="M598 7273 c-14 -3 -18 -14 -16 -51 1 -44 2 -44 5 -10 3 23 11 42 22
48 25 13 31 4 32 -44 1 -34 2 -37 8 -16 16 53 -7 85 -51 73z"/>
<path d="M950 7265 c-17 -20 -16 -65 1 -76 17 -11 46 -12 53 -1 2 4 -7 8 -21
7 -39 0 -40 23 -1 27 27 2 32 7 30 23 -7 35 -40 46 -62 20z m50 -16 c0 -5 -12
-9 -26 -9 -22 0 -24 2 -14 14 12 15 40 11 40 -5z"/>
<path d="M1125 7260 c-15 -16 -17 -26 -9 -48 10 -28 48 -42 65 -25 5 5 -3 9
-18 8 -14 0 -28 6 -30 13 -3 8 6 12 26 12 23 0 31 5 31 18 0 20 -18 42 -35 42
-7 0 -20 -9 -30 -20z m36 -18 c-28 -4 -40 6 -21 18 9 6 20 4 29 -3 12 -10 11
-13 -8 -15z"/>
<path d="M1266 7267 c-39 -29 1 -106 42 -81 33 21 24 94 -12 94 -7 0 -20 -6
-30 -13z m44 -11 c18 -23 8 -61 -17 -64 -17 -3 -24 3 -29 22 -4 16 -1 32 6 41
16 19 24 19 40 1z"/>
<path d="M1368 7273 c-15 -4 -18 -16 -18 -69 0 -36 4 -64 10 -64 6 0 10 9 10
20 0 13 7 20 18 20 25 0 42 20 42 50 0 41 -19 54 -62 43z m48 -57 c-4 -17 -13
-26 -26 -26 -16 0 -20 7 -20 34 0 38 17 51 39 31 9 -9 11 -23 7 -39z"/>
<path d="M1468 7269 c-21 -12 -24 -59 -6 -77 14 -14 58 -16 58 -3 0 5 -9 7
-21 4 -12 -4 -25 0 -30 8 -6 11 -1 15 23 19 37 6 45 21 23 44 -19 19 -24 19
-47 5z m42 -20 c0 -5 -12 -9 -26 -9 -22 0 -24 2 -14 14 12 15 40 11 40 -5z"/>
<path d="M1552 7225 c1 -50 2 -50 5 -7 3 28 9 42 19 42 8 0 14 4 14 9 0 6 -9
9 -20 8 -17 -1 -20 -8 -18 -52z"/>
<path d="M1031 7264 c-2 -22 30 -87 38 -78 12 13 32 76 27 82 -3 2 -11 -11
-19 -29 l-14 -34 -16 35 c-8 19 -16 30 -16 24z"/>
<path d="M3000 2485 c-7 -9 -10 -18 -6 -22 3 -3 6 -1 6 6 0 6 10 16 23 21 15
6 17 9 6 9 -9 1 -22 -6 -29 -14z"/>
<path d="M3103 2435 c0 -38 2 -57 4 -40 3 16 10 33 16 37 9 6 9 8 0 8 -6 0
-14 15 -16 33 -2 17 -4 1 -4 -38z"/>
<path d="M3280 2491 c0 -5 -10 -12 -22 -14 l-23 -4 23 -2 c12 0 22 -5 22 -10
0 -5 -10 -12 -22 -14 -23 -4 -23 -4 -1 -6 16 -1 23 -9 26 -28 2 -16 5 -2 6 30
0 31 -1 57 -4 57 -3 0 -5 -4 -5 -9z"/>
<path d="M3381 2488 c0 -9 -11 -19 -23 -21 -13 -2 2 -4 32 -4 30 0 43 2 28 4
-15 2 -29 12 -31 21 -4 16 -5 16 -6 0z"/>
<path d="M3463 2415 c0 -49 2 -71 4 -48 3 29 9 43 21 46 16 4 16 5 0 6 -12 1
-18 12 -21 44 -2 23 -4 2 -4 -48z"/>
<path d="M3620 2471 c0 -20 -6 -31 -17 -34 -16 -4 -16 -5 -1 -6 13 -1 18 -13
21 -48 2 -31 4 -19 5 35 1 45 0 82 -3 82 -3 0 -5 -13 -5 -29z"/>
<path d="M3654 2415 c0 -49 1 -71 3 -48 2 23 2 64 0 90 -2 26 -3 8 -3 -42z"/>
<path d="M3055 2455 c0 -18 3 -31 8 -28 4 2 7 15 7 28 0 13 -3 26 -7 28 -5 3
-8 -10 -8 -28z"/>
<path d="M3182 2453 l-2 -43 43 2 42 1 -37 4 c-34 4 -37 7 -41 41 l-4 37 -1
-42z"/>
<path d="M3561 2472 c0 -12 -8 -39 -16 -60 l-15 -37 20 25 c11 14 20 20 20 14
0 -5 7 -19 16 -30 14 -18 14 -17 3 6 -7 14 -16 43 -20 65 -3 22 -7 30 -8 17z"/>
<path d="M3738 2469 c-20 -11 -24 -44 -8 -54 6 -3 10 -17 10 -30 0 -17 -7 -25
-22 -28 -13 -2 13 -4 57 -4 44 0 70 2 58 4 -16 3 -23 11 -23 28 0 13 5 27 10
30 17 10 11 44 -9 55 -25 13 -51 12 -73 -1z m70 -8 c19 -12 11 -45 -11 -49
-33 -7 -67 7 -67 27 0 28 48 41 78 22z m-8 -81 c0 -15 -7 -20 -25 -20 -18 0
-25 5 -25 20 0 15 7 20 25 20 18 0 25 -5 25 -20z"/>
<path d="M3883 2425 c0 -27 2 -38 4 -22 2 15 2 37 0 50 -2 12 -4 0 -4 -28z"/>
<path d="M2990 2444 c0 -17 27 -37 42 -31 8 4 7 6 -4 6 -9 1 -22 9 -27 19 -6
9 -11 12 -11 6z"/>
<path d="M3360 2435 c-26 -32 13 -81 48 -59 34 22 22 74 -18 74 -10 0 -23 -7
-30 -15z m55 -25 c0 -18 -6 -26 -23 -28 -13 -2 -25 3 -28 12 -10 26 4 48 28
44 17 -2 23 -10 23 -28z"/>
<path d="M3011 2363 l-1 -33 53 2 52 2 -47 3 c-42 4 -47 7 -51 31 -4 24 -4 24
-6 -5z"/>
<path d="M3200 2375 c-9 -11 -10 -19 -3 -26 8 -8 11 -6 10 7 -2 14 7 20 33 25
l35 6 -31 2 c-18 0 -37 -6 -44 -14z"/>
<path d="M3283 2362 c1 -14 5 -18 11 -12 7 7 6 14 -1 21 -9 9 -12 7 -10 -9z"/>
<path d="M3233 2333 c9 -2 23 -2 30 0 6 3 -1 5 -18 5 -16 0 -22 -2 -12 -5z"/>
<path d="M2360 2125 c0 -18 -20 -19 -54 -4 -29 14 -56 -1 -55 -30 0 -11 3 -9
9 7 13 32 39 27 56 -10 9 -20 13 -24 10 -10 -3 17 0 22 15 22 14 0 19 -7 19
-25 0 -20 -5 -25 -24 -25 -13 0 -26 -7 -30 -15 -8 -22 -35 -18 -46 8 -8 17 -9
18 -7 3 4 -31 33 -43 55 -23 31 29 50 21 55 -20 2 -21 4 1 5 50 1 48 0 87 -3
87 -3 0 -5 -7 -5 -15z"/>
<path d="M2450 2133 c0 -6 -8 -14 -17 -16 -10 -3 2 -5 27 -5 25 0 36 3 25 5
-11 3 -23 10 -27 17 -6 8 -8 8 -8 -1z"/>
<path d="M2513 2090 c0 -30 2 -45 4 -33 2 12 12 24 21 26 16 4 16 5 0 6 -10 1
-18 12 -21 29 -2 15 -4 2 -4 -28z"/>
<path d="M2723 2055 c0 -49 2 -70 4 -45 3 24 10 48 16 52 9 6 9 8 0 8 -6 0
-14 17 -16 38 -2 20 -4 -3 -4 -53z"/>
<path d="M2943 2055 c1 -49 2 -69 4 -43 3 33 9 48 21 51 16 4 16 5 0 6 -12 1
-18 12 -21 39 -2 20 -4 -3 -4 -53z"/>
<path d="M3133 2075 c0 -38 2 -53 4 -32 2 20 2 52 0 70 -2 17 -4 1 -4 -38z"/>
<path d="M3303 2095 c0 -27 2 -38 4 -22 2 15 2 37 0 50 -2 12 -4 0 -4 -28z"/>
<path d="M3670 2116 c0 -18 -7 -26 -22 -29 -23 -4 -23 -4 -1 -6 17 -1 23 -9
26 -33 2 -18 5 -5 5 30 1 34 0 62 -3 62 -3 0 -5 -11 -5 -24z"/>
<path d="M4243 2055 c1 -49 2 -69 4 -43 3 33 9 48 21 51 16 4 16 5 0 6 -12 1
-18 12 -21 39 -2 20 -4 -3 -4 -53z"/>
<path d="M4351 2128 c-1 -10 -12 -18 -28 -21 -16 -2 -3 -4 27 -4 30 0 45 2 33
4 -12 2 -24 12 -26 21 -4 16 -5 16 -6 0z"/>
<path d="M4423 2055 c0 -49 2 -71 4 -48 3 29 9 43 21 46 16 4 16 5 0 6 -12 1
-18 12 -21 44 -2 23 -4 2 -4 -48z"/>
<path d="M2861 2105 c-1 -18 8 -41 22 -55 12 -14 18 -20 14 -13 -5 7 -15 32
-22 55 -13 39 -14 40 -14 13z"/>
<path d="M3028 2123 c28 -5 28 -23 1 -52 -12 -12 -19 -24 -17 -27 3 -2 13 5
23 16 l18 20 26 -22 25 -23 -22 29 c-28 37 -28 53 1 59 12 2 0 4 -28 4 -27 0
-40 -2 -27 -4z"/>
<path d="M3193 2123 c21 -6 21 -12 0 -43 -17 -25 -17 -25 4 -7 21 18 22 18 31
0 10 -17 11 -17 18 0 6 17 7 17 27 0 20 -18 20 -18 2 10 -16 24 -16 30 -4 38
9 6 -5 8 -41 8 -30 -1 -47 -3 -37 -6z m55 -20 c-4 -22 -22 -20 -26 1 -2 10 3
16 13 16 10 0 15 -7 13 -17z"/>
<path d="M3391 2103 l-1 -33 53 2 52 2 -47 3 c-42 4 -47 7 -51 31 -4 24 -4 24
-6 -5z"/>
<path d="M3578 2123 c17 -2 32 -9 32 -16 0 -6 -15 -27 -32 -46 l-33 -34 32 21
c17 12 36 35 41 52 l11 30 -42 -2 c-37 -1 -38 -2 -9 -5z"/>
<path d="M3783 2123 c9 -2 23 -2 30 0 6 3 -1 5 -18 5 -16 0 -22 -2 -12 -5z"/>
<path d="M3979 2123 c13 -3 37 -13 55 -24 17 -10 36 -19 41 -19 6 1 -3 8 -20
17 l-30 17 30 7 c21 5 10 7 -35 6 -36 0 -54 -2 -41 -4z"/>
<path d="M4178 2120 c18 -8 22 -17 22 -50 0 -33 -4 -42 -22 -50 -14 -5 -17 -9
-7 -9 24 -1 39 20 39 59 0 39 -15 60 -39 59 -10 0 -7 -4 7 -9z"/>
<path d="M4511 2103 l-1 -33 53 2 52 2 -47 3 c-42 4 -47 7 -51 31 -4 24 -4 24
-6 -5z"/>
<path d="M2638 2113 l44 -4 -4 -39 c-2 -21 0 -36 4 -34 5 3 8 23 8 45 l0 39
-47 -2 -48 -1 43 -4z"/>
<path d="M3744 2109 c-3 -6 -2 -15 3 -20 5 -5 9 -1 9 11 0 23 -2 24 -12 9z"/>
<path d="M3834 2100 c0 -13 4 -16 10 -10 7 7 7 13 0 20 -6 6 -10 3 -10 -10z"/>
<path d="M4136 2104 c-8 -21 -7 -56 2 -71 4 -6 7 11 7 38 0 27 -1 49 -1 49 -1
0 -5 -7 -8 -16z"/>
<path d="M3990 2100 c-9 -6 -10 -10 -3 -10 6 0 15 5 18 10 8 12 4 12 -15 0z"/>
<path d="M2430 2085 c-10 -12 -10 -18 0 -30 20 -25 55 -15 55 15 0 30 -35 40
-55 15z m50 -15 c0 -13 -7 -20 -19 -20 -22 0 -35 15 -26 30 12 19 45 11 45
-10z"/>
<path d="M4010 2083 c0 -6 -17 -14 -37 -16 -21 -2 0 -4 47 -4 47 0 67 2 45 4
-22 3 -43 10 -47 16 -6 9 -8 9 -8 0z"/>
<path d="M4358 2080 c12 -5 22 -18 22 -30 0 -12 -10 -25 -22 -30 -18 -8 -19
-9 -4 -7 28 3 44 33 30 55 -6 9 -20 18 -30 19 -15 2 -14 1 4 -7z"/>
<path d="M3783 2073 c9 -2 23 -2 30 0 6 3 -1 5 -18 5 -16 0 -22 -2 -12 -5z"/>
<path d="M4314 2066 c-3 -8 -1 -22 4 -32 7 -13 9 -10 8 15 -1 34 -4 38 -12 17z"/>
<path d="M2632 2043 c-2 -24 -7 -33 -24 -36 -13 -2 4 -4 37 -4 33 0 46 2 28 4
-27 4 -32 9 -36 36 l-4 32 -1 -32z"/>
<path d="M2835 2034 c-9 -15 -12 -23 -6 -20 11 7 35 46 28 46 -3 0 -12 -12
-22 -26z"/>
<path d="M3758 2053 c23 -2 59 -2 80 0 20 2 1 4 -43 4 -44 0 -61 -2 -37 -4z"/>
<path d="M3398 2043 c23 -2 59 -2 80 0 20 2 1 4 -43 4 -44 0 -61 -2 -37 -4z"/>
<path d="M3985 2039 c-22 -5 -13 -7 33 -8 34 0 62 1 62 3 0 8 -66 11 -95 5z"/>
<path d="M4518 2043 c23 -2 61 -2 85 0 23 2 4 4 -43 4 -47 0 -66 -2 -42 -4z"/>
<path d="M3252 2033 c44 -4 47 -6 51 -36 4 -31 4 -31 5 6 l2 37 -52 -2 -53 -2
47 -3z"/>
<path d="M3615 2021 c-3 -12 -18 -28 -33 -36 -15 -8 -22 -14 -16 -15 7 0 22 8
35 19 22 17 25 17 49 3 l25 -16 -25 30 c-14 16 -26 30 -27 32 0 2 -4 -6 -8
-17z"/>
<path d="M3788 2033 c66 -5 68 -23 2 -23 -43 0 -50 -3 -50 -20 0 -18 6 -20 58
-18 l57 2 -52 3 c-67 5 -69 23 -3 23 43 0 50 3 50 20 0 18 -6 20 -57 18 l-58
-2 53 -3z"/>
<path d="M2483 2023 c9 -2 25 -2 35 0 9 3 1 5 -18 5 -19 0 -27 -2 -17 -5z"/>
<path d="M3031 2003 l-1 -33 58 2 57 2 -52 3 c-47 4 -52 6 -56 31 -4 25 -4 24
-6 -5z"/>
<path d="M2452 2000 c0 -14 2 -19 5 -12 2 6 2 18 0 25 -3 6 -5 1 -5 -13z"/>
<path d="M2542 2000 c0 -14 2 -19 5 -12 2 6 2 18 0 25 -3 6 -5 1 -5 -13z"/>
<path d="M3391 1998 c-1 -27 0 -28 52 -26 l52 2 -47 3 c-39 3 -47 8 -51 26 -4
18 -5 17 -6 -5z"/>
<path d="M3983 2013 c-18 -7 -16 -30 3 -37 45 -17 97 7 72 32 -12 12 -52 15
-75 5z m72 -18 c0 -12 -40 -19 -61 -11 -9 3 -12 11 -9 16 8 14 70 9 70 -5z"/>
<path d="M4511 1998 c-1 -27 0 -28 52 -26 l52 2 -47 3 c-39 3 -47 8 -51 26 -4
18 -5 17 -6 -5z"/>
<path d="M2483 1973 c9 -2 25 -2 35 0 9 3 1 5 -18 5 -19 0 -27 -2 -17 -5z"/>
<path d="M2164 1695 c0 -49 1 -71 3 -48 2 23 2 64 0 90 -2 26 -3 8 -3 -42z"/>
<path d="M2340 1750 c0 -37 -21 -40 -44 -5 -20 31 -40 32 -60 3 -21 -30 -20
-51 3 -79 16 -19 23 -22 37 -13 10 6 19 17 21 25 3 8 0 7 -7 -3 -27 -44 -74 8
-52 57 15 33 40 32 55 -3 8 -17 18 -26 29 -24 14 3 18 -6 21 -50 2 -37 4 -27
5 35 1 48 0 87 -3 87 -3 0 -5 -13 -5 -30z"/>
<path d="M3080 1755 c0 -30 -15 -33 -30 -5 -15 27 -48 25 -61 -4 -23 -49 36
-93 61 -46 16 29 28 24 33 -12 2 -18 5 -5 5 30 1 34 0 62 -3 62 -3 0 -5 -11
-5 -25z m-35 -14 c8 -26 -4 -51 -25 -51 -21 0 -33 25 -25 51 8 24 42 24 50 0z"/>
<path d="M3113 1715 c0 -38 2 -53 4 -32 2 20 2 52 0 70 -2 17 -4 1 -4 -38z"/>
<path d="M3483 1700 c0 -47 2 -68 4 -47 6 50 21 47 26 -5 2 -24 4 -2 4 47 0
50 -2 71 -4 48 -2 -24 -8 -43 -13 -43 -5 0 -11 19 -13 43 -2 23 -4 4 -4 -43z"/>
<path d="M3683 1735 c0 -27 2 -40 4 -28 2 12 12 24 21 26 16 4 16 5 0 6 -9 0
-19 11 -21 24 -2 12 -4 0 -4 -28z"/>
<path d="M3863 1695 c1 -49 2 -69 4 -43 3 33 9 48 21 51 16 4 16 5 0 6 -12 1
-18 12 -21 39 -2 20 -4 -3 -4 -53z"/>
<path d="M4040 1773 c0 -6 -15 -14 -32 -16 -18 -2 -4 -4 32 -4 36 0 54 2 40 4
-14 3 -28 10 -32 17 -6 8 -8 8 -8 -1z"/>
<path d="M4450 1761 c0 -12 -8 -21 -22 -24 -23 -4 -23 -4 -1 -6 16 -1 23 -9
26 -28 2 -16 5 -4 6 25 0 28 -1 52 -4 52 -3 0 -5 -9 -5 -19z"/>
<path d="M4530 1765 c-26 -32 13 -81 48 -59 34 22 22 74 -18 74 -10 0 -23 -7
-30 -15z m55 -25 c0 -18 -6 -26 -23 -28 -13 -2 -25 3 -28 12 -10 26 4 48 28
44 17 -2 23 -10 23 -28z"/>
<path d="M4633 1735 c0 -27 2 -38 4 -22 2 15 2 37 0 50 -2 12 -4 0 -4 -28z"/>
<path d="M4814 1695 c0 -49 1 -71 3 -48 2 23 2 64 0 90 -2 26 -3 8 -3 -42z"/>
<path d="M4983 1695 c1 -49 2 -69 4 -43 3 33 9 48 21 51 16 4 16 5 0 6 -12 1
-18 12 -21 39 -2 20 -4 -3 -4 -53z"/>
<path d="M1893 1763 c17 -3 27 -9 24 -17 -3 -6 3 -12 13 -12 10 0 16 6 13 12
-3 8 7 14 24 17 15 2 -1 4 -37 4 -36 0 -52 -2 -37 -4z"/>
<path d="M2052 1718 l-2 -58 48 2 47 1 -42 4 -42 4 -4 52 -3 52 -2 -57z"/>
<path d="M2688 1763 c66 -5 68 -23 2 -23 -43 0 -50 -3 -50 -20 0 -15 7 -20 25
-20 39 0 29 -18 -12 -23 -21 -2 -2 -4 42 -4 44 0 63 2 43 4 -44 5 -50 20 -10
26 15 2 3 5 -25 6 -67 1 -70 21 -3 21 43 0 50 3 50 20 0 18 -6 20 -57 18 l-58
-2 53 -3z"/>
<path d="M3571 1738 c-1 -38 -1 -38 39 -38 40 0 40 0 39 38 -1 20 -3 29 -6 20
-3 -12 -14 -18 -33 -18 -19 0 -30 6 -33 18 -3 9 -5 0 -6 -20z m69 -18 c0 -5
-13 -10 -30 -10 -16 0 -30 5 -30 10 0 6 14 10 30 10 17 0 30 -4 30 -10z"/>
<path d="M3768 1763 c27 -5 28 -28 2 -70 -11 -18 -16 -33 -12 -33 4 0 13 9 20
20 12 20 13 20 38 -7 l26 -28 -21 29 c-26 36 -28 83 -3 89 9 3 -3 5 -28 4 -25
0 -35 -2 -22 -4z"/>
<path d="M4180 1755 c-17 -21 4 -45 40 -45 15 0 33 7 40 15 17 21 -4 45 -40
45 -15 0 -33 -7 -40 -15z m75 -15 c0 -18 -52 -27 -67 -12 -17 17 2 33 35 30
20 -2 32 -8 32 -18z"/>
<path d="M4348 1763 c28 -5 28 -13 0 -49 l-22 -29 25 22 c24 22 26 22 44 5 19
-17 19 -16 2 4 -23 28 -21 42 6 47 12 2 0 4 -28 4 -27 0 -40 -2 -27 -4z"/>
<path d="M4702 1718 l-2 -58 48 2 47 1 -42 4 -42 4 -4 52 -3 52 -2 -57z"/>
<path d="M4880 1715 l0 -55 43 2 42 1 -37 4 c-38 4 -38 5 -38 48 0 42 1 44 33
48 31 4 31 4 -5 5 l-38 2 0 -55z"/>
<path d="M2478 1753 c17 -2 47 -2 65 0 17 2 3 4 -33 4 -36 0 -50 -2 -32 -4z"/>
<path d="M2820 1720 l0 -40 58 2 57 2 -52 3 c-70 5 -74 30 -5 36 l47 3 -47 2
c-65 3 -61 20 5 25 l52 3 -57 2 -58 2 0 -40z"/>
<path d="M3180 1720 l0 -40 58 2 57 2 -52 3 c-51 4 -53 5 -53 33 0 27 3 29 48
33 l47 3 -52 2 -53 2 0 -40z"/>
<path d="M3413 1753 c15 -2 27 -9 27 -14 0 -17 -30 -69 -40 -69 -6 0 -10 -5
-10 -11 0 -17 29 10 46 42 23 45 18 59 -18 58 -31 -2 -31 -2 -5 -6z"/>
<path d="M2481 1718 c0 -16 -8 -28 -18 -31 -10 -3 14 -5 52 -5 39 0 62 2 53 5
-9 2 -19 16 -21 31 l-4 27 -2 -27 c-1 -23 -6 -28 -25 -28 -19 0 -26 6 -29 28
l-4 27 -2 -27z"/>
<path d="M4023 1733 c9 -2 25 -2 35 0 9 3 1 5 -18 5 -19 0 -27 -2 -17 -5z"/>
<path d="M4023 1703 c31 -8 18 -22 -25 -26 -24 -2 -5 -4 42 -4 47 0 68 2 48 4
-38 4 -50 17 -25 26 6 3 -4 5 -23 5 -19 0 -27 -2 -17 -5z"/>
<path d="M1887 1683 c40 -4 42 -6 46 -41 l4 -37 1 37 c2 35 4 37 40 41 20 2
-1 4 -48 4 -47 0 -66 -2 -43 -4z"/>
<path d="M4167 1683 c23 -3 33 -10 36 -26 l4 -22 2 23 c0 12 7 22 15 22 8 0
17 -10 19 -22 4 -23 4 -23 6 -1 1 16 9 23 29 26 15 2 -11 4 -58 4 -47 0 -71
-2 -53 -4z"/>
<path d="M3633 1673 c60 -5 62 -23 2 -23 -38 0 -45 -3 -45 -20 0 -18 6 -20 58
-18 l57 2 -52 3 c-65 5 -71 23 -8 23 38 0 45 3 45 20 0 18 -6 20 -52 18 l-53
-2 48 -3z"/>
<path d="M4369 1664 c-18 -22 0 -48 35 -52 32 -4 56 13 56 38 0 32 -67 42 -91
14z m76 -19 c0 -15 -8 -21 -29 -23 -33 -4 -51 10 -42 33 9 25 71 16 71 -10z"/>
<path d="M4541 1648 l-1 -38 50 0 50 0 -1 38 c-1 20 -3 29 -6 20 -3 -13 -15
-18 -43 -18 -28 0 -40 5 -43 18 -3 9 -5 0 -6 -20z m89 -18 c0 -5 -18 -10 -40
-10 -22 0 -40 5 -40 10 0 6 18 10 40 10 22 0 40 -4 40 -10z"/>
<path d="M2641 1638 c-1 -28 0 -28 57 -26 l57 2 -52 3 c-44 3 -52 7 -56 26 -4
18 -5 17 -6 -5z"/>
<path d="M3011 1638 c-1 -28 0 -28 57 -26 l57 2 -52 3 c-44 3 -52 7 -56 26 -4
18 -5 17 -6 -5z"/>
<path d="M4023 1653 c9 -2 25 -2 35 0 9 3 1 5 -18 5 -19 0 -27 -2 -17 -5z"/>
<path d="M4171 1638 c-1 -28 0 -28 57 -26 l57 2 -52 3 c-44 3 -52 7 -56 26 -4
18 -5 17 -6 -5z"/>
<path d="M3991 1634 c0 -11 3 -14 6 -6 3 7 2 16 -1 19 -3 4 -6 -2 -5 -13z"/>
<path d="M4081 1634 c0 -11 3 -14 6 -6 3 7 2 16 -1 19 -3 4 -6 -2 -5 -13z"/>
<path d="M2478 1633 c23 -2 59 -2 80 0 20 2 1 4 -43 4 -44 0 -61 -2 -37 -4z"/>
<path d="M2838 1633 c23 -2 59 -2 80 0 20 2 1 4 -43 4 -44 0 -61 -2 -37 -4z"/>
<path d="M3198 1633 c23 -2 59 -2 80 0 20 2 1 4 -43 4 -44 0 -61 -2 -37 -4z"/>
<path d="M4023 1613 c9 -2 25 -2 35 0 9 3 1 5 -18 5 -19 0 -27 -2 -17 -5z"/>
<path d="M2995 1355 c-23 -22 -25 -32 -25 -115 0 -83 2 -93 25 -115 l24 -25
416 0 416 0 24 25 c23 22 25 32 25 115 0 83 -2 93 -25 115 l-24 25 -416 0
-416 0 -24 -25z m93 -80 c4 -20 3 -20 -11 -1 -20 28 -47 14 -47 -24 0 -38 27
-52 47 -24 14 19 15 19 11 -1 -5 -31 -56 -33 -67 -3 -4 13 -7 29 -5 36 13 41
15 43 41 40 19 -2 29 -10 31 -23z m90 13 c17 -17 15 -63 -2 -78 -8 -6 -25 -10
-38 -8 -18 2 -24 10 -26 36 -2 19 -1 40 2 48 7 17 48 18 64 2z m67 -25 l25
-38 0 38 0 37 58 -1 c31 -1 47 -4 35 -6 -20 -4 -23 -11 -25 -51 l-2 -47 -3 48
c-3 39 -8 47 -24 47 -16 0 -19 -7 -19 -45 0 -25 -4 -45 -10 -45 -5 0 -20 16
-34 36 l-25 37 -4 -39 c-3 -34 -4 -32 -5 14 -1 28 0 52 3 52 2 0 16 -17 30
-37z m198 -18 c9 -25 12 -45 6 -45 -5 0 -9 7 -9 15 0 9 -9 15 -25 15 -16 0
-25 -6 -25 -15 0 -8 -4 -15 -10 -15 -8 0 10 66 25 91 10 16 22 1 38 -46z m95
30 c4 -20 3 -20 -11 -1 -20 27 -47 14 -47 -23 0 -36 28 -50 48 -24 13 17 14
17 10 -2 -5 -31 -56 -33 -67 -3 -4 13 -7 29 -5 36 13 41 15 43 41 40 19 -2 29
-10 31 -23z m80 18 c-14 -3 -18 -15 -18 -49 0 -24 -4 -44 -10 -44 -5 0 -10 20
-10 44 0 34 -4 46 -17 49 -10 3 2 5 27 5 25 0 37 -2 28 -5z m83 -28 c7 -19 16
-35 20 -35 4 0 13 16 19 35 17 51 30 43 29 -17 -1 -47 -2 -49 -8 -18 l-6 35
-14 -32 c-7 -18 -17 -33 -21 -33 -4 0 -14 17 -23 38 l-15 37 5 -37 c4 -25 2
-38 -6 -38 -7 0 -11 19 -11 50 0 58 13 65 31 15z m137 28 c-16 -2 -28 -11 -28
-19 0 -8 11 -15 28 -15 l27 -2 -27 -4 c-19 -3 -28 -10 -28 -23 0 -13 9 -20 28
-23 21 -4 19 -4 -7 -3 -32 1 -35 4 -39 35 -5 49 3 61 40 60 30 -2 31 -2 6 -6z"/>
<path d="M3132 1278 c-21 -21 -7 -68 20 -68 17 0 29 40 18 60 -12 23 -21 25
-38 8z"/>
<path d="M3406 1265 c-9 -23 -8 -25 9 -25 17 0 19 9 6 28 -7 11 -10 10 -15 -3z"/>
<path d="M6190 243 c8 -3 19 -11 23 -17 6 -7 7 -6 4 4 -2 8 -12 16 -23 17 -13
2 -15 1 -4 -4z"/>
<path d="M6257 243 c-3 -5 5 -8 18 -8 13 0 21 3 18 8 -2 4 -10 7 -18 7 -8 0
-16 -3 -18 -7z"/>
<path d="M6350 243 c8 -3 19 -11 23 -17 6 -7 7 -6 4 4 -2 8 -12 16 -23 17 -13
2 -15 1 -4 -4z"/>
<path d="M6430 243 c8 -3 19 -11 23 -17 6 -7 7 -6 4 4 -2 8 -12 16 -23 17 -13
2 -15 1 -4 -4z"/>
<path d="M6607 243 c-3 -5 5 -8 18 -8 13 0 21 3 18 8 -2 4 -10 7 -18 7 -8 0
-16 -3 -18 -7z"/>
<path d="M5437 223 c-3 -5 5 -8 18 -8 13 0 21 3 18 8 -2 4 -10 7 -18 7 -8 0
-16 -3 -18 -7z"/>
<path d="M5515 220 c-8 -13 3 -30 18 -29 9 0 9 2 0 6 -21 8 -15 26 7 20 11 -3
18 -1 14 4 -7 12 -31 11 -39 -1z"/>
<path d="M5578 223 c6 -2 18 -2 25 0 6 3 1 5 -13 5 -14 0 -19 -2 -12 -5z"/>
<path d="M5662 200 c0 -19 2 -27 5 -17 2 9 2 25 0 35 -3 9 -5 1 -5 -18z"/>
<path d="M5743 175 c0 -33 2 -45 4 -27 2 18 2 45 0 60 -2 15 -4 0 -4 -33z"/>
<path d="M5838 223 c7 -3 16 -2 19 1 4 3 -2 6 -13 5 -11 0 -14 -3 -6 -6z"/>
<path d="M5906 221 c-4 -5 3 -7 14 -4 23 6 26 13 6 13 -8 0 -17 -4 -20 -9z"/>
<path d="M5978 223 c6 -2 18 -2 25 0 6 3 1 5 -13 5 -14 0 -19 -2 -12 -5z"/>
<path d="M6048 223 c7 -3 16 -2 19 1 4 3 -2 6 -13 5 -11 0 -14 -3 -6 -6z"/>
<path d="M6823 190 c0 -25 2 -35 4 -22 2 12 2 32 0 45 -2 12 -4 2 -4 -23z"/>
<path d="M6241 204 c0 -11 3 -14 6 -6 3 7 2 16 -1 19 -3 4 -6 -2 -5 -13z"/>
<path d="M5792 190 c0 -14 2 -19 5 -12 2 6 2 18 0 25 -3 6 -5 1 -5 -13z"/>
<path d="M6420 206 c0 -2 9 -6 20 -9 11 -3 18 -1 14 4 -5 9 -34 13 -34 5z"/>
<path d="M5436 191 c-3 -4 6 -6 19 -3 14 2 25 6 25 8 0 8 -39 4 -44 -5z"/>
<path d="M5906 191 c-3 -4 6 -6 19 -3 14 2 25 6 25 8 0 8 -39 4 -44 -5z"/>
<path d="M6020 187 c0 -18 21 -37 40 -36 9 0 6 4 -7 9 -31 13 -29 28 5 33 25
4 25 4 -5 6 -21 0 -33 -4 -33 -12z"/>
<path d="M5437 158 c2 -5 10 -8 18 -8 8 0 16 3 18 8 3 4 -5 7 -18 7 -13 0 -21
-3 -18 -7z"/>
<path d="M5517 158 c2 -5 10 -8 18 -8 8 0 16 3 18 8 3 4 -5 7 -18 7 -13 0 -21
-3 -18 -7z"/>
<path d="M5685 160 c-13 -6 -15 -9 -5 -9 8 0 22 4 30 9 18 12 2 12 -25 0z"/>
<path d="M5907 158 c2 -5 10 -8 18 -8 8 0 16 3 18 8 3 4 -5 7 -18 7 -13 0 -21
-3 -18 -7z"/>
<path d="M6257 158 c2 -5 10 -8 18 -8 8 0 16 3 18 8 3 4 -5 7 -18 7 -13 0 -21
-3 -18 -7z"/>
<path d="M6435 160 c-16 -7 -17 -9 -3 -9 9 -1 20 4 23 9 7 11 7 11 -20 0z"/>
<path d="M6607 158 c2 -5 10 -8 18 -8 8 0 16 3 18 8 3 4 -5 7 -18 7 -13 0 -21
-3 -18 -7z"/>
<path d="M5373 153 c9 -2 23 -2 30 0 6 3 -1 5 -18 5 -16 0 -22 -2 -12 -5z"/>
<path d="M5838 153 c7 -3 16 -2 19 1 4 3 -2 6 -13 5 -11 0 -14 -3 -6 -6z"/>
<path d="M6183 153 c9 -2 23 -2 30 0 6 3 -1 5 -18 5 -16 0 -22 -2 -12 -5z"/>
<path d="M6343 153 c9 -2 23 -2 30 0 6 3 -1 5 -18 5 -16 0 -22 -2 -12 -5z"/>
<path d="M6723 153 c9 -2 25 -2 35 0 9 3 1 5 -18 5 -19 0 -27 -2 -17 -5z"/>
</g>
</svg>
