<svg version="1.1" id="Layer_1" xmlns="http://www.w3.org/2000/svg" xmlns:xlink="http://www.w3.org/1999/xlink" x="0px" y="0px"
	 width="100%" viewBox="0 0 450 448" enable-background="new 0 0 450 448" xml:space="preserve">
<path fill="#FFFFFF" opacity="1.000000" stroke="none" 
	d="
M450.833801,1.832849 
	C451.000000,149.453018 450.987274,296.906036 451.077698,444.358978 
	C451.079834,447.850525 450.706116,449.117188 446.643738,449.113464 
	C299.524078,448.978302 152.404221,448.985260 5.284508,449.089081 
	C1.776730,449.091553 0.892448,448.490814 0.895533,444.787048 
	C1.018221,297.500671 1.000000,150.214218 1.000000,2.463884 
	C1.221258,1.776818 1.443159,1.554276 1.832851,1.166188 
	C151.024078,1.000000 300.048157,1.000000 449.536133,1.000000 
	C450.223175,1.221257 450.445709,1.443157 450.833801,1.832849 
z"/>
<path fill="#F5F5F5" opacity="1.000000" stroke="none" 
	d="
M451.000000,1.500000 
	C450.672028,1.906225 450.409424,1.720210 450.106079,1.220978 
	C450.333344,1.000000 450.666656,1.000000 451.000000,1.500000 
z"/>
<path fill="#F5F5F5" opacity="1.000000" stroke="none" 
	d="
M1.500000,1.000000 
	C1.902845,1.325732 1.717213,1.589093 1.221553,1.895042 
	C1.000000,1.666667 1.000000,1.333333 1.500000,1.000000 
z"/>
<path fill="#2F921C" opacity="1.000000" stroke="none" 
	d="
M214.649323,131.091003 
	C224.064453,131.205856 233.080994,131.284698 242.551178,131.231079 
	C244.473801,129.611374 246.330704,129.677124 248.154755,129.952057 
	C252.048981,130.539032 253.214569,128.634384 253.037064,125.082329 
	C252.895920,122.257591 252.898315,119.413719 253.066788,116.586197 
	C253.244690,113.600281 254.780991,112.663979 257.386505,114.244377 
	C260.511475,116.139832 263.537262,118.202217 265.824432,121.658447 
	C266.295502,122.398468 266.611084,122.768585 267.178223,123.167465 
	C268.372009,123.315369 268.902740,124.037651 269.700592,124.899864 
	C269.876068,125.174072 269.962250,125.050774 269.900085,125.093124 
	C271.053009,125.567993 272.069122,126.234100 272.813965,127.696945 
	C273.037109,127.913277 273.019409,127.987022 273.054810,127.973434 
	C273.780121,128.790054 274.966919,128.922607 275.749847,130.072601 
	C275.883881,130.702026 276.052216,130.927475 276.585571,131.058350 
	C277.111969,131.229523 277.390717,131.425522 277.806213,131.857437 
	C277.969452,132.055664 277.998657,132.001205 277.972046,132.016922 
	C278.201447,132.216080 278.432007,132.427353 278.822784,132.810287 
	C279.369873,133.324402 279.731232,133.694702 280.358246,134.107422 
	C287.142548,138.340683 293.079620,143.249390 298.719910,149.021332 
	C298.772949,149.677017 298.685638,150.008987 298.619843,150.600342 
	C298.042175,152.617981 296.409210,153.411667 294.854279,154.539429 
	C294.611725,154.666855 294.688629,154.831100 294.635986,154.756042 
	C293.676392,157.569656 290.880890,158.300690 288.260010,159.764877 
	C287.980743,159.961853 287.991943,159.994476 287.976593,159.986420 
	C286.868530,162.382462 284.796204,163.623825 282.205688,164.760559 
	C281.921204,164.933319 281.984100,164.998886 281.967957,164.956451 
	C281.761719,165.194366 281.541870,165.449036 281.066711,165.793121 
	C280.841095,165.908173 280.944519,165.934830 280.914856,165.890411 
	C277.699097,169.827942 273.954956,173.155640 269.131042,175.715057 
	C268.808167,175.834137 268.952881,175.923676 268.899414,175.857483 
	C266.115051,180.115143 261.906799,182.935760 258.095520,186.115814 
	C255.125000,188.594330 253.292801,187.743713 252.771271,183.894119 
	C252.346268,180.756943 252.618881,177.576691 252.570236,174.416367 
	C252.529037,171.740021 251.302872,170.437027 248.614151,170.447174 
	C238.464432,170.485474 228.274490,169.765488 218.174454,170.721863 
	C203.317612,172.128647 195.012177,183.300568 197.959351,196.916428 
	C199.390320,203.527405 204.219009,207.360535 209.276276,210.908432 
	C214.052002,214.258820 219.310303,216.805328 224.728104,219.000793 
	C227.506027,220.126495 230.261017,221.339600 232.520172,223.387085 
	C234.503708,225.184799 235.609314,227.362961 234.739166,230.072250 
	C233.871796,232.772903 231.539597,233.231262 229.124100,233.328186 
	C224.632996,233.508316 220.137787,233.404144 215.644501,233.402100 
	C203.336624,233.396500 191.027130,233.537201 178.724396,233.000748 
	C176.895432,232.920990 175.024002,233.116119 173.315399,231.278793 
	C172.572540,230.598480 172.139084,230.203995 171.410645,229.753128 
	C162.649460,225.702469 158.168701,218.114471 154.463104,210.209244 
	C151.917465,204.778564 149.025528,199.115707 150.672729,192.319733 
	C150.939804,191.246246 150.990784,190.493484 150.954773,189.371185 
	C150.159882,187.985001 149.952637,186.904449 150.680908,185.367126 
	C151.055359,183.953094 151.199570,182.905777 151.276672,181.465851 
	C151.458069,170.449966 155.276672,161.301147 162.871094,153.357178 
	C163.179581,153.130005 163.087601,153.093857 163.097717,153.142212 
	C163.227371,152.855743 163.424942,152.576065 163.913666,152.199310 
	C165.350677,150.923767 166.574600,149.800446 167.916412,148.385712 
	C168.241119,147.826263 168.462952,147.571167 168.916000,147.197845 
	C169.134369,147.068512 169.052231,147.049454 169.058319,147.091171 
	C169.239838,146.818497 169.463135,146.542877 169.992249,146.232910 
	C170.250351,146.159943 170.140854,146.149551 170.166595,146.198151 
	C173.346863,141.641510 178.280304,139.317673 183.091736,137.410751 
	C193.038269,133.468643 203.195999,129.865570 214.649323,131.091003 
z"/>
<path fill="#F8C106" opacity="1.000000" stroke="none" 
	d="
M255.378098,286.960388 
	C254.527039,286.944977 254.071426,286.936432 253.292358,287.048218 
	C248.716568,288.787262 244.304657,289.067749 239.791641,289.030304 
	C228.210983,288.934235 216.628922,288.985870 205.047409,289.043182 
	C200.230560,289.067017 198.593826,290.654480 198.480865,295.597961 
	C198.431671,297.750610 198.581894,299.910156 198.390564,302.055695 
	C198.245392,303.683868 198.241180,305.553375 196.388062,306.265839 
	C194.709473,306.911285 193.653229,305.524963 192.539780,304.568481 
	C191.662659,303.815002 190.595078,303.292664 189.672836,301.951721 
	C189.479248,301.542969 189.354263,301.827576 189.389130,301.676117 
	C180.652466,295.849396 173.236099,288.476532 165.087234,282.019806 
	C161.855331,279.459045 158.628235,276.866150 155.510925,274.147766 
	C151.504593,270.654114 151.342209,268.943817 155.483307,265.513580 
	C158.791336,262.773407 162.006561,259.885895 166.027985,257.501526 
	C166.368179,257.385956 166.246338,257.006317 166.315826,257.195587 
	C170.246536,252.332397 175.739639,249.205048 180.916138,245.180664 
	C181.489563,245.022614 181.711533,244.929016 181.993835,244.590851 
	C182.556824,243.072433 183.758331,242.372162 185.085114,241.466614 
	C185.422470,241.452072 185.428726,241.201172 185.455093,241.323853 
	C187.309174,238.056992 190.580017,236.250229 193.615250,234.262405 
	C196.118393,232.623062 197.716187,233.727158 198.167267,236.531967 
	C198.619278,239.342484 198.457977,242.191376 198.392136,245.016953 
	C198.319504,248.135330 199.555740,249.613846 202.785141,249.593201 
	C213.283539,249.526154 223.794022,249.919525 234.278244,249.442123 
	C244.773514,248.964188 252.791168,243.041702 254.945358,234.899536 
	C257.710602,224.447723 253.946671,215.120789 244.452911,209.071198 
	C238.250092,205.118683 231.324692,202.540573 224.941040,198.938889 
	C221.546524,197.023697 216.914978,195.433975 218.271164,190.301743 
	C219.617172,185.208008 224.444397,186.600677 228.025436,186.671509 
	C236.993164,186.848892 245.954315,186.570084 254.949112,187.113632 
	C260.598969,187.455063 266.498474,186.902512 272.305237,186.906540 
	C277.107666,186.909866 280.646667,188.673386 283.709442,192.697571 
	C284.175171,193.290924 284.353760,193.575180 284.783447,193.923920 
	C293.083557,200.288773 298.847565,208.089966 300.992432,218.637024 
	C301.005585,219.454620 301.011627,219.908218 301.160065,220.674408 
	C304.324738,227.739624 303.179413,234.703079 302.032471,241.552368 
	C300.350677,251.595947 296.111908,260.727081 289.431915,268.291565 
	C280.525787,278.376923 269.206848,284.731659 255.378098,286.960388 
z"/>
<path fill="#FAFDF4" opacity="1.000000" stroke="none" 
	d="
M284.009460,192.619186 
	C277.763031,187.431732 270.214600,187.576309 262.500854,187.723557 
	C249.688538,187.968124 236.868378,187.784744 224.051804,187.843994 
	C221.953003,187.853699 219.453232,187.523911 218.813400,190.442566 
	C218.253113,192.998383 219.776291,194.488907 221.850647,195.571487 
	C229.219360,199.417175 236.714737,203.040848 243.928757,207.157593 
	C255.961090,214.023911 260.179993,225.660217 255.388306,237.733353 
	C252.001389,246.267029 244.631790,249.478302 236.516296,250.512787 
	C224.447540,252.051163 212.235519,250.851608 200.088425,251.121887 
	C197.961075,251.169220 197.137619,250.099808 197.171204,248.039291 
	C197.230911,244.377258 197.202332,240.713364 197.170456,237.050583 
	C197.162109,236.091370 197.463898,234.888580 196.501999,234.305649 
	C195.120117,233.468201 194.471130,234.946808 193.620255,235.583603 
	C191.094437,237.473846 188.623688,239.437668 185.806427,241.409637 
	C185.158875,239.190018 182.975845,239.205154 181.504486,238.339600 
	C181.677338,236.367355 185.164795,237.067307 184.418381,235.018204 
	C183.706451,233.063766 181.505997,234.303452 179.988739,234.008545 
	C177.600189,233.544373 174.497009,235.302597 173.053223,231.384888 
	C180.649338,233.457809 188.521988,231.955643 196.277328,232.192688 
	C206.924286,232.518127 217.590988,232.243607 228.248428,232.141785 
	C230.462891,232.120621 233.232925,232.810074 234.122650,229.730042 
	C235.066620,226.462265 232.814865,224.770203 230.384003,223.490799 
	C223.173218,219.695648 215.749786,216.279236 208.697800,212.214539 
	C201.117233,207.845184 196.003296,201.636993 195.874390,192.221771 
	C195.723633,181.212418 202.186127,172.374588 212.983505,170.094589 
	C225.656769,167.418457 238.552475,169.241501 251.342194,168.817444 
	C254.089783,168.726349 253.907364,170.825760 253.908630,172.681274 
	C253.911774,177.269531 253.909637,181.857788 253.909637,187.604065 
	C259.314026,183.175751 263.744629,179.545364 268.510590,175.853134 
	C269.967224,177.130356 265.051117,181.174927 270.999634,180.481537 
	C272.024719,180.362045 271.561371,181.696243 271.095673,182.370911 
	C268.890686,185.565384 270.834320,186.036133 273.484009,185.979294 
	C274.798615,185.951096 276.130219,185.911362 277.420380,185.684647 
	C283.512360,184.614197 285.334564,186.397339 284.009460,192.619186 
z"/>
<path fill="#FAFDF4" opacity="1.000000" stroke="none" 
	d="
M255.239868,287.248657 
	C260.894409,284.348877 267.282959,283.002502 273.006683,279.861206 
	C293.907959,268.390137 304.406799,246.832352 301.224426,221.405029 
	C304.040558,221.413681 304.148529,223.478439 303.979553,225.536087 
	C303.457855,231.888885 305.543427,238.497177 302.119324,244.584000 
	C301.829803,245.098648 301.882629,245.933594 302.040070,246.552704 
	C304.264740,255.302628 300.857269,261.323303 293.259857,265.644012 
	C291.866394,266.436493 290.707764,268.424774 290.340668,270.062775 
	C289.730316,272.786530 288.627075,274.117584 285.711517,274.103546 
	C283.669250,274.093719 282.806580,275.624023 283.121124,277.564392 
	C283.583313,280.415222 285.479889,279.706329 287.641052,279.036255 
	C287.998901,279.749817 287.999054,280.500885 287.998383,281.627441 
	C287.575470,282.542786 286.988556,282.995026 286.351990,282.950775 
	C282.281982,282.667847 280.980408,284.767609 281.227814,288.734741 
	C279.891235,288.903900 278.186157,289.143951 278.237946,287.665741 
	C278.374786,283.757111 274.980774,283.804169 273.125488,282.143250 
	C271.141296,283.929688 274.996460,285.443024 273.093811,286.525787 
	C271.811859,287.255310 269.713562,287.402557 268.305267,286.899994 
	C263.866638,285.316040 259.846344,289.496094 255.239868,287.248657 
z"/>
<path fill="#FAFDF4" opacity="1.000000" stroke="none" 
	d="
M165.983658,257.238892 
	C163.502594,261.335999 159.290176,263.791718 155.632156,266.832642 
	C152.835983,269.157104 152.759750,270.546478 155.620438,272.858337 
	C166.331924,281.514801 176.886505,290.365479 187.488678,299.156921 
	C188.121918,299.682007 188.657059,300.325378 189.330933,301.219177 
	C187.159897,302.311157 185.690918,300.745789 183.801453,300.079193 
	C176.316772,297.438629 173.568695,288.618652 165.650894,286.902802 
	C165.201477,286.805420 164.500168,286.498596 164.438217,286.185822 
	C162.925858,278.549988 154.569031,277.372620 151.066208,271.924500 
	C149.421494,269.366364 149.902374,265.248077 150.032043,261.860199 
	C150.071152,260.838470 152.447250,260.575439 153.486343,261.609314 
	C156.019226,264.129456 156.515884,262.156860 157.553787,260.214264 
	C159.268921,257.004089 161.662430,254.885239 165.983658,257.238892 
z"/>
<path fill="#FAFDF4" opacity="1.000000" stroke="none" 
	d="
M189.347412,301.911713 
	C190.339417,302.001831 191.226288,302.417480 192.053864,302.929047 
	C193.512680,303.830841 194.503952,306.356018 196.449829,305.327209 
	C197.911560,304.554352 196.983398,302.286621 197.180191,300.693054 
	C197.220520,300.366547 197.188660,300.031067 197.189789,299.699738 
	C197.228653,288.281708 197.229813,288.393219 208.946991,288.271332 
	C223.340836,288.121613 237.772720,289.122620 252.540070,287.096252 
	C250.613495,289.642151 247.686325,290.075470 244.387573,290.055878 
	C231.200180,289.977539 218.011459,290.088501 204.823441,290.164795 
	C200.698959,290.188660 198.324356,296.904083 200.901031,301.310699 
	C201.477554,302.296661 202.275452,303.167480 203.052216,304.017456 
	C203.651031,304.672729 204.166412,305.362183 203.603470,306.173584 
	C202.904739,307.180664 202.164230,306.421051 201.503311,305.991821 
	C200.802078,305.536469 200.111374,304.972107 199.312943,305.745209 
	C198.102402,306.917358 197.153091,309.815979 195.303284,308.307159 
	C193.150208,306.550934 189.810669,305.682526 189.347412,301.911713 
z"/>
<path fill="#FAFDF4" opacity="1.000000" stroke="none" 
	d="
M150.545563,192.039612 
	C152.363922,207.150162 158.480515,219.804871 170.979660,229.398300 
	C170.249420,231.280014 169.543961,232.985870 168.462158,234.404800 
	C167.700165,235.404312 166.404816,236.381912 165.039749,235.269958 
	C163.494415,234.011124 164.479446,232.728165 165.602722,232.026840 
	C168.517166,230.207184 167.373810,229.439575 165.376785,227.462418 
	C159.968369,222.107758 155.174789,216.329102 152.529144,208.791687 
	C151.211349,205.037292 149.730728,201.177490 148.001297,197.503357 
	C146.764328,194.875443 147.412506,193.053528 150.545563,192.039612 
z"/>
<path fill="#FAFDF4" opacity="1.000000" stroke="none" 
	d="
M266.126709,121.711021 
	C263.363892,120.013489 260.769073,117.970200 258.121185,115.998108 
	C257.099731,115.237350 256.252014,113.574493 254.848602,114.143990 
	C253.071686,114.865067 254.012894,116.783592 253.936172,118.153030 
	C253.778183,120.973549 253.619400,123.839394 253.942459,126.630859 
	C254.425690,130.806259 252.589096,132.013992 248.789917,131.539597 
	C247.146652,131.334412 245.466583,131.423828 243.404022,131.239014 
	C243.606140,127.959023 246.120407,127.943810 248.420761,128.051163 
	C251.382080,128.189377 252.166229,126.809616 252.030136,124.144562 
	C251.886169,121.325287 252.075729,118.490410 251.985916,115.666603 
	C251.850708,111.416344 254.092377,111.313835 257.070862,112.744240 
	C258.855835,113.601440 260.657898,114.567558 262.158966,115.832733 
	C263.830353,117.241409 265.083984,118.391975 267.018799,116.153328 
	C267.850922,115.190552 269.472260,114.544762 270.385559,116.208908 
	C271.320648,117.912758 269.940643,118.611374 268.585510,118.962662 
	C267.248688,119.309212 266.876465,120.428123 266.126709,121.711021 
z"/>
<path fill="#FAFDF4" opacity="1.000000" stroke="none" 
	d="
M301.277649,218.764435 
	C297.476379,209.757050 292.681793,201.334946 285.137817,194.305908 
	C287.465851,193.277435 289.389587,196.887543 292.316803,194.604523 
	C293.160095,193.946808 294.129272,196.032928 293.064453,197.385254 
	C292.238586,198.434067 291.834229,199.491119 293.118927,200.349884 
	C294.457794,201.244873 295.299255,200.261993 295.878052,199.194962 
	C296.828369,197.443024 298.253143,196.533798 300.634003,196.323975 
	C300.109009,198.937790 299.223175,201.339981 298.771118,203.782318 
	C298.139832,207.193054 298.656738,209.328583 301.467102,211.326752 
	C304.525330,213.501144 301.619843,216.110092 301.277649,218.764435 
z"/>
<path fill="#FAFDF4" opacity="1.000000" stroke="none" 
	d="
M214.776047,130.807678 
	C207.858887,132.326904 200.531113,132.571854 193.463470,134.651428 
	C185.202148,137.082260 177.726990,140.952850 170.526688,146.165710 
	C170.324722,142.577301 172.904251,140.533417 175.734955,139.357178 
	C182.215149,136.664474 189.432510,135.353790 195.354889,131.815414 
	C201.946442,127.877243 208.132782,130.574478 214.776047,130.807678 
z"/>
<path fill="#FAFDF4" opacity="1.000000" stroke="none" 
	d="
M162.817963,153.115280 
	C157.455093,161.448273 152.862976,170.243622 151.435806,180.770477 
	C150.839783,180.554169 150.059250,179.927551 150.162720,179.532349 
	C151.428894,174.695969 150.313629,169.741699 150.986359,164.889297 
	C151.076233,164.241119 151.261368,163.029831 151.315491,163.034744 
	C157.801773,163.624619 155.818619,155.616287 160.294266,154.205643 
	C161.055435,153.965729 161.737640,153.475250 162.817963,153.115280 
z"/>
<path fill="#FCF7D5" opacity="1.000000" stroke="none" 
	d="
M281.434418,288.997253 
	C281.994904,286.684448 277.860107,284.929993 280.029327,282.821014 
	C281.923645,280.979309 284.738434,282.278992 287.562195,282.001404 
	C289.477753,282.031433 290.999695,281.797546 292.681152,282.843567 
	C294.528809,284.719116 294.786041,286.363861 292.359589,287.964294 
	C291.269318,288.070343 290.522339,288.067780 289.402374,288.085938 
	C288.589508,288.469391 288.135712,288.807831 287.283142,288.970276 
	C285.287384,288.997253 283.574799,288.998322 281.434418,288.997253 
z"/>
<path fill="#FAFDF4" opacity="1.000000" stroke="none" 
	d="
M180.824966,245.009277 
	C177.071747,249.771606 171.933777,253.380157 166.712128,257.327698 
	C165.194595,253.485458 167.605026,249.834091 171.649719,249.802155 
	C173.485443,249.787659 174.361832,248.974472 173.858932,247.549149 
	C171.733429,241.524902 175.284882,243.668457 178.031967,244.499039 
	C178.806595,244.733246 179.622589,244.830643 180.824966,245.009277 
z"/>
<path fill="#FAFDF4" opacity="1.000000" stroke="none" 
	d="
M298.898438,148.962814 
	C292.444702,145.027985 286.886536,139.655945 280.777252,134.461594 
	C283.345978,133.232422 284.961609,132.709167 286.786804,136.554581 
	C288.619293,140.415314 294.088226,141.810684 297.111176,145.390945 
	C297.958405,146.394409 299.194885,147.003647 298.898438,148.962814 
z"/>
<path fill="#FAFDF4" opacity="1.000000" stroke="none" 
	d="
M269.199646,175.887604 
	C272.611237,172.548492 276.414307,169.262848 280.551300,165.911591 
	C280.927185,168.213150 278.457703,170.071243 279.731140,172.825256 
	C280.191345,173.820480 278.438324,175.312546 277.511047,174.779160 
	C274.411896,172.996582 272.254791,175.907883 269.199646,175.887604 
z"/>
<path fill="#FAFDF4" opacity="1.000000" stroke="none" 
	d="
M166.552612,293.664795 
	C167.814835,296.702972 170.168137,298.234436 173.183029,299.874420 
	C170.086090,301.924683 168.572098,300.085815 167.042953,298.523804 
	C164.865601,296.299561 164.885345,296.280243 166.552612,293.664795 
z"/>
<path fill="#FAFDF4" opacity="1.000000" stroke="none" 
	d="
M288.390137,159.979492 
	C289.526550,157.733154 291.846954,156.368347 294.190613,154.596985 
	C295.457184,156.375992 292.728271,158.781845 295.356293,160.699142 
	C293.170715,160.465149 290.985138,160.231140 288.390137,159.979492 
z"/>
<path fill="#FAFDF4" opacity="1.000000" stroke="none" 
	d="
M282.313843,164.962311 
	C283.246399,162.799744 285.475769,161.680008 287.638153,160.050613 
	C288.220184,162.048538 288.479156,164.118744 288.777802,166.506332 
	C286.437683,166.668350 284.888428,164.302200 282.313843,164.962311 
z"/>
<path fill="#FAFDF4" opacity="1.000000" stroke="none" 
	d="
M288.000610,279.000610 
	C288.407471,277.956207 288.611053,276.756256 289.265198,275.900787 
	C290.375977,274.448090 291.873871,274.995300 293.229462,275.675873 
	C294.103302,276.114624 295.120667,276.642181 294.683197,277.843628 
	C294.078461,279.504364 292.511475,278.860199 291.301971,278.981598 
	C290.496002,279.062469 289.675476,278.997711 288.430115,278.998474 
	C287.998779,278.998779 288.000000,279.000000 288.000610,279.000610 
z"/>
<path fill="#FAFDF4" opacity="1.000000" stroke="none" 
	d="
M294.912262,154.632767 
	C295.177734,152.815781 296.914734,152.229645 298.338257,150.941467 
	C300.310944,151.132812 302.191498,151.601181 301.708099,153.702789 
	C301.178802,156.003937 299.374603,154.259583 298.118896,154.319733 
	C297.170929,154.365158 296.232422,154.607956 294.912262,154.632767 
z"/>
<path fill="#FAFDF4" opacity="1.000000" stroke="none" 
	d="
M201.827454,312.320129 
	C201.959244,314.762512 200.771011,315.247711 199.057281,314.720337 
	C198.153168,314.442108 197.918350,313.480133 198.327988,312.713684 
	C199.115967,311.239319 200.201813,310.392883 201.827454,312.320129 
z"/>
<path fill="#FAFDF4" opacity="1.000000" stroke="none" 
	d="
M292.239258,288.307983 
	C292.780579,286.683197 294.057983,285.412659 293.036469,283.302307 
	C295.916504,285.370941 295.759766,286.928894 292.239258,288.307983 
z"/>
<path fill="#FAFDF4" opacity="1.000000" stroke="none" 
	d="
M155.461426,222.386368 
	C156.776733,222.132751 157.902817,222.093185 157.473206,223.586243 
	C157.182220,224.597580 156.164673,225.170319 155.154190,224.745773 
	C153.718018,224.142395 154.479218,223.284729 155.461426,222.386368 
z"/>
<path fill="#FAFDF4" opacity="1.000000" stroke="none" 
	d="
M157.148392,282.635254 
	C155.719711,282.985352 154.500610,283.172363 154.208725,281.600739 
	C154.145416,281.259857 154.602371,280.486633 154.829117,280.482941 
	C156.141312,280.461243 157.435226,280.637573 157.148392,282.635254 
z"/>
<path fill="#FAFDF4" opacity="1.000000" stroke="none" 
	d="
M154.908813,150.951996 
	C153.927536,151.404297 152.996567,152.200928 152.539474,151.193665 
	C152.038803,150.090317 153.016296,149.374771 154.026291,149.212616 
	C155.183060,149.026855 156.022766,149.364304 154.908813,150.951996 
z"/>
<path fill="#FAFDF4" opacity="1.000000" stroke="none" 
	d="
M150.574890,185.063629 
	C150.961105,186.072281 151.011047,187.144135 150.964386,188.608826 
	C148.289978,188.094574 148.446106,186.743561 150.574890,185.063629 
z"/>
<path fill="#FAFDF4" opacity="1.000000" stroke="none" 
	d="
M182.980408,132.925568 
	C181.885468,132.679871 180.932953,132.400467 181.881683,131.425232 
	C182.455429,130.835480 183.487778,130.837326 184.063293,131.415161 
	C185.020935,132.376694 184.074966,132.669662 182.980408,132.925568 
z"/>
<path fill="#FAFDF4" opacity="1.000000" stroke="none" 
	d="
M208.850388,318.367432 
	C208.830902,319.418945 209.096634,320.466644 207.906479,320.407990 
	C207.151718,320.370789 207.041260,319.577209 207.108154,318.948975 
	C207.218674,317.911011 207.448318,316.922485 208.850388,318.367432 
z"/>
<path fill="#FAFDF4" opacity="1.000000" stroke="none" 
	d="
M185.038254,241.330383 
	C185.093674,242.922714 183.810501,243.486801 182.421509,244.349304 
	C182.010712,242.616730 182.530334,241.275620 185.038254,241.330383 
z"/>
<path fill="#FAFDF4" opacity="1.000000" stroke="none" 
	d="
M273.022949,127.538658 
	C272.036682,127.186447 271.036285,126.459618 269.936890,125.434128 
	C271.472473,124.908813 272.917755,124.978043 273.022949,127.538658 
z"/>
<path fill="#FAFDF4" opacity="1.000000" stroke="none" 
	d="
M301.012817,266.461426 
	C301.902283,266.963501 301.997955,267.589783 301.590454,268.197052 
	C301.256561,268.694611 300.715088,268.691681 300.393188,268.182343 
	C300.003601,267.565918 300.107727,266.941071 301.012817,266.461426 
z"/>
<path fill="#FAFDF4" opacity="1.000000" stroke="none" 
	d="
M275.871613,129.999710 
	C275.003906,129.765335 274.148407,129.161514 273.191528,128.258759 
	C274.308105,128.037170 275.655182,127.898476 275.871613,129.999710 
z"/>
<path fill="#FAFDF4" opacity="1.000000" stroke="none" 
	d="
M193.533951,320.391724 
	C193.302094,319.577484 193.588852,319.285431 194.219131,319.408783 
	C194.350372,319.434448 194.527573,319.619843 194.547653,319.752228 
	C194.644302,320.389771 194.334625,320.657471 193.533951,320.391724 
z"/>
<path fill="#FAFDF4" opacity="1.000000" stroke="none" 
	d="
M287.165833,289.223236 
	C287.476624,288.692963 287.953247,288.389740 288.729645,288.096588 
	C288.815918,288.999908 288.771759,290.107086 287.165833,289.223236 
z"/>
<path fill="#FAFDF4" opacity="1.000000" stroke="none" 
	d="
M146.606415,270.045471 
	C146.202530,270.789185 145.794312,270.794708 145.432480,270.268311 
	C145.356583,270.157898 145.358673,269.901245 145.436935,269.793213 
	C145.811798,269.275574 146.219757,269.294739 146.606415,270.045471 
z"/>
<path fill="#FAFDF4" opacity="1.000000" stroke="none" 
	d="
M146.045502,259.394104 
	C146.788864,259.797791 146.794601,260.205780 146.268250,260.567444 
	C146.157852,260.643280 145.901382,260.641235 145.793381,260.563019 
	C145.276047,260.188324 145.294876,259.780548 146.045502,259.394104 
z"/>
<path fill="#FAFDF4" opacity="1.000000" stroke="none" 
	d="
M145.954651,205.605499 
	C145.211884,205.202072 145.206161,204.794434 145.732101,204.433044 
	C145.842407,204.357239 146.098663,204.359329 146.206604,204.437500 
	C146.723587,204.811920 146.704559,205.219360 145.954651,205.605499 
z"/>
<path fill="#FAFDF4" opacity="1.000000" stroke="none" 
	d="
M287.608887,185.534470 
	C288.421783,185.303146 288.713806,185.589066 288.590363,186.218628 
	C288.564697,186.349716 288.379608,186.526627 288.247406,186.546661 
	C287.610901,186.643082 287.343353,186.334106 287.608887,185.534470 
z"/>
<path fill="#FAFDF4" opacity="1.000000" stroke="none" 
	d="
M163.393372,145.954620 
	C163.797409,145.210693 164.205750,145.205063 164.567703,145.731735 
	C164.643631,145.842224 164.641571,146.098892 164.563293,146.206985 
	C164.188278,146.724823 163.780167,146.705597 163.393372,145.954620 
z"/>
<path fill="#FAFDF4" opacity="1.000000" stroke="none" 
	d="
M269.861908,124.792160 
	C269.153564,124.716225 268.431091,124.258385 267.569183,123.498383 
	C268.499268,123.076088 269.499207,123.094505 269.861908,124.792160 
z"/>
<path fill="#FAFDF4" opacity="1.000000" stroke="none" 
	d="
M281.099609,165.838684 
	C281.022400,165.594055 281.203705,165.279938 281.668396,164.939896 
	C281.753876,165.199066 281.555969,165.484146 281.099609,165.838684 
z"/>
<path fill="#FAFDF4" opacity="1.000000" stroke="none" 
	d="
M163.871307,152.148468 
	C163.965622,152.370514 163.804504,152.693939 163.375610,153.103973 
	C163.277191,152.876999 163.446518,152.563416 163.871307,152.148468 
z"/>
<path fill="#FAFDF4" opacity="1.000000" stroke="none" 
	d="
M168.878876,147.149658 
	C168.948349,147.373550 168.762329,147.678574 168.305298,148.038956 
	C168.230652,147.806473 168.427017,147.518631 168.878876,147.149658 
z"/>
<path fill="#FAFDF4" opacity="1.000000" stroke="none" 
	d="
M169.974579,146.207672 
	C170.041946,146.453598 169.833542,146.747253 169.344757,147.086899 
	C169.275848,146.840393 169.487320,146.547897 169.974579,146.207672 
z"/>
<path fill="#FAFDF4" opacity="1.000000" stroke="none" 
	d="
M278.895508,132.735077 
	C278.697784,132.818634 278.387054,132.683167 278.010864,132.290161 
	C278.288147,132.083496 278.567200,132.244629 278.895508,132.735077 
z"/>
<path fill="#FAFDF4" opacity="1.000000" stroke="none" 
	d="
M277.856567,131.809113 
	C277.648224,131.899277 277.326965,131.742874 276.906189,131.328873 
	C277.118988,131.235031 277.431335,131.398804 277.856567,131.809113 
z"/>
</svg>