<svg version="1.1" id="Layer_1" xmlns="http://www.w3.org/2000/svg" xmlns:xlink="http://www.w3.org/1999/xlink" x="0px" y="0px"
	 width="100%" viewBox="0 0 432 448" enable-background="new 0 0 432 448" xml:space="preserve">
<path fill="#000000" opacity="1.000000" stroke="none" 
	d="
M126.207016,282.814026 
	C144.834839,291.985870 163.882843,291.363983 183.127899,287.162750 
	C189.566223,285.757233 195.870682,283.738556 202.406204,281.953796 
	C203.891891,286.325226 203.256821,290.302612 203.087906,294.232574 
	C203.010468,296.034180 201.433914,296.666748 200.031219,297.149475 
	C173.843887,306.162659 147.556656,308.140137 121.640480,296.642456 
	C101.539909,287.724854 90.163422,271.404236 86.089478,250.156418 
	C81.946838,228.550385 83.759979,207.449173 93.475266,187.352844 
	C104.348564,164.861084 122.168343,151.014999 146.283859,145.347183 
	C167.721191,140.308807 188.682083,141.496460 208.271713,152.488449 
	C229.025253,164.133545 239.039825,182.771561 241.202606,205.859543 
	C242.277405,217.333145 241.585342,228.801193 237.399078,239.816132 
	C234.744461,246.800980 230.994003,252.964417 225.275421,257.852051 
	C211.399445,269.711792 194.076797,266.377167 185.903717,250.273224 
	C185.689468,249.851089 185.390045,249.472183 185.113419,249.047119 
	C183.320816,249.382721 182.830887,250.979340 182.007553,252.117554 
	C173.460983,263.932465 161.488846,266.185211 148.208878,263.774902 
	C138.046280,261.930389 130.988571,255.417633 127.616051,245.928513 
	C121.117371,227.643463 122.650513,210.135300 135.452332,194.747253 
	C142.281052,186.539001 151.554337,182.505707 162.120438,181.739838 
	C171.814835,181.037155 181.399033,182.168716 190.847336,184.403229 
	C198.445419,186.200150 198.239929,186.557831 197.846985,194.127731 
	C197.079407,208.914886 195.593033,223.691483 196.258362,238.527710 
	C196.576431,245.620605 198.914001,249.093155 203.959000,250.552109 
	C210.021591,252.305313 215.277466,250.414978 219.064194,244.656845 
	C226.183258,233.831589 227.269791,221.570221 226.566223,209.131119 
	C225.792053,195.443924 221.403671,183.069199 211.499359,173.097534 
	C201.647751,163.178970 189.532974,158.304169 175.778137,157.333282 
	C162.493683,156.395599 149.472931,157.611084 137.182495,163.246964 
	C114.343735,173.719879 103.852417,192.738510 100.321671,216.588089 
	C98.566887,228.441254 99.182831,240.146545 102.328896,251.693375 
	C105.999283,265.164551 113.630051,275.674377 126.207016,282.814026 
M162.990952,250.794815 
	C168.223511,250.258194 171.942230,247.418259 174.559860,243.031143 
	C177.505890,238.093689 178.814087,232.632339 179.735947,227.000900 
	C181.008987,219.224106 180.335907,211.363449 181.059006,203.575546 
	C181.687805,196.803436 181.766861,196.810760 175.108719,195.629532 
	C157.062027,192.427887 145.557434,200.009109 141.737701,217.794525 
	C140.720215,222.532043 140.781128,227.382614 141.137024,232.225876 
	C142.153748,246.062469 148.160416,251.431671 162.990952,250.794815 
z"/>
<path fill="#000000" opacity="1.000000" stroke="none" 
	d="
M279.972290,239.893768 
	C271.661346,219.056290 263.488159,198.580063 255.050339,177.440811 
	C261.727112,176.290298 267.339630,176.707886 272.914856,176.946014 
	C275.179932,177.042740 275.476257,179.348892 276.083130,181.003555 
	C285.365601,206.313339 295.078094,231.467392 303.614716,257.048248 
	C304.599426,259.999115 305.236359,263.152008 307.741028,266.191956 
	C311.054932,259.284576 312.389465,252.136581 314.402771,245.280396 
	C320.734619,223.717499 328.338501,202.569565 334.932495,181.097031 
	C335.914825,177.898132 337.582764,176.365662 341.038483,176.730453 
	C345.266846,177.176834 349.620636,176.057816 353.718903,177.449219 
	C354.631409,179.994766 353.404846,181.946823 352.715515,183.932724 
	C339.835724,221.040298 326.960358,258.149506 313.987915,295.224762 
	C310.054932,306.465210 305.177246,317.181549 295.842072,325.216888 
	C286.788818,333.009613 276.301208,334.551422 264.938080,332.723450 
	C261.051331,332.098145 259.320343,330.369263 260.813446,326.236511 
	C261.880524,323.283020 261.731964,319.504059 263.577209,317.319275 
	C265.711395,314.792450 269.484406,317.184174 272.551178,317.099915 
	C279.476807,316.909668 284.631165,313.731964 288.732666,308.520966 
	C293.455841,302.520264 296.114410,295.556213 297.951202,288.208496 
	C298.442261,286.244171 297.890289,284.608978 297.209747,282.910065 
	C291.513489,268.690247 285.810791,254.473007 279.972290,239.893768 
z"/>
</svg>